<?xml version="1.0" encoding="UTF-8"?>
<svg id="Layer_1" data-name="Layer 1" xmlns="http://www.w3.org/2000/svg" xmlns:xlink="http://www.w3.org/1999/xlink" viewBox="0 0 528 528">
  <defs>
    <style>
      .cls-1 {
        fill: none;
      }

      .cls-2 {
        clip-path: url(#clippath);
      }

      .cls-3, .cls-4 {
        fill: #00a2ff;
      }

      .cls-5, .cls-6 {
        fill: #fff;
      }

      .cls-4 {
        stroke: #fff;
        stroke-width: 33px;
      }

      .cls-6 {
        fill-rule: evenodd;
      }
    </style>
    <clipPath id="clippath">
      <path class="cls-1" d="m264,0h0c145.8,0,264,118.2,264,264h0c0,145.8-118.2,264-264,264h0C118.2,528,0,409.8,0,264h0C0,118.2,118.2,0,264,0Z"/>
    </clipPath>
  </defs>
  <g class="cls-2">
    <g>
      <path class="cls-3" d="m264,0h0c145.8,0,264,118.2,264,264h0c0,145.8-118.2,264-264,264h0C118.2,528,0,409.8,0,264h0C0,118.2,118.2,0,264,0Z"/>
      <path class="cls-6" d="m473.52,366.68l-37.01,54.37-61.58-5.18-15.41,10.07-20.01,58.42-64.6,12.27-39.91-47.22-18.04-3.83-55.42,27.2-54.35-36.99,5.18-61.58-10.08-15.42-58.42-20.03-12.27-64.6,47.24-39.91,3.83-18.04-27.2-55.42,36.98-54.33,61.58,5.21,15.4-10.07,19.96-58.45,64.62-12.27,39.91,47.24,18.04,3.83,55.41-27.2,54.4,36.97-5.18,61.59,10.07,15.41,58.46,19.96,12.27,64.62-47.24,39.91-3.83,18.08,27.2,55.41Zm-136.11-115.9c7.54,39.71-18.53,78.01-58.24,85.56-39.71,7.54-78.01-18.53-85.56-58.24-7.54-39.71,18.53-78.02,58.24-85.56s78.01,18.53,85.56,58.24Z"/>
      <path class="cls-4" d="m267.71,396.8h.01s.01,0,.01,0c50.38-6.37,87.68-26.71,101.68-65.4,4.78-12.92,5.3-27.05,3.73-46.61-.25-3.2-.79-6.35-1.62-9.45-1.65-6.26-3.62-11.82-6.1-16.92-1.78-4.17-4.11-8.78-7.17-13.53.16-1.15.28-2.3.36-3.43v-.05s0-.05,0-.05c.4-5.93.55-11.37.31-16.51.41-4.6.77-8.74,1.1-12.41.46-5.17.83-9.44,1.14-12.81,0-.07.01-.13.02-.19l.04-.25.06-.75c.61-8.3,1.03-14.76,1.27-19.67.86-16.07-2.22-29.17-7.95-39.62-5.71-10.4-13.52-17.2-20.64-21.54h-.02s-.01-.02-.01-.02c-12.96-7.86-28.18-11.08-42.98-8.57-5.39.86-10.53,2.28-15.48,4.4-1.58.66-3.14,1.38-4.67,2.17-4.73-.69-9.6-1.04-14.57-1.04-15.91,0-31.25,3.65-45.45,10.73l-.04.02-.04.02c-10.01,5.05-23.12,15.04-31.61,34.03-1.79,3.89-3.05,8.05-5.61,16.46l-.14.45c-6.87,21.96-8.92,32.68-8.92,42.31v17.25c0,5.75.63,11.42,1.87,16.93-5.56,8.24-8.96,17.49-10.26,26.7v.04s0,.04,0,.04c-.33,2.38-.53,4.89-.53,7.49,0,4.38.54,8.35,1.31,11.83-.07,1.5-.13,2.95-.16,4.34-.56,3.21-.84,6.45-.84,9.71v16.37c0,3.13.28,6.19.8,9.18,0,0,0,.01,0,.02-.03.55-.08,1.25-.13,2.2-.24,4.4-.36,7.82-.36,10.62,0,21.18,7.06,38.25,18.94,50.05,11.69,11.61,26.99,17.06,41.6,17.06s27.76-4.87,40.82-13.22h.02s.02-.02.02-.02c3.69-2.37,7.06-5.16,10.05-8.31.05,0,.11-.01.16-.02Z"/>
      <path class="cls-5" d="m319.61,289.07c.99,12.3.79,20.23-.6,23.8-5.76,16.27-25.1,26.48-58.02,30.65-11.11,1.39-22.22-3.87-33.33-15.77,0,1.79.4,7.14,1.19,16.07.6,6.55.49,11.9-.3,16.07-4.96,3.17-8.93,4.76-11.9,4.76-4.57,0-6.84-4.46-6.84-13.39,0-1.59.1-4.11.3-7.58.2-3.47.3-5.9.3-7.29,0-3.37-.3-5.75-.89-7.14v-16.37c0-.4.1-.84.3-1.34.2-.49.4-.94.6-1.34-.2-2.77-.1-7.04.3-12.79.4-3.57.4-5.85,0-6.84-.99-1.98-1.49-3.17-1.49-3.57.79-5.55,4.86-8.33,12.2-8.33,4.76,0,7.63,1.69,8.63,5.06,0,3.17.4,7.84,1.19,13.98,1.19,7.14,4.96,14.29,11.31,21.42,6.94,8.14,13.58,11.9,19.94,11.31,7.14-.79,14.28-2.48,21.42-5.06,9.92-3.57,15.87-7.74,17.85-12.5,1.38-3.57,2.08-7.34,2.08-11.31,0-12.1-4.46-21.13-13.39-27.08-3.97-2.58-11.31-4.66-22.02-6.25-6.15-.79-9.92-1.19-11.31-1.19-9.52.2-18.4-2.88-26.63-9.22-8.23-6.35-12.35-13.69-12.35-22.02v-17.26c0-3.76,2.18-12.59,6.55-26.48,1.98-6.55,3.07-10.02,3.27-10.42,1.78-4.16,4.06-6.94,6.84-8.33,6.74-3.37,13.88-5.06,21.42-5.06,14.68,0,25.49,5.95,32.43,17.85.6.6,1.59,1.49,2.98,2.68.2-2.77.6-7.04,1.19-12.79-.2-2.58-.4-5.06-.6-7.44,0-2.77,1.38-4.66,4.17-5.65.79-.4,1.88-.69,3.27-.89,1.98-.4,4.12.1,6.4,1.49,2.28,1.39,3.22,5.56,2.82,12.5-.2,4.36-.6,10.51-1.19,18.45-.6,6.55-1.49,16.57-2.68,30.06.4,3.17.4,7.54,0,13.09-.99,3.77-3.97,5.65-8.93,5.65-2.58,0-5.06-.69-7.44-2.08-1.19-3.76-1.78-5.36-1.78-4.76.39-5.35-.7-12.5-3.27-21.42-2.18-4.56-5.21-11.06-9.08-19.49-3.87-8.43-8.98-12.95-15.32-13.54-7.94-.6-13.09,2.08-15.47,8.03-.79,2.58-1.89,6.35-3.27,11.31-2.38,7.34-3.87,14.38-4.47,21.12-.2,2.19-.4,3.08-.6,2.68.6,3.97,1.29,7.94,2.08,11.9.99,4.96,3.42,8.73,7.29,11.3,3.87,2.58,11.26,4.16,22.17,4.76,26.78,1.59,43.34,10.92,49.69,27.97.99,1.59,1.98,4.27,2.97,8.03Z"/>
    </g>
  </g>
  <path class="cls-1" d="m264,.5h0c145.53,0,263.5,117.97,263.5,263.5h0c0,145.53-117.97,263.5-263.5,263.5h0C118.47,527.5.5,409.53.5,264h0C.5,118.47,118.47.5,264,.5Z"/>
</svg>