<?xml version="1.0" encoding="UTF-8"?>
<svg id="Layer_1" data-name="Layer 1" xmlns="http://www.w3.org/2000/svg" viewBox="0 0 1366 768">
  <defs>
    <style>
      .cls-1 {
        fill: #ff9f00;
        opacity: .5;
      }

      .cls-2 {
        fill: #ffc26d;
        opacity: .5;
      }
    </style>
  </defs>
  <rect class="cls-1" width="1366" height="768"/>
  <path class="cls-2" d="m382,19c-9.09,55.22-155.97,63.98-156,115-.02,34,65.21,42.03,94,104,17.05,36.7,19.08,83.93,2,122-31.49,70.18-118.66,87.15-159,95-45.93,8.94-106.63,10.32-163-2.9V0h380.41c1.97,6.74,2.55,13.14,1.59,19Z"/>
  <path class="cls-1" d="m180,411c-59.43,25.52-127.01-2.14-180-41.11V0h247.72c-2.62,13.22-6.88,26.09-12.72,38-42.35,86.37-154.06,93.45-151,126,3.56,37.88,154.19,22.1,183,91,20.5,49.04-25.46,129.57-87,156Z"/>
  <path class="cls-2" d="m1366,413.88v354.12h-447.57c-84.57-58.96-127.9-102.8-131.43-151-6.38-86.98,72.53-181.51,155-210,54.44-18.81,87.25-.61,256,14,81.59,7.06,117.17,31.72,151,9,7-4.7,12.53-10.16,17-16.12Z"/>
  <path class="cls-1" d="m1366,768h-307.56c-112.34-130.94-166.51-201.66-150.44-244,31.65-83.41,227.04-125.36,350-60,53.17,28.26,81.63,70.65,108,86.65v217.35Z"/>
</svg>