<svg width="1366" height="768" viewBox="0 0 1366 768" fill="none" xmlns="http://www.w3.org/2000/svg">
<g clip-path="url(#clip0_719_97)">
<rect width="1366" height="768" fill="#FF9F00"/>
<path opacity="0.5" d="M382 19C372.91 74.22 226.03 82.98 226 134C225.98 168 291.21 176.03 320 238C337.05 274.7 339.08 321.93 322 360C290.51 430.18 203.34 447.15 163 455C117.07 463.94 56.37 465.32 0 452.1V0H380.41C382.38 6.74 382.96 13.14 382 19Z" fill="white" fill-opacity="0.3"/>
<path opacity="0.5" d="M180 411C120.57 436.52 52.99 408.86 0 369.89V0H247.72C245.1 13.22 240.84 26.09 235 38C192.65 124.37 80.94 131.45 84 164C87.56 201.88 238.19 186.1 267 255C287.5 304.04 241.54 384.57 180 411Z" fill="white" fill-opacity="0.5"/>
<path opacity="0.5" d="M1366 413.88V768H918.43C833.86 709.04 790.53 665.2 787 617C780.62 530.02 859.53 435.49 942 407C996.44 388.19 1029.25 406.39 1198 421C1279.59 428.06 1315.17 452.72 1349 430C1356 425.3 1361.53 419.84 1366 413.88Z" fill="white" fill-opacity="0.3"/>
<path opacity="0.5" d="M1366 768H1058.44C946.1 637.06 891.93 566.34 908 524C939.65 440.59 1135.04 398.64 1258 464C1311.17 492.26 1339.63 534.65 1366 550.65V768Z" fill="white" fill-opacity="0.5"/>
</g>
<defs>
<clipPath id="clip0_719_97">
<rect width="1366" height="768" fill="white"/>
</clipPath>
</defs>
</svg>
