<svg xmlns="http://www.w3.org/2000/svg" height="48" viewBox="0 -960 960 960" width="48"><path d="M177-104q-30.75 0-51.875-21.125T104-177v-606q0-30.75 21.125-51.875T177-856h606q30.75 0 51.875 21.125T856-783v606q0 30.75-21.125 51.875T783-104H177Zm0-73h606v-521H177v521Zm303.041-102q-81.649 0-146.85-44.82Q267.99-368.641 238-440.152q29.99-71.954 95.15-116.901Q398.31-602 479.959-602t146.85 45.098Q692.01-511.803 722-439.848q-29.99 71.51-95.15 116.179Q561.69-279 480.041-279Zm-.1-106Q457-385 441-401.059q-16-16.059-16-39T441.059-479q16.059-16 39-16T519-478.941q16 16.059 16 39T518.941-401q-16.059 16-39 16Zm.059 30q35.6 0 60.3-24.7Q565-404.4 565-440q0-35.6-24.7-60.3Q515.6-525 480-525q-35.6 0-60.3 24.7Q395-475.6 395-440q0 35.6 24.7 60.3Q444.4-355 480-355Z" fill="white"/></svg>