<svg width="4126" height="810" viewBox="0 0 4126 810" fill="none" xmlns="http://www.w3.org/2000/svg">
<g clip-path="url(#clip0_902_60)">
<path d="M526.605 66C509.67 36.6667 467.33 36.6667 450.395 66L55.0543 750.75C38.1187 780.083 59.2882 816.75 93.1594 816.75H883.841C917.712 816.75 938.881 780.083 921.946 750.75L526.605 66Z" fill="#D9D9D9"/>
<rect width="619" height="898" transform="matrix(-1 0 0 1 1107 44)" fill="#D9D9D9"/>
<path d="M1144.7 66C1127.76 36.6667 1085.42 36.6667 1068.49 66L673.148 750.75C656.212 780.083 677.382 816.75 711.253 816.75H1501.93C1535.81 816.75 1556.98 780.083 1540.04 750.75L1144.7 66Z" fill="#B8B8B8"/>
<path d="M1149.79 223.033C1139.03 178.006 1074.97 178.006 1064.21 223.033L894.796 931.771C888.185 959.429 909.153 986 937.59 986H1276.41C1304.85 986 1325.82 959.429 1319.2 931.771L1149.79 223.033Z" fill="#D9D9D9"/>
<path d="M3590.55 70C3607.48 40.6667 3649.82 40.6667 3666.76 70L4062.1 754.75C4079.03 784.083 4057.86 820.75 4023.99 820.75H3233.31C3199.44 820.75 3178.27 784.083 3195.21 754.75L3590.55 70Z" fill="#D9D9D9"/>
<rect x="3010.15" y="48" width="619" height="898" fill="#D9D9D9"/>
<path d="M2972.45 70C2989.39 40.6667 3031.73 40.6667 3048.66 70L3444 754.75C3460.94 784.083 3439.77 820.75 3405.9 820.75H2615.22C2581.35 820.75 2560.18 784.083 2577.11 754.75L2972.45 70Z" fill="#B8B8B8"/>
<path d="M2967.36 227.033C2978.12 182.006 3042.18 182.006 3052.95 227.033L3222.36 935.771C3228.97 963.429 3208 990 3179.56 990H2840.74C2812.31 990 2791.34 963.429 2797.95 935.771L2967.36 227.033Z" fill="#D9D9D9"/>
<path d="M1990.98 318.819C2021.72 267.998 2095.44 267.998 2126.17 318.819L2338.96 670.635C2370.8 723.285 2332.89 790.519 2271.36 790.519H1845.79C1784.26 790.519 1746.35 723.285 1778.19 670.635L1990.98 318.819Z" fill="#D9D9D9"/>
<path fill-rule="evenodd" clip-rule="evenodd" d="M2155.28 556.219C2111.32 483.513 2005.85 483.513 1961.89 556.219L1901.3 656.41C1868.82 710.132 1887.1 774.462 1932.2 806.93H2184.97C2230.07 774.462 2248.35 710.132 2215.86 656.411L2155.28 556.219Z" fill="#B8B8B8"/>
<rect x="1674.84" y="684.022" width="767.479" height="122.908" rx="61.4542" fill="#D9D9D9"/>
<rect x="2299.86" y="684.022" width="142.462" height="122.908" rx="61.4542" fill="#B8B8B8"/>
</g>
<defs>
<clipPath id="clip0_902_60">
<rect width="4126" height="810" fill="white"/>
</clipPath>
</defs>
</svg>
