<svg width="413" height="413" viewBox="0 0 413 413" fill="none" xmlns="http://www.w3.org/2000/svg">
<path d="M214.627 112.085C216.459 112.163 217.134 114.502 215.737 115.689C188.613 138.743 181.058 178.765 199.625 210.923C219.1 244.655 260.439 257.823 295.04 242.647C296.719 241.91 298.526 243.542 297.794 245.223C290.054 262.982 276.804 278.48 258.79 288.881C213.757 314.88 156.011 299.17 129.811 253.791C103.611 208.411 118.879 150.547 163.912 124.547C179.876 115.33 197.439 111.354 214.627 112.085Z" fill="#2A2A2A"/>
<path d="M214.627 112.085C216.459 112.163 217.134 114.502 215.737 115.689C188.613 138.743 181.058 178.765 199.625 210.923C219.1 244.655 260.439 257.823 295.04 242.647C296.719 241.91 298.526 243.542 297.794 245.223C290.054 262.982 276.804 278.48 258.79 288.881C213.757 314.88 156.011 299.17 129.811 253.791C103.611 208.411 118.879 150.547 163.912 124.547C179.876 115.33 197.439 111.354 214.627 112.085Z" fill="#2A2A2A"/>
<path d="M199.625 210.923C181.058 178.765 188.613 138.743 215.737 115.689C217.134 114.502 216.459 112.163 214.627 112.085C197.439 111.354 179.876 115.33 163.912 124.547C118.879 150.547 103.611 208.411 129.811 253.791C156.011 299.17 213.757 314.88 258.79 288.881C276.804 278.48 290.054 262.982 297.794 245.223C298.526 243.542 296.719 241.91 295.04 242.647C260.439 257.823 219.1 244.655 199.625 210.923Z" stroke="#2A2A2A" stroke-width="23"/>
</svg>
