<svg width="413" height="413" viewBox="0 0 413 413" fill="none" xmlns="http://www.w3.org/2000/svg">
<path fill-rule="evenodd" clip-rule="evenodd" d="M197.079 101.225C203.426 94.2582 214.389 94.2582 220.735 101.225L234.734 116.592C238.206 120.404 243.302 122.308 248.422 121.709L268.631 119.343C277.759 118.274 285.909 125.096 286.463 134.27L287.84 157.079C288.135 161.97 290.655 166.456 294.678 169.252L312.946 181.951C320.234 187.018 322.005 197.049 316.892 204.305L303.581 223.195C300.808 227.131 299.954 232.107 301.258 236.743L307.578 259.219C310.015 267.883 304.828 276.851 296.103 279.06L275.591 284.255C270.711 285.491 266.698 288.951 264.757 293.595L256.334 313.744C252.726 322.379 242.509 326.086 234.203 321.776L216.276 312.474C211.656 310.077 206.158 310.077 201.538 312.474L183.612 321.776C175.305 326.086 165.089 322.379 161.48 313.744L153.058 293.595C151.117 288.951 147.103 285.491 142.223 284.255L121.711 279.06C112.986 276.851 107.8 267.883 110.236 259.219L116.557 236.743C117.86 232.107 117.007 227.131 114.233 223.195L100.922 204.305C95.8094 197.049 97.5804 187.018 104.869 181.951L123.136 169.252C127.16 166.456 129.68 161.97 129.975 157.079L131.351 134.27C131.905 125.096 140.055 118.274 149.183 119.343L169.392 121.709C174.513 122.308 179.609 120.404 183.081 116.592L197.079 101.225ZM170.906 213.212C170.906 191.946 188.129 174.724 209.353 174.724C230.577 174.724 247.8 191.946 247.8 213.212C247.8 234.478 230.577 251.701 209.353 251.701C188.129 251.701 170.906 234.478 170.906 213.212ZM209.353 151.724C175.408 151.724 147.906 179.262 147.906 213.212C147.906 247.162 175.408 274.701 209.353 274.701C243.298 274.701 270.8 247.162 270.8 213.212C270.8 179.262 243.298 151.724 209.353 151.724Z" fill="white"/>
</svg>
