<svg width="413" height="413" viewBox="0 0 413 413" fill="none" xmlns="http://www.w3.org/2000/svg">
<path fill-rule="evenodd" clip-rule="evenodd" d="M197.458 99.9682C203.736 93.5373 214.078 93.5373 220.356 99.9682L239.356 119.43C242.324 122.471 246.381 124.206 250.631 124.252L277.432 124.543C286.138 124.638 293.171 131.677 293.257 140.383L293.55 169.842C293.589 173.849 295.131 177.695 297.871 180.62L317.733 201.829C323.496 207.982 323.496 217.55 317.733 223.703L297.871 244.912C295.131 247.836 293.589 251.683 293.55 255.69L293.257 285.148C293.171 293.855 286.138 300.894 277.432 300.989L250.631 301.28C246.381 301.326 242.324 303.061 239.356 306.102L220.356 325.564C214.078 331.995 203.736 331.995 197.458 325.564L178.459 306.102C175.49 303.061 171.433 301.326 167.184 301.28L140.383 300.989C131.676 300.894 124.644 293.855 124.557 285.148L124.265 255.69C124.225 251.683 122.683 247.836 119.944 244.912L100.081 223.703C94.3189 217.55 94.3189 207.982 100.081 201.829L119.944 180.62C122.683 177.695 124.225 173.849 124.265 169.842L124.557 140.383C124.644 131.677 131.676 124.638 140.383 124.543L167.184 124.252C171.433 124.206 175.49 122.471 178.459 119.43L197.458 99.9682ZM170.906 213.212C170.906 191.946 188.129 174.724 209.353 174.724C230.577 174.724 247.8 191.946 247.8 213.212C247.8 234.478 230.577 251.701 209.353 251.701C188.129 251.701 170.906 234.478 170.906 213.212ZM209.353 151.724C175.408 151.724 147.906 179.262 147.906 213.212C147.906 247.162 175.408 274.701 209.353 274.701C243.298 274.701 270.8 247.162 270.8 213.212C270.8 179.262 243.298 151.724 209.353 151.724Z" fill="white"/>
</svg>
