<svg width="128" height="128" viewBox="0 0 128 128" fill="none" xmlns="http://www.w3.org/2000/svg">
<g clip-path="url(#clip0_140_100)">
<rect width="128" height="128" rx="64" fill="#6F00FF"/>
<path fill-rule="evenodd" clip-rule="evenodd" d="M114.794 88.8914L105.821 102.073L90.8923 100.816L87.1553 103.259L82.3041 117.421L66.6435 120.396L56.9693 108.948L52.596 108.019L39.1603 114.613L25.9851 105.644L27.2414 90.7161L24.7984 86.9783L10.6361 82.1217L7.66125 66.4616L19.114 56.7865L20.0428 52.4138L13.4489 38.978L22.4141 25.8079L37.3436 27.0697L41.0774 24.6293L45.9156 10.4586L61.5802 7.48285L71.2553 18.9356L75.628 19.8644L89.0616 13.2716L102.249 22.2348L100.993 37.1656L103.434 40.9002L117.604 45.7384L120.58 61.403L109.128 71.0772L108.2 75.4594L114.794 88.8914ZM81.7964 60.7948C83.6251 70.4213 77.3037 79.7076 67.6772 81.5362C58.0507 83.3649 48.7645 77.0436 46.9358 67.4171C45.1071 57.7906 51.4285 48.5043 61.0549 46.6756C70.6814 44.847 79.9677 51.1683 81.7964 60.7948Z" fill="white"/>
<path d="M85.7996 78.9637C83.1507 86.3034 75.9504 90.7646 64.4038 92.2243C63.8789 92.2899 63.3622 92.3309 62.8456 92.3473C62.1731 93.3314 61.2957 94.1843 60.2624 94.8486C57.5561 96.5789 55.0221 97.4236 52.5208 97.4236C47.3789 97.4236 41.8434 93.5857 41.8434 85.1553C41.8434 84.5812 41.868 83.8349 41.9254 82.8016C41.95 82.3588 41.9746 82.0144 41.9828 81.7601C41.8434 81.1205 41.7696 80.4726 41.7696 79.8166V75.8474C41.7696 75.1995 41.8352 74.5516 41.9664 73.9038C41.9746 73.3543 41.9992 72.7393 42.0402 72.0668C41.8434 71.3451 41.6958 70.5087 41.6958 69.5738C41.6958 69.1473 41.7286 68.7209 41.786 68.3027C42.0976 66.1049 43.0735 63.8988 44.7219 62.1357C44.156 60.5529 43.8608 58.88 43.8608 57.166V52.9836C43.8608 51.286 44.197 49.1702 45.8454 43.9054C46.5343 41.6419 46.7557 40.9367 47.0591 40.2806C48.6747 36.6559 51.1103 34.8435 52.8817 33.9496C55.7765 32.5063 58.8846 31.7682 62.1157 31.7682C63.6083 31.7682 65.0352 31.924 66.3965 32.2192C67.0034 31.8092 67.6513 31.4648 68.3401 31.1777C69.2176 30.8005 70.1525 30.5381 71.1858 30.3741C73.769 29.9312 76.4999 30.4807 78.8781 31.924C81.3794 33.4494 84.2496 36.6148 83.897 43.1263C83.8396 44.2744 83.7412 45.8079 83.5936 47.8089C83.5854 47.8581 83.5854 47.9073 83.5772 47.9565C83.446 49.4081 83.2573 51.5731 83.0031 54.4351C83.0687 55.5423 83.0441 56.7806 82.9457 58.2403C82.9047 58.798 82.8145 59.3556 82.6669 59.8969C82.6341 60.0199 82.6013 60.1347 82.5685 60.2413C83.6756 61.66 84.43 63.0788 84.9467 64.3089C85.4305 65.2848 85.8406 66.4083 86.2014 67.7778C86.3408 68.2945 86.431 68.8193 86.472 69.3524C86.8411 73.953 86.6525 76.6675 85.7996 78.9637Z" fill="#6F00FF"/>
<path d="M77.4808 70.0774C77.7211 73.06 77.6719 74.9823 77.3365 75.8483C75.9407 79.792 71.2515 82.2678 63.2705 83.2782C60.5766 83.6152 57.8843 82.3408 55.1903 79.455C55.1903 79.888 55.2862 81.1862 55.4798 83.3512C55.6241 84.938 55.5995 86.2362 55.4076 87.2457C54.2046 88.015 53.2434 88.4004 52.5218 88.4004C51.4147 88.4004 50.8627 87.3187 50.8627 85.1537C50.8627 84.7691 50.8865 84.1565 50.9349 83.3151C50.9825 82.4745 51.0071 81.8849 51.0071 81.5478C51.0071 80.7302 50.9349 80.1537 50.7906 79.8166V75.8491C50.7906 75.7531 50.8144 75.6449 50.8627 75.5243C50.9103 75.4046 50.9587 75.2964 51.0071 75.1996C50.9587 74.5271 50.9825 73.493 51.0792 72.0981C51.1752 71.2321 51.1752 70.6801 51.0792 70.439C50.8381 69.9593 50.7192 69.6706 50.7192 69.5739C50.9103 68.2273 51.8977 67.554 53.6764 67.554C54.8303 67.554 55.5274 67.9632 55.7685 68.78C55.7685 69.5493 55.8644 70.6801 56.0571 72.1702C56.3466 73.9014 57.2593 75.6334 58.7986 77.3638C60.4814 79.3361 62.0921 80.2496 63.6322 80.1053C65.3634 79.9142 67.0945 79.505 68.8257 78.8793C71.2302 78.0133 72.6727 77.0038 73.1541 75.8499C73.4895 74.9839 73.6585 74.0712 73.6585 73.1084C73.6585 70.1758 72.5768 67.987 70.4126 66.5445C69.4498 65.9196 67.6711 65.4144 65.0739 65.029C63.583 64.8379 62.6686 64.7403 62.3332 64.7403C60.0246 64.7887 57.872 64.0432 55.8767 62.504C53.8806 60.9655 52.8834 59.1851 52.8834 57.1653V52.982C52.8834 52.0693 53.4124 49.9289 54.4711 46.5625C54.9508 44.9748 55.2157 44.1342 55.2649 44.0375C55.6971 43.0279 56.2498 42.3547 56.9231 42.0176C58.5575 41.2008 60.2887 40.7916 62.1167 40.7916C65.675 40.7916 68.296 42.2341 69.9796 45.1191C70.1239 45.2635 70.3642 45.48 70.7012 45.7686C70.7488 45.0962 70.8456 44.0621 70.9899 42.6671C70.9415 42.0422 70.8931 41.4411 70.8456 40.8638C70.8456 40.1913 71.181 39.7345 71.8551 39.4934C72.047 39.3975 72.3119 39.3253 72.6489 39.2769C73.1295 39.181 73.647 39.3015 74.2005 39.6369C74.7524 39.974 74.9812 40.9843 74.8853 42.6663C74.8369 43.7242 74.741 45.2151 74.5966 47.1382C74.4523 48.7258 74.2366 51.1541 73.9471 54.4246C74.0431 55.1938 74.0431 56.2525 73.9471 57.5983C73.706 58.5118 72.9843 58.9686 71.7829 58.9686C71.1572 58.9686 70.5569 58.8005 69.9796 58.4643C69.6909 57.5515 69.5474 57.1653 69.5474 57.3096C69.6425 56.0114 69.3785 54.2802 68.7536 52.116C68.2238 51.0106 67.4915 49.436 66.5533 47.3916C65.6151 45.3479 64.3768 44.2531 62.8383 44.1088C60.9144 43.9645 59.6646 44.614 59.0873 46.0565C58.8954 46.6822 58.6297 47.5966 58.2943 48.798C57.717 50.5776 57.3561 52.285 57.2118 53.9194C57.1634 54.4492 57.115 54.6657 57.0675 54.5689C57.2118 55.5317 57.3799 56.4928 57.5726 57.4547C57.8129 58.657 58.4025 59.5714 59.3399 60.1955C60.2781 60.8212 62.0683 61.205 64.7139 61.3493C71.2056 61.7356 75.2207 63.9957 76.76 68.1305C76.9994 68.516 77.2397 69.1646 77.4808 70.0774Z" fill="white"/>
</g>
<defs>
<clipPath id="clip0_140_100">
<rect width="128" height="128" rx="64" fill="white"/>
</clipPath>
</defs>
</svg>
