<svg width="128" height="128" viewBox="0 0 128 128" fill="none" xmlns="http://www.w3.org/2000/svg">
<path fill-rule="evenodd" clip-rule="evenodd" d="M94.6562 107.038L105.381 96.313L101.604 82.5911L103.249 78.661L115.667 71.6538V56.4879L103.284 49.4513L101.666 45.5282L105.491 31.7992L94.759 21.0827L81.0358 24.8587L77.1145 23.2146L70.1066 10.7952H54.9407L47.9042 23.1782L43.982 24.7958L30.2552 20.9665L19.5398 31.6819L23.3165 45.4073L21.6724 49.3286L9.25293 56.3364V71.498L21.6248 78.5501L23.2441 82.4766L19.4202 96.2034L30.1396 106.923L43.8651 103.146L47.7868 104.79L54.7948 117.205H69.9568L77.0038 104.833L80.9295 103.214L94.6562 107.038ZM95.6064 71.8656L91.3894 81.937L94.5594 93.453L91.81 96.2024L80.3184 93.0011L70.2425 97.1566L64.3335 107.531H60.4424L54.5823 97.1499L44.522 92.9318L32.9998 96.1022L30.2551 93.3575L33.4564 81.8658L29.3012 71.7908L18.9267 65.8771V61.9856L29.3123 56.1254L33.5306 46.0646L30.3602 34.5424L33.0992 31.8034L44.5908 35.0091L54.6701 30.8522L60.5701 20.4693H64.4572L70.3174 30.8548L80.3782 35.0732L91.9027 31.9022L94.6543 34.6498L91.4536 46.1391L95.6102 56.2176L105.993 62.1176V66.0047L95.6064 71.8656ZM62.4601 83.3505C51.7745 83.3505 43.112 74.688 43.112 64.0024C43.112 53.3167 51.7745 44.6543 62.4601 44.6543C73.1458 44.6543 81.8082 53.3167 81.8082 64.0024C81.8082 74.688 73.1458 83.3505 62.4601 83.3505ZM72.1343 64.0025C72.1343 69.3453 67.803 73.6765 62.4602 73.6765C57.1174 73.6765 52.7862 69.3453 52.7862 64.0025C52.7862 58.6596 57.1174 54.3284 62.4602 54.3284C67.803 54.3284 72.1343 58.6596 72.1343 64.0025Z" fill="white"/>
</svg>
