<svg xmlns="http://www.w3.org/2000/svg" width="23" height="23" viewBox="0 0 23 23" fill="none">
<path fill-rule="evenodd" clip-rule="evenodd" d="M13.0917 2.66768C12.4622 1.11077 10.258 1.11077 9.62856 2.66768C9.21313 3.6953 7.99932 4.13709 7.02053 3.61692C5.53762 2.82884 3.84905 4.24572 4.36765 5.84295C4.70995 6.8972 4.0641 8.01585 2.97995 8.24652C1.3374 8.59602 0.954636 10.7668 2.37859 11.657C3.31846 12.2446 3.54277 13.5167 2.86054 14.3902C1.82692 15.7138 2.92906 17.6227 4.59208 17.3894C5.68975 17.2353 6.67925 18.0656 6.71816 19.1734C6.77712 20.8516 8.84846 21.6055 9.9724 20.3578C10.7143 19.5342 12.006 19.5342 12.7478 20.3578C13.8718 21.6055 15.9431 20.8516 16.002 19.1734C16.041 18.0656 17.0305 17.2353 18.1281 17.3894C19.7912 17.6227 20.8933 15.7138 19.8597 14.3902C19.1774 13.5167 19.4017 12.2446 20.3416 11.657C21.7656 10.7668 21.3828 8.59602 19.7403 8.24652C18.6561 8.01585 18.0103 6.89719 18.3526 5.84295C18.8712 4.24572 17.1826 2.82884 15.6997 3.61692C14.7209 4.13709 13.5071 3.6953 13.0917 2.66768ZM11.3601 7.81501C9.33465 7.81501 7.69269 9.45697 7.69269 11.4824C7.69269 13.5079 9.33465 15.1498 11.3601 15.1498C13.3856 15.1498 15.0275 13.5079 15.0275 11.4824C15.0275 9.45697 13.3856 7.81501 11.3601 7.81501Z" fill="#3D3D3D"/>
</svg>