<?xml version="1.0" encoding="UTF-8"?>
<svg id="Layer_1" data-name="Layer 1" xmlns="http://www.w3.org/2000/svg" viewBox="0 0 42.55 42.55">
  <defs>
    <style>
      .cls-1 {
        fill: #fc8c4f;
        stroke-width: 0px;
      }
    </style>
  </defs>
  <path class="cls-1" d="m21.24,32.55c.81,0,1.47-.25,1.99-.74.52-.49.78-1.14.78-1.95s-.25-1.48-.76-2.01c-.51-.53-1.17-.8-1.98-.8s-1.47.27-1.99.8c-.52.53-.78,1.2-.78,2.01s.25,1.46.76,1.95c.51.49,1.17.74,1.98.74Zm-2.19-8.85h4.7v-13.5h-4.7v13.5Zm2.22,18.85c-2.96,0-5.73-.55-8.31-1.65-2.58-1.1-4.83-2.62-6.76-4.55s-3.45-4.18-4.55-6.76c-1.1-2.57-1.65-5.34-1.65-8.31s.55-5.74,1.65-8.31c1.1-2.58,2.62-4.82,4.54-6.74,1.93-1.92,4.18-3.43,6.75-4.55,2.58-1.12,5.35-1.68,8.32-1.68s5.74.56,8.32,1.67c2.58,1.12,4.83,2.63,6.74,4.54,1.91,1.91,3.43,4.16,4.54,6.74,1.12,2.58,1.67,5.36,1.67,8.33s-.56,5.74-1.68,8.31c-1.12,2.57-2.63,4.82-4.55,6.74-1.92,1.92-4.16,3.44-6.74,4.54-2.58,1.11-5.35,1.66-8.31,1.66Zm0-4.7c4.58,0,8.48-1.61,11.7-4.82,3.22-3.21,4.83-7.13,4.83-11.76s-1.61-8.48-4.82-11.7c-3.21-3.22-7.13-4.83-11.76-4.83s-8.48,1.61-11.7,4.82c-3.22,3.21-4.83,7.13-4.83,11.76s1.61,8.48,4.82,11.7c3.21,3.22,7.13,4.83,11.76,4.83Z"/>
</svg>