<svg version="1.1" xmlns="http://www.w3.org/2000/svg" xmlns:xlink="http://www.w3.org/1999/xlink" width="24" height="24" viewBox="0,0,24,24"><defs><clipPath id="clip-1"><path d="M228,192v-24c0,0 5.37258,0 12,0c6.62742,0 12,0 12,0v24c0,0 -5.37258,0 -12,0c-6.62742,0 -12,0 -12,0z" fill="none" fill-rule="nonzero"/></clipPath></defs><g transform="translate(-228,-168)"><g clip-path="url(#clip-1)" data-paper-data="{&quot;isPaintingLayer&quot;:true}" stroke="none" stroke-width="1" stroke-linecap="butt" stroke-linejoin="miter" stroke-miterlimit="10" stroke-dasharray="" stroke-dashoffset="0" style="mix-blend-mode: normal"><path d="M249.5238,184.6672l-1.6824,2.4715l-2.7991,-0.2356l-0.7007,0.458l-0.9096,2.6553l-2.9363,0.5578l-1.814,-2.1464l-0.81995,-0.1742l-2.5192,1.2364l-2.47034,-1.6816l0.23556,-2.7991l-0.45807,-0.7008l-2.65543,-0.9106l-0.55779,-2.9363l2.1474,-1.8141l0.17415,-0.81988l-1.23636,-2.5192l1.68098,-2.4694l2.79928,0.23659l0.70008,-0.45757l0.90717,-2.65702l2.93712,-0.55795l1.8141,2.1474l0.8199,0.17414l2.5187,-1.23615l2.4727,1.68059l-0.2356,2.79954l0.4577,0.70024l2.657,0.90716l0.558,2.93711l-2.1472,1.8139l-0.1741,0.8217zM243.3368,179.3991c0.3429,1.8049 -0.8424,3.5461 -2.6473,3.889c-1.805,0.3429 -3.54616,-0.8424 -3.88904,-2.6474c-0.34288,-1.8049 0.84238,-3.5461 2.64734,-3.88898c1.805,-0.34288 3.5461,0.84238 3.889,2.64738z" fill="#ffffff" fill-rule="evenodd"/><path d="M244.0874,182.8057c-0.4967,1.3762 -1.8467,2.2126 -4.0117,2.4863c-0.0984,0.0123 -0.1953,0.02 -0.2922,0.0231c-0.1261,0.1845 -0.2906,0.3444 -0.4843,0.469c-0.5075,0.3244 -0.9826,0.4828 -1.45158,0.4828c-0.9641,0 -2.00201,-0.7196 -2.00201,-2.3003c0,-0.1076 0.00461,-0.2476 0.01538,-0.4413c0.00461,-0.083 0.00922,-0.1476 0.01076,-0.1953c-0.02614,-0.1199 -0.03998,-0.2414 -0.03998,-0.3644v-0.7442c0,-0.1215 0.0123,-0.243 0.0369,-0.3645c0.00154,-0.103 0.00615,-0.2183 0.01384,-0.3444c-0.0369,-0.1353 -0.06458,-0.2921 -0.06458,-0.4674c0,-0.08 0.00615,-0.16 0.01692,-0.2384c0.05843,-0.4121 0.24141,-0.8257 0.55047,-1.1563c-0.10609,-0.2967 -0.16145,-0.6104 -0.16145,-0.9318v-0.7842c0,-0.31829 0.06304,-0.715 0.37211,-1.70217c0.12916,-0.42439 0.17068,-0.55663 0.22757,-0.67964c0.30292,-0.67964 0.7596,-1.01946 1.09173,-1.18706c0.54282,-0.27063 1.12552,-0.40902 1.73142,-0.40902c0.2798,0 0.5474,0.02922 0.8026,0.08458c0.1138,-0.07689 0.2353,-0.14147 0.3644,-0.19529c0.1646,-0.07073 0.3399,-0.11993 0.5336,-0.15069c0.4844,-0.08303 0.9964,0.01999 1.4423,0.29062c0.469,0.286 1.0072,0.87953 0.9411,2.10042c-0.0108,0.21527 -0.0293,0.50281 -0.0569,0.878c-0.0016,0.00923 -0.0016,0.01845 -0.0031,0.02768c-0.0246,0.27216 -0.06,0.6781 -0.1076,1.21477c0.0123,0.2075 0.0076,0.4397 -0.0108,0.7134c-0.0077,0.1046 -0.0246,0.2092 -0.0523,0.3106c-0.0061,0.0231 -0.0123,0.0446 -0.0184,0.0646c0.2075,0.266 0.349,0.532 0.4459,0.7627c0.0907,0.183 0.1676,0.3936 0.2352,0.6504c0.0262,0.0969 0.0431,0.1953 0.0508,0.2952c0.0692,0.8627 0.0338,1.3716 -0.1261,1.8022z" fill="#f9a83a" fill-rule="nonzero"/><path d="M242.5276,181.1395c0.045,0.5592 0.0358,0.9196 -0.0271,1.082c-0.2617,0.7395 -1.1409,1.2037 -2.6374,1.3931c-0.5051,0.0632 -1.0099,-0.1757 -1.515,-0.7168c0,0.0812 0.018,0.3246 0.0543,0.7305c0.027,0.2975 0.0224,0.541 -0.0136,0.7302c-0.2255,0.1443 -0.40575,0.2165 -0.54106,0.2165c-0.20758,0 -0.31107,-0.2028 -0.31107,-0.6087c0,-0.0721 0.00446,-0.187 0.01354,-0.3448c0.00891,-0.1576 0.01353,-0.2681 0.01353,-0.3313c0,-0.1533 -0.01354,-0.2614 -0.0406,-0.3246v-0.7439c0,-0.018 0.00446,-0.0383 0.01353,-0.0609c0.00892,-0.0225 0.01799,-0.0428 0.02707,-0.0609c-0.00908,-0.1261 -0.00462,-0.32 0.01353,-0.5816c0.01799,-0.1623 0.01799,-0.2658 0,-0.311c-0.04521,-0.09 -0.0675,-0.1441 -0.0675,-0.1622c0.03582,-0.2525 0.22095,-0.3788 0.55443,-0.3788c0.2164,0 0.3471,0.0768 0.3923,0.2299c0,0.1442 0.018,0.3563 0.0541,0.6357c0.0543,0.3246 0.2254,0.6493 0.5141,0.9738c0.3155,0.3698 0.6175,0.5411 0.9062,0.514c0.3246,-0.0358 0.6492,-0.1126 0.9738,-0.2299c0.4509,-0.1623 0.7213,-0.3516 0.8116,-0.568c0.0629,-0.1624 0.0946,-0.3335 0.0946,-0.514c0,-0.5499 -0.2028,-0.9603 -0.6086,-1.2307c-0.1806,-0.1172 -0.5141,-0.2119 -1.001,-0.2842c-0.2796,-0.0358 -0.451,-0.0541 -0.5139,-0.0541c-0.4329,0.009 -0.8365,-0.1307 -1.2106,-0.4193c-0.3743,-0.2885 -0.56125,-0.6223 -0.56125,-1.0011v-0.7843c0,-0.17114 0.09915,-0.57247 0.29765,-1.20367c0.09,-0.29769 0.1397,-0.4553 0.1489,-0.47344c0.081,-0.18929 0.1847,-0.31553 0.3109,-0.37873c0.3064,-0.15315 0.631,-0.22988 0.9738,-0.22988c0.6672,0 1.1586,0.27048 1.4743,0.81142c0.027,0.02706 0.0721,0.06766 0.1353,0.12178c0.0089,-0.12609 0.0271,-0.31998 0.0541,-0.58154c-0.0091,-0.11716 -0.0181,-0.22987 -0.027,-0.33812c0,-0.12609 0.0628,-0.21174 0.1892,-0.25694c0.036,-0.01799 0.0857,-0.03153 0.1489,-0.0406c0.0901,-0.01799 0.1871,0.00462 0.2909,0.06751c0.1035,0.06319 0.1464,0.25263 0.1284,0.568c-0.0091,0.19836 -0.0271,0.4779 -0.0541,0.83848c-0.0271,0.29769 -0.0675,0.75299 -0.1218,1.36623c0.018,0.1442 0.018,0.3427 0,0.595c-0.0452,0.1713 -0.1805,0.257 -0.4058,0.257c-0.1173,0 -0.2299,-0.0315 -0.3381,-0.0946c-0.0541,-0.1711 -0.0811,-0.2436 -0.0811,-0.2165c0.0179,-0.2434 -0.0316,-0.568 -0.1488,-0.97378c-0.0993,-0.20727 -0.2366,-0.5025 -0.4125,-0.88584c-0.176,-0.38318 -0.4081,-0.58846 -0.6966,-0.61552c-0.3607,-0.02706 -0.5951,0.09472 -0.7033,0.36519c-0.036,0.11733 -0.0858,0.28877 -0.1487,0.51404c-0.1083,0.33367 -0.1759,0.65381 -0.203,0.96021c-0.0091,0.0994 -0.0181,0.14 -0.027,0.1218c0.027,0.1805 0.0585,0.3608 0.0947,0.5411c0.045,0.2254 0.1556,0.3969 0.3313,0.5139c0.1759,0.1173 0.5116,0.1893 1.0077,0.2164c1.2172,0.0724 1.97,0.4962 2.2586,1.2714c0.0449,0.0723 0.09,0.1939 0.1352,0.3651z" fill="#ffffff" fill-rule="nonzero"/></g></g></svg>