<?xml version="1.0" encoding="UTF-8"?>
<svg id="Layer_1" data-name="Layer 1" xmlns="http://www.w3.org/2000/svg" xmlns:xlink="http://www.w3.org/1999/xlink" viewBox="0 0 190.62 190.62">
  <defs>
    <style>
      .cls-1 {
        mask: url(#mask);
      }

      .cls-2 {
        fill: #fff;
        fill-rule: evenodd;
      }

      .cls-2, .cls-3 {
        stroke-width: 0px;
      }

      .cls-3 {
        fill: #c40000;
      }
    </style>
    <mask id="mask" x="0" y="0" width="190.62" height="190.62" maskUnits="userSpaceOnUse">
      <g id="mask-2">
        <path id="path-1" class="cls-2" d="m43.34,66.72h103.94c2.63,0,4.77,2.13,4.77,4.77,0,.14,0,.29-.02.43l-7.48,82.3c-.89,9.82-9.12,17.34-18.98,17.34h-60.49c-9.86,0-18.09-7.51-18.99-17.33l-7.48-82.31c-.24-2.62,1.69-4.94,4.31-5.18.14-.01.29-.02.43-.02Zm26.55-28.59l5.27-15.8c.65-1.95,2.47-3.26,4.52-3.26h31.26c2.05,0,3.87,1.31,4.52,3.26l5.27,15.8h36.54c2.63,0,4.77,2.13,4.77,4.77v9.53c0,2.63-2.13,4.77-4.77,4.77H33.36c-2.63,0-4.77-2.13-4.77-4.77v-9.53c0-2.63,2.13-4.77,4.77-4.77h36.54Zm10.05,0h30.74l-3.18-9.53h-24.39l-3.18,9.53Zm15.37,73.59l15.2-15.2c1.86-1.86,4.88-1.86,6.74,0l.69.69c1.86,1.86,1.86,4.88,0,6.74l-15.2,15.2,15.2,15.2c1.86,1.86,1.86,4.88,0,6.74l-.69.69c-1.86,1.86-4.88,1.86-6.74,0l-15.2-15.2-15.2,15.2c-1.86,1.86-4.88,1.86-6.74,0l-.69-.69c-1.86-1.86-1.86-4.88,0-6.74l15.2-15.2-15.2-15.2c-1.86-1.86-1.86-4.88,0-6.74l.69-.69c1.86-1.86,4.88-1.86,6.74,0l15.2,15.2Z"/>
      </g>
    </mask>
  </defs>
  <g id="Sound_General_Delete" data-name="Sound/General/Delete">
    <g class="cls-1">
      <g id="White">
        <rect id="Color" class="cls-3" width="190.62" height="190.62"/>
      </g>
    </g>
  </g>
</svg>