<?xml version="1.0" encoding="UTF-8"?>
<svg id="Layer_1" data-name="Layer 1" xmlns="http://www.w3.org/2000/svg" viewBox="0 0 13.04 13.08">
  <defs>
    <style>
      .cls-1, .cls-2 {
        fill: #7860aa;
        fill-rule: evenodd;
        stroke-width: 0px;
      }

      .cls-2 {
        isolation: isolate;
        opacity: .5;
      }
    </style>
  </defs>
  <path class="cls-2" d="M13.04.89v5.64c0,.49-.39.88-.88.88h-4.76l.86-1.11,1.25-1.63c.19-.25.2-.61.02-.86-.24-.32-.69-.37-1.01-.13l-1.6,1.23-1.21.92-.07-.07V.89c0-.49.39-.89.88-.89h5.64c.49,0,.88.4.88.89Z"/>
  <path class="cls-1" d="M8.74,7.41c-.1-.4-.26-.77-.48-1.11l-.86,1.11-.05.07.75.75c.21.21.04.58-.25.58l-3.24.08c-.19,0-.34-.15-.34-.33l.08-3.24c0-.3.37-.46.58-.25l.69.69.07.07,1.21-.92c-.38-.26-.81-.46-1.28-.58-.37-.11-.77-.17-1.18-.17C2,4.17,0,6.16,0,8.62s2,4.46,4.46,4.46,4.45-2,4.45-4.46c0-.42-.06-.83-.18-1.21Z"/>
</svg>