<?xml version="1.0" encoding="UTF-8"?>
<svg id="Layer_1" data-name="Layer 1" xmlns="http://www.w3.org/2000/svg" viewBox="0 0 189 231.32">
  <defs>
    <style>
      .cls-1 {
        fill: #fff;
        stroke-width: 0px;
      }
    </style>
  </defs>
  <path class="cls-1" d="m4.5,224.5V64.5c0-5.5,1.96-10.21,5.88-14.13,3.92-3.92,8.63-5.88,14.13-5.88h100c5.5,0,10.21,1.96,14.13,5.88s5.88,8.63,5.88,14.13v160l-70-30L4.5,224.5Zm20-30.5l50-21.5,50,21.5V64.5H24.5v129.5Zm140,.5V24.5H34.5V4.5h130c5.5,0,10.21,1.96,14.13,5.88s5.88,8.63,5.88,14.13v170h-20ZM24.5,64.5h100H24.5Z"/>
  <path class="cls-1" d="m149,231.32l-74.5-31.93L0,231.32V64.5c0-6.71,2.42-12.53,7.19-17.31s10.6-7.19,17.31-7.19h100c6.71,0,12.53,2.42,17.31,7.19,4.77,4.77,7.19,10.6,7.19,17.31v166.82Zm-74.5-41.72l65.5,28.07V64.5c0-4.3-1.49-7.88-4.56-10.94-3.07-3.07-6.65-4.56-10.94-4.56H24.5c-4.3,0-7.88,1.49-10.94,4.56s-4.56,6.65-4.56,10.94v153.18l65.5-28.07Zm54.5,11.23l-54.5-23.43-54.5,23.43V60h109v140.83Zm-54.5-33.23l45.5,19.57v-118.17H29v118.17l45.5-19.57Zm114.5,31.4h-29V29H30V0h134.5c6.71,0,12.53,2.42,17.31,7.19,4.77,4.77,7.19,10.6,7.19,17.31v174.5Zm-20-9h11V24.5c0-4.3-1.49-7.88-4.56-10.94-3.07-3.07-6.65-4.56-10.94-4.56H39v11h130v170Z"/>
</svg>