<?xml version="1.0" encoding="UTF-8"?>
<svg id="Layer_1" data-name="Layer 1" xmlns="http://www.w3.org/2000/svg" viewBox="0 0 1366 768">
  <defs>
    <style>
      .cls-1 {
        fill: #ff9f00;
        opacity: .5;
      }

      .cls-2 {
        fill: #ffc26d;
        opacity: .5;
      }
    </style>
  </defs>
  <rect class="cls-1" width="1366" height="768"/>
  <path class="cls-2" d="m1366,0v288c-29.55-1.35-47.65,24.68-90,65-52.62,50.09-78.93,75.14-105,79-54.39,8.06-115.88-43.08-146-90-33.62-52.38-22.6-90.87-64-121-30.39-22.12-48.8-10.44-71-28-41.36-32.71-42.38-124.57-14.09-193h490.09Z"/>
  <path class="cls-2" d="m384,750c-.26,6.9-.41,12.83-.54,18H0v-379.07c44.03-9.63,96.98,2.58,116,31.07,23.04,34.51-13.45,78.32,11,105,21.04,22.96,68.35,12.64,132-2,105.65-24.31,129.09-52.48,149-38,30.72,22.34-17.61,94.86-24,265Z"/>
  <path class="cls-1" d="m284.76,768H0v-310.46c9.79-2.53,19.09-2.72,27.5-.04,36.49,11.65,26.01,67.87,75,95,49.84,27.6,93.63-12.33,133,6,29.85,13.9,57.65,61.52,49.26,209.5Z"/>
  <path class="cls-1" d="m1366,0v197.01c-11.44,21.77-27.74,44.98-51,65.99-19.33,17.46-78.91,71.26-159,61-67.91-8.7-138.52-61.93-137-112,1.16-38.12,43.12-40.79,71-96,22.85-45.24,14.44-82.59,8.83-116h267.17Z"/>
</svg>