<?xml version="1.0" encoding="UTF-8"?>
<svg id="Layer_1" data-name="Layer 1" xmlns="http://www.w3.org/2000/svg" viewBox="0 0 3840 1305">
  <defs>
    <style>
      .cls-1 {
        fill: #FFB02D;
      }

      .cls-2 {
        fill: #ffc26d;
      }
    </style>
  </defs>
  <rect class="cls-1" width="3840" height="1305"/>
  <path class="cls-2" d="m1504,665c42.44-173.1,150-205.83,129-275-38.87-127.99-469.2-220.19-696-11-128.69,118.7-194.75,337.1-122,446,27.84,41.67,52.71,32.44,147,111,121.48,101.2,115.84,146.21,182,175,106.39,46.3,275.12-2.99,339-107,60.37-98.31-21.2-166.9,21-339Z"/>
  <path class="cls-1" d="m1272.5,404.5c-180.58-14.35-331.94,109.77-350,261-15.89,133.08,71.99,282.44,207,310,176.48,36.02,343.51-154.47,321-242-21.1-82.07-211.78-85.09-210-129,2.15-52.92,279.78-64.72,282-111,1.05-21.83-59.23-50.64-250-89Z"/>
  <path class="cls-2" d="m1694.34,0c7.82,81.54,31.76,161.85,63.66,226,109.51,220.23,329.53,283.67,364,293,37.45,10.14,257.88,69.8,415-47,94.27-70.08,68.48-131.37,196-303,66.81-89.92,120.87-136.33,157.55-169h-1196.21Z"/>
  <path class="cls-1" d="m2554,226c-17.81,100.01-278.09,212.58-460,107-116.97-67.89-179.1-212.95-169.71-333h621.12c-23.41,23.29-39.81,50.47-41.41,83-3.3,66.99,59.39,90.25,50,143Z"/>
  <path class="cls-2" d="m756.19,0H0v707.68c97.91,46.41,207.31,60.01,265,11.32,122.11-103.07-59.51-424.53,61-514,93.25-69.23,250.63,87.13,357,14,55.56-38.2,79.86-127.1,73.19-219Z"/>
  <path class="cls-1" d="m537.16,0c-7.42,41.93-25.66,79.45-54.16,101-83.96,63.49-202.21-53-289,4-126.32,82.96,4.04,408.62-90,453-27.13,12.8-65.92-1.12-104-28.44V0h537.16Z"/>
  <path class="cls-2" d="m3104,644c-159.24-94.73-305.26,101.81-735,168-352.44,54.28-493.03-41.13-586,68-78.74,92.42-68.46,267.15,1.59,425h1369.18c44.89-66.43,84.57-152.61,93.23-258,1.2-14.57,21.56-305.11-143-403Z"/>
  <path class="cls-1" d="m2976,1197c-10.56,28.12-25.03,66.62-47.85,108h-957.26c-61.33-78.94-99.31-165.68-69.89-218,49-87.12,223.89,29.62,514-68,78.88-26.54,177.28-72.64,389-139,102.4-32.1,149.31-43.23,183-18,87.86,65.8-2.62,312.69-11,335Z"/>
  <path class="cls-2" d="m3840,0v329.51c-21.75,1.06-44.46,6.06-68,17.49-120.19,58.34-100.16,205.57-185,229-106.41,29.39-278.01-163.5-347-361-5.26-15.06-35.74-105.77-44.84-215h644.84Z"/>
  <path class="cls-1" d="m3840,0v134.91c-62.63,125.03-207.39,150.41-218,152.09-15.65,2.47-170.06,24.47-250-79-44.39-57.45-51.53-135.08-31.81-208h499.81Z"/>
</svg>