<?xml version="1.0" encoding="UTF-8"?>
<svg id="Layer_1" data-name="Layer 1" xmlns="http://www.w3.org/2000/svg" viewBox="0 0 5000 1000">
  <defs>
    <style>
      .cls-1 {
        opacity: .5;
      }

      .cls-1, .cls-2 {
        fill: #fff;
      }

      .cls-1, .cls-2, .cls-3 {
        stroke-width: 0px;
      }

      .cls-4 {
        opacity: .7;
      }

      .cls-3 {
        fill: #ff9f00;
      }
    </style>
  </defs>
  <rect class="cls-3" width="5000" height="1000"/>
  <path class="cls-1" d="M966.62,811.82c-7.81-15.27-19.82-25.52-36.02-30.76l-58.93-19.04,19.04-58.93-294.64-95.22-19.04,58.93-58.93-19.04c-16.2-5.24-31.94-3.95-47.21,3.86-15.27,7.81-25.52,19.82-30.76,36.02l-9.52,29.47c-12.06,37.32-10.18,73.86,5.65,109.62,15.84,35.76,41.45,61.8,76.86,78.12,1.54,25.45,9.34,48.71,23.4,69.8,6.14,9.21,13.07,17.65,20.78,25.35h220.28c2.27-2.42,4.47-4.94,6.61-7.55,38.25,7.48,74.27,1.36,108.03-18.37,33.77-19.73,56.68-48.26,68.74-85.58l9.52-29.46c5.24-16.21,3.95-31.95-3.86-47.22ZM521.8,837.69c-15.61-12.09-26.4-27.38-32.37-45.85-5.96-18.46-5.92-37.03.11-55.69l9.52-29.46,58.93,19.04-36.19,111.96ZM755.61,919.76c-7.93,24.55-23.27,42.65-46.01,54.28-22.75,11.63-46.39,13.48-70.95,5.55-24.55-7.94-42.64-23.28-54.28-46.02-11.63-22.74-13.48-46.39-5.54-70.94l57.13-176.78,176.78,57.13-57.13,176.78ZM902.03,869.46c-6.03,18.66-16.86,33.73-32.51,45.22-15.64,11.48-33.33,17.56-53.08,18.23l36.19-111.96,58.92,19.04-9.52,29.47Z"/>
  <path class="cls-1" d="M2567.51,40.68c-7.81-15.27-19.82-25.53-36.02-30.76l-30.69-9.92h-96.27l-48.03,148.61c-7.93,24.56-23.27,42.65-46.01,54.28-22.75,11.64-46.39,13.49-70.95,5.55-24.55-7.93-42.64-23.27-54.28-46.01-11.63-22.75-13.48-46.39-5.54-70.95l29.56-91.48h-65.09l-21.5,66.55c-15.61-12.1-26.4-27.38-32.37-45.85-2.22-6.88-3.61-13.78-4.17-20.7h-62.34c.78,18.73,5.23,37.26,13.34,55.58,15.84,35.76,41.45,61.8,76.86,78.12,1.54,25.45,9.34,48.71,23.4,69.8,14.07,21.09,32.26,38.22,54.58,51.4l-29.52,91.34-117.86-38.09-19.04,58.93,294.64,95.22,19.04-58.93-117.85-38.09,29.52-91.34c25.8,2.38,50.58-.87,74.33-9.74,23.74-8.86,43.69-23.16,59.83-42.9,38.25,7.49,74.27,1.36,108.03-18.37,33.77-19.73,56.68-48.26,68.74-85.58l9.52-29.46c5.24-16.21,3.95-31.95-3.86-47.21ZM2502.92,98.31c-6.03,18.66-16.87,33.73-32.51,45.22-15.64,11.48-33.34,17.56-53.08,18.23l36.19-111.96,58.92,19.04-9.52,29.47Z"/>
  <path class="cls-1" d="M311.87,0l-4.95,15.31c-6.03,18.66-16.87,33.73-32.51,45.22-15.64,11.48-33.34,17.56-53.08,18.23L246.79,0h-65.09l-21.2,65.61c-7.93,24.56-23.27,42.65-46.01,54.28-22.75,11.64-46.39,13.49-70.95,5.55-17.98-5.81-32.49-15.59-43.54-29.34v243.06l124.21,40.14,19.04-58.93-117.85-38.09,29.52-91.34c25.8,2.38,50.58-.87,74.33-9.74,23.74-8.86,43.69-23.16,59.83-42.9,38.25,7.49,74.27,1.36,108.03-18.37,33.77-19.73,56.68-48.26,68.74-85.58l9.52-29.46c.53-1.63.99-3.26,1.38-4.89h-64.88Z"/>
  <path class="cls-1" d="M3744.51,823.68c-7.81-15.27-19.82-25.53-36.02-30.76l-58.93-19.05,19.04-58.93-294.64-95.21-19.04,58.92-58.93-19.04c-16.2-5.24-31.94-3.95-47.21,3.86s-25.52,19.82-30.76,36.03l-9.52,29.46c-12.06,37.32-10.18,73.86,5.65,109.62,15.84,35.76,41.45,61.8,76.86,78.12,1.54,25.45,9.34,48.71,23.4,69.8,3.13,4.7,6.47,9.2,10.01,13.5h314.72c10.53-3.47,20.85-8.16,30.97-14.07,33.77-19.73,56.68-48.26,68.74-85.58l9.52-29.46c5.24-16.21,3.95-31.95-3.86-47.21ZM3299.69,849.55c-15.61-12.1-26.4-27.38-32.37-45.85-5.96-18.47-5.93-37.04.1-55.7l9.53-29.46,58.92,19.04-36.18,111.97ZM3533.5,931.61c-7.93,24.56-23.27,42.65-46.01,54.28-22.75,11.64-46.39,13.49-70.95,5.55-24.55-7.93-42.64-23.27-54.28-46.01-11.63-22.75-13.48-46.39-5.54-70.95l57.13-176.78,176.78,57.13-57.13,176.78ZM3679.92,881.31c-6.03,18.66-16.87,33.73-32.51,45.22-15.64,11.48-33.34,17.56-53.08,18.23l36.19-111.96,58.92,19.04-9.52,29.47Z"/>
  <path class="cls-1" d="M4992.51,297.68c-7.81-15.27-19.82-25.53-36.02-30.76l-58.93-19.05,19.04-58.93-294.64-95.21-19.04,58.92-58.93-19.04c-16.2-5.24-31.94-3.95-47.21,3.86-15.27,7.81-25.52,19.82-30.76,36.03l-9.52,29.46c-12.06,37.32-10.18,73.86,5.65,109.62,15.84,35.76,41.45,61.8,76.86,78.12,1.54,25.45,9.34,48.71,23.4,69.8,14.07,21.09,32.26,38.22,54.58,51.4l-29.52,91.34-117.86-38.09-19.04,58.93,294.64,95.22,19.04-58.93-117.85-38.09,29.52-91.34c25.8,2.38,50.58-.87,74.33-9.74,23.74-8.86,43.69-23.16,59.83-42.9,38.25,7.49,74.27,1.36,108.03-18.37,33.77-19.73,56.68-48.26,68.74-85.58l9.52-29.46c5.24-16.21,3.95-31.95-3.86-47.21ZM4547.69,323.55c-15.61-12.1-26.4-27.38-32.37-45.85-5.96-18.47-5.93-37.04.1-55.7l9.53-29.46,58.92,19.04-36.18,111.97ZM4781.5,405.61c-7.93,24.56-23.27,42.65-46.01,54.28-22.75,11.64-46.39,13.49-70.95,5.55-24.55-7.93-42.64-23.27-54.28-46.01-11.63-22.75-13.48-46.39-5.54-70.95l57.13-176.78,176.78,57.13-57.13,176.78ZM4927.92,355.31c-6.03,18.66-16.87,33.73-32.51,45.22-15.64,11.48-33.34,17.56-53.08,18.23l36.19-111.96,58.92,19.04-9.52,29.47Z"/>
  <g>
    <path class="cls-2" d="M1405.22,378.86h-40.82v-24.32h111.13v24.32h-40.82v116.6h-29.49v-116.6Z"/>
    <path class="cls-2" d="M1490.09,354.54h28.52v54.3h.59c2.73-6.51,6.82-11.51,12.26-14.99,5.44-3.48,12.06-5.22,19.87-5.22s14.16,1.68,19.63,5.03c5.47,3.35,9.68,8.09,12.65,14.21,2.96,6.12,4.44,13.41,4.44,21.88v65.72h-28.61v-59.86c0-7.29-1.73-13-5.18-17.14-3.45-4.13-8.43-6.2-14.94-6.2-4.17,0-7.8.99-10.89,2.98-3.09,1.99-5.5,4.72-7.23,8.2-1.73,3.48-2.59,7.5-2.59,12.06v59.96h-28.52v-140.92Z"/>
    <path class="cls-2" d="M1626.42,491.02c-7.68-4.39-13.61-10.66-17.77-18.8-4.17-8.14-6.25-17.77-6.25-28.91v-.1c0-11.13,2.08-20.78,6.25-28.96,4.17-8.17,10.01-14.49,17.53-18.95,7.52-4.46,16.39-6.69,26.61-6.69s19.06,2.17,26.51,6.49c7.45,4.33,13.22,10.43,17.29,18.31,4.07,7.88,6.1,17.09,6.1,27.64v8.89h-86.23v-18.07h72.75l-13.57,16.89v-11.04c0-6.12-.94-11.25-2.83-15.38-1.89-4.13-4.51-7.24-7.86-9.33-3.35-2.08-7.24-3.12-11.67-3.12s-8.35,1.07-11.77,3.22-6.09,5.29-8.01,9.42c-1.92,4.14-2.88,9.2-2.88,15.19v11.13c0,5.73.96,10.64,2.88,14.75,1.92,4.1,4.67,7.24,8.25,9.42,3.58,2.18,7.84,3.27,12.79,3.27,3.91,0,7.29-.62,10.16-1.86,2.86-1.24,5.21-2.8,7.03-4.69,1.82-1.89,3.06-3.81,3.71-5.76l.2-.59h26.17l-.29,1.07c-.78,3.84-2.31,7.71-4.59,11.62-2.28,3.91-5.36,7.49-9.23,10.74-3.87,3.26-8.59,5.86-14.16,7.81s-12.09,2.93-19.58,2.93c-10.68,0-19.86-2.2-27.54-6.59Z"/>
    <path class="cls-2" d="M1781.64,492.97c-8.3-3.29-14.84-8.01-19.63-14.16s-7.44-13.56-7.96-22.22l-.1-1.56h27.83l.2,1.07c.65,3.65,2.29,6.79,4.93,9.42s6.07,4.69,10.3,6.15c4.23,1.46,9.02,2.2,14.36,2.2s10.17-.73,14.11-2.2c3.94-1.46,6.98-3.55,9.13-6.25,2.15-2.7,3.22-5.84,3.22-9.42v-.1c0-4.75-1.87-8.48-5.62-11.18-3.74-2.7-9.98-4.93-18.7-6.69l-14.84-3.03c-13.87-2.73-24.33-7.44-31.4-14.11-7.06-6.67-10.6-15.32-10.6-25.93v-.1c.06-8.59,2.41-16.08,7.03-22.46,4.62-6.38,10.97-11.36,19.04-14.94,8.07-3.58,17.32-5.37,27.73-5.37s20.26,1.71,28.17,5.13,14.08,8.2,18.51,14.36c4.43,6.15,6.87,13.36,7.32,21.63l.1,1.76h-27.83l-.2-1.17c-.46-3.71-1.84-6.87-4.15-9.47-2.31-2.6-5.32-4.62-9.03-6.05-3.71-1.43-8.01-2.15-12.89-2.15s-9.34.72-12.99,2.15c-3.65,1.43-6.43,3.43-8.35,6.01-1.92,2.57-2.88,5.52-2.88,8.84v.1c0,4.49,1.89,8.09,5.66,10.79,3.77,2.7,9.7,4.87,17.77,6.49l14.94,3.03c9.83,1.95,17.9,4.66,24.22,8.11,6.31,3.45,10.99,7.8,14.01,13.04,3.03,5.24,4.54,11.54,4.54,18.9v.1c0,9.05-2.26,16.88-6.79,23.49-4.53,6.61-11.04,11.72-19.53,15.33s-18.67,5.42-30.52,5.42c-11.13,0-20.85-1.65-29.15-4.93Z"/>
    <path class="cls-2" d="M1903.47,490.97c-7.75-4.43-13.72-10.73-17.92-18.9-4.2-8.17-6.3-17.85-6.3-29.05v-.1c0-11.2,2.11-20.85,6.35-28.96,4.23-8.11,10.21-14.36,17.92-18.75s16.78-6.59,27.2-6.59c9.5,0,17.74,1.77,24.71,5.32,6.97,3.55,12.42,8.35,16.36,14.4,3.94,6.05,6.1,12.86,6.49,20.41v.68h-26.56l-.1-.88c-.85-4.95-3-9.11-6.45-12.5-3.45-3.38-8.14-5.08-14.06-5.08-4.62,0-8.64,1.29-12.06,3.86-3.42,2.57-6.05,6.25-7.91,11.04s-2.78,10.5-2.78,17.14v.1c0,6.84.93,12.65,2.78,17.43s4.49,8.43,7.91,10.94c3.42,2.51,7.47,3.76,12.16,3.76,5.73,0,10.33-1.61,13.82-4.83,3.48-3.22,5.68-7.47,6.59-12.74l.2-.88h26.56v.59c-.46,7.62-2.67,14.45-6.64,20.51-3.97,6.05-9.42,10.86-16.36,14.4s-15.06,5.32-24.37,5.32c-10.61,0-19.79-2.21-27.54-6.64Z"/>
    <path class="cls-2" d="M1992.14,390.77h28.52v18.26h.59c1.56-6.45,4.39-11.46,8.5-15.04,4.1-3.58,9.21-5.37,15.33-5.37,1.56,0,3.06.1,4.49.29,1.43.2,2.67.46,3.71.78v25.2c-1.17-.52-2.67-.93-4.49-1.22-1.82-.29-3.78-.44-5.86-.44-4.69,0-8.69.91-12.01,2.73-3.32,1.82-5.86,4.49-7.62,8.01s-2.64,7.81-2.64,12.89v58.59h-28.52v-104.69Z"/>
    <path class="cls-2" d="M2075.2,493.07c-5.31-2.7-9.44-6.45-12.4-11.23-2.96-4.79-4.44-10.24-4.44-16.36v-.2c0-6.38,1.59-11.83,4.79-16.36,3.19-4.52,7.83-8.09,13.92-10.69,6.09-2.6,13.46-4.2,22.12-4.79l40.82-2.54v17.77l-36.52,2.44c-5.47.33-9.64,1.6-12.5,3.81-2.87,2.21-4.3,5.18-4.3,8.89v.2c0,3.84,1.46,6.85,4.39,9.03,2.93,2.18,6.87,3.27,11.82,3.27,4.23,0,8.02-.83,11.38-2.49,3.35-1.66,5.99-3.94,7.91-6.84,1.92-2.9,2.88-6.14,2.88-9.72v-31.84c0-4.62-1.46-8.27-4.39-10.94-2.93-2.67-7.19-4-12.79-4s-9.57,1.09-12.7,3.27c-3.12,2.18-5.05,4.97-5.76,8.35l-.2.88h-26.17l.1-1.17c.59-6.45,2.75-12.17,6.49-17.19,3.74-5.01,8.95-8.94,15.62-11.77,6.67-2.83,14.6-4.25,23.78-4.25s16.89,1.45,23.54,4.35c6.64,2.9,11.8,6.98,15.48,12.26,3.68,5.27,5.52,11.43,5.52,18.46v71.78h-28.52v-15.53h-.59c-2.02,3.52-4.56,6.58-7.62,9.18-3.06,2.6-6.56,4.59-10.5,5.96-3.94,1.37-8.19,2.05-12.74,2.05-6.97,0-13.1-1.35-18.41-4.05Z"/>
    <path class="cls-2" d="M2187.74,490.28c-5.6-4.88-8.4-12.92-8.4-24.12v-53.91h-14.55v-21.48h14.55v-25.59h28.81v25.59h19.14v21.48h-19.14v50.78c0,4.88,1.09,8.29,3.27,10.21,2.18,1.92,5.42,2.88,9.72,2.88,1.3,0,2.44-.05,3.42-.15s1.89-.21,2.73-.34v20.9c-1.56.26-3.5.5-5.81.73-2.31.23-4.97.34-7.96.34-11.59,0-20.18-2.44-25.78-7.32Z"/>
    <path class="cls-2" d="M2261.87,490.97c-7.75-4.43-13.72-10.73-17.92-18.9-4.2-8.17-6.3-17.85-6.3-29.05v-.1c0-11.2,2.11-20.85,6.35-28.96,4.23-8.11,10.21-14.36,17.92-18.75s16.78-6.59,27.2-6.59c9.5,0,17.74,1.77,24.71,5.32,6.97,3.55,12.42,8.35,16.36,14.4,3.94,6.05,6.1,12.86,6.49,20.41v.68h-26.56l-.1-.88c-.85-4.95-3-9.11-6.45-12.5-3.45-3.38-8.14-5.08-14.06-5.08-4.62,0-8.64,1.29-12.06,3.86-3.42,2.57-6.05,6.25-7.91,11.04s-2.78,10.5-2.78,17.14v.1c0,6.84.93,12.65,2.78,17.43s4.49,8.43,7.91,10.94c3.42,2.51,7.47,3.76,12.16,3.76,5.73,0,10.33-1.61,13.82-4.83,3.48-3.22,5.68-7.47,6.59-12.74l.2-.88h26.56v.59c-.46,7.62-2.67,14.45-6.64,20.51-3.97,6.05-9.42,10.86-16.36,14.4s-15.06,5.32-24.37,5.32c-10.61,0-19.79-2.21-27.54-6.64Z"/>
    <path class="cls-2" d="M2351.22,354.54h28.52v54.3h.59c2.73-6.51,6.82-11.51,12.26-14.99,5.44-3.48,12.06-5.22,19.87-5.22s14.16,1.68,19.63,5.03c5.47,3.35,9.68,8.09,12.65,14.21,2.96,6.12,4.44,13.41,4.44,21.88v65.72h-28.61v-59.86c0-7.29-1.73-13-5.18-17.14-3.45-4.13-8.43-6.2-14.94-6.2-4.17,0-7.8.99-10.89,2.98-3.09,1.99-5.5,4.72-7.23,8.2-1.73,3.48-2.59,7.5-2.59,12.06v59.96h-28.52v-140.92Z"/>
    <path class="cls-2" d="M2483.06,378.86h-40.82v-24.32h111.13v24.32h-40.82v116.6h-29.49v-116.6Z"/>
    <path class="cls-2" d="M2564.79,491.11c-7.75-4.33-13.75-10.58-18.02-18.75-4.26-8.17-6.4-17.92-6.4-29.25v-.2c0-11.26,2.16-20.95,6.49-29.05,4.33-8.11,10.37-14.34,18.12-18.7,7.75-4.36,16.83-6.54,27.25-6.54s19.61,2.17,27.39,6.49c7.78,4.33,13.82,10.55,18.12,18.65s6.45,17.82,6.45,29.15v.2c0,11.39-2.13,21.16-6.4,29.3-4.26,8.14-10.27,14.37-18.02,18.7-7.75,4.33-16.89,6.49-27.44,6.49s-19.79-2.16-27.54-6.49ZM2604.44,471.48c3.38-2.51,6.01-6.15,7.86-10.94s2.78-10.6,2.78-17.43v-.2c0-6.7-.94-12.45-2.83-17.24-1.89-4.79-4.54-8.43-7.96-10.94-3.42-2.51-7.44-3.76-12.06-3.76s-8.54,1.27-11.96,3.81-6.07,6.19-7.96,10.94c-1.89,4.75-2.83,10.48-2.83,17.19v.2c0,6.84.93,12.65,2.78,17.43s4.51,8.43,7.96,10.94c3.45,2.51,7.52,3.76,12.21,3.76s8.63-1.25,12.01-3.76Z"/>
    <path class="cls-2" d="M2679.35,491.11c-7.75-4.33-13.75-10.58-18.02-18.75-4.26-8.17-6.4-17.92-6.4-29.25v-.2c0-11.26,2.16-20.95,6.49-29.05,4.33-8.11,10.37-14.34,18.12-18.7,7.75-4.36,16.83-6.54,27.25-6.54s19.61,2.17,27.39,6.49c7.78,4.33,13.82,10.55,18.12,18.65s6.45,17.82,6.45,29.15v.2c0,11.39-2.13,21.16-6.4,29.3-4.26,8.14-10.27,14.37-18.02,18.7-7.75,4.33-16.89,6.49-27.44,6.49s-19.79-2.16-27.54-6.49ZM2718.99,471.48c3.38-2.51,6.01-6.15,7.86-10.94s2.78-10.6,2.78-17.43v-.2c0-6.7-.94-12.45-2.83-17.24-1.89-4.79-4.54-8.43-7.96-10.94-3.42-2.51-7.44-3.76-12.06-3.76s-8.54,1.27-11.96,3.81-6.07,6.19-7.96,10.94c-1.89,4.75-2.83,10.48-2.83,17.19v.2c0,6.84.93,12.65,2.78,17.43s4.51,8.43,7.96,10.94c3.45,2.51,7.52,3.76,12.21,3.76s8.63-1.25,12.01-3.76Z"/>
    <path class="cls-2" d="M2774.07,354.54h28.52v140.92h-28.52v-140.92Z"/>
    <path class="cls-2" d="M2840.23,493.41c-6.8-2.8-12.09-6.69-15.87-11.67-3.78-4.98-6.05-10.76-6.84-17.33l-.1-.88h27.83l.2.88c.91,4.1,2.96,7.29,6.15,9.57,3.19,2.28,7.62,3.42,13.28,3.42,3.65,0,6.74-.44,9.28-1.32s4.51-2.13,5.91-3.76c1.4-1.63,2.1-3.58,2.1-5.86v-.1c0-2.8-1.01-5.04-3.03-6.74-2.02-1.69-5.6-3.09-10.74-4.2l-17.77-3.81c-6.77-1.43-12.44-3.5-16.99-6.2-4.56-2.7-7.98-6.05-10.25-10.06-2.28-4-3.42-8.61-3.42-13.82v-.1c0-6.7,1.81-12.5,5.42-17.38s8.72-8.67,15.33-11.38c6.61-2.7,14.34-4.05,23.19-4.05s17.1,1.48,23.58,4.44c6.48,2.96,11.46,6.95,14.94,11.96,3.48,5.01,5.32,10.58,5.52,16.7v.98h-26.27l-.1-.78c-.46-3.71-2.2-6.82-5.22-9.33-3.03-2.51-7.18-3.76-12.45-3.76-3.26,0-6.09.46-8.5,1.37-2.41.91-4.26,2.18-5.57,3.81-1.3,1.63-1.95,3.58-1.95,5.86v.1c0,1.76.44,3.34,1.32,4.74.88,1.4,2.36,2.62,4.44,3.66,2.08,1.04,4.88,1.95,8.4,2.73l17.77,3.81c11,2.28,18.9,5.7,23.68,10.25,4.79,4.56,7.18,10.68,7.18,18.36v.1c0,6.84-1.95,12.79-5.86,17.87s-9.29,9.03-16.16,11.87c-6.87,2.83-14.79,4.25-23.78,4.25-9.64,0-17.86-1.4-24.66-4.2Z"/>
    <path class="cls-2" d="M3006.88,354.54h26.07v27.34h-8.98l-35.25,113.57h-30.96l49.12-140.92ZM2991.46,439.21h65.72l7.23,22.07h-80.18l7.23-22.07ZM3024.56,381.88v-27.34h17.09l49.12,140.92h-31.05l-35.16-113.57Z"/>
    <path class="cls-2" d="M3086.47,390.77h28.81l15.82,77.64h.59l18.55-77.64h27.34l18.65,77.64h.59l15.92-77.64h28.12l-27.73,104.69h-30.37l-18.95-74.02h-.59l-18.85,74.02h-29.98l-27.93-104.69Z"/>
    <path class="cls-2" d="M3261.33,493.07c-5.31-2.7-9.44-6.45-12.4-11.23-2.96-4.79-4.44-10.24-4.44-16.36v-.2c0-6.38,1.59-11.83,4.79-16.36,3.19-4.52,7.83-8.09,13.92-10.69,6.09-2.6,13.46-4.2,22.12-4.79l40.82-2.54v17.77l-36.52,2.44c-5.47.33-9.64,1.6-12.5,3.81-2.87,2.21-4.3,5.18-4.3,8.89v.2c0,3.84,1.46,6.85,4.39,9.03,2.93,2.18,6.87,3.27,11.82,3.27,4.23,0,8.02-.83,11.38-2.49,3.35-1.66,5.99-3.94,7.91-6.84,1.92-2.9,2.88-6.14,2.88-9.72v-31.84c0-4.62-1.46-8.27-4.39-10.94-2.93-2.67-7.19-4-12.79-4s-9.57,1.09-12.7,3.27c-3.12,2.18-5.05,4.97-5.76,8.35l-.2.88h-26.17l.1-1.17c.59-6.45,2.75-12.17,6.49-17.19,3.74-5.01,8.95-8.94,15.62-11.77,6.67-2.83,14.6-4.25,23.78-4.25s16.89,1.45,23.54,4.35c6.64,2.9,11.8,6.98,15.48,12.26,3.68,5.27,5.52,11.43,5.52,18.46v71.78h-28.52v-15.53h-.59c-2.02,3.52-4.56,6.58-7.62,9.18-3.06,2.6-6.56,4.59-10.5,5.96-3.94,1.37-8.19,2.05-12.74,2.05-6.97,0-13.1-1.35-18.41-4.05Z"/>
    <path class="cls-2" d="M3358.06,390.77h28.52v18.26h.59c1.56-6.45,4.39-11.46,8.5-15.04,4.1-3.58,9.21-5.37,15.33-5.37,1.56,0,3.06.1,4.49.29,1.43.2,2.67.46,3.71.78v25.2c-1.17-.52-2.67-.93-4.49-1.22-1.82-.29-3.78-.44-5.86-.44-4.69,0-8.69.91-12.01,2.73-3.32,1.82-5.86,4.49-7.62,8.01s-2.64,7.81-2.64,12.89v58.59h-28.52v-104.69Z"/>
    <path class="cls-2" d="M3443.41,491.06c-6.38-4.36-11.3-10.61-14.75-18.75-3.45-8.14-5.18-17.87-5.18-29.2v-.1c0-11.39,1.72-21.14,5.18-29.25,3.45-8.11,8.37-14.32,14.75-18.65,6.38-4.33,13.93-6.49,22.66-6.49,5.01,0,9.6.81,13.77,2.44,4.17,1.63,7.83,3.96,10.99,6.98,3.16,3.03,5.68,6.66,7.57,10.89h.59v-54.39h28.52v140.92h-28.52v-17.87h-.59c-1.89,4.17-4.39,7.75-7.52,10.74-3.12,3-6.77,5.29-10.94,6.88-4.17,1.59-8.76,2.39-13.77,2.39-8.79,0-16.37-2.18-22.75-6.54ZM3487.94,470.21c3.52-2.51,6.23-6.07,8.15-10.69,1.92-4.62,2.88-10.09,2.88-16.41v-.1c0-6.25-.98-11.69-2.93-16.31-1.95-4.62-4.67-8.19-8.15-10.69-3.48-2.51-7.54-3.76-12.16-3.76s-8.85,1.24-12.3,3.71c-3.45,2.48-6.12,6.01-8.01,10.6-1.89,4.59-2.83,10.08-2.83,16.46v.1c0,6.32.93,11.78,2.78,16.41,1.86,4.62,4.52,8.19,8.01,10.69,3.48,2.51,7.6,3.76,12.35,3.76s8.69-1.25,12.21-3.76Z"/>
    <path class="cls-2" d="M3564.94,493.41c-6.8-2.8-12.09-6.69-15.87-11.67-3.78-4.98-6.05-10.76-6.84-17.33l-.1-.88h27.83l.2.88c.91,4.1,2.96,7.29,6.15,9.57,3.19,2.28,7.62,3.42,13.28,3.42,3.65,0,6.74-.44,9.28-1.32s4.51-2.13,5.91-3.76c1.4-1.63,2.1-3.58,2.1-5.86v-.1c0-2.8-1.01-5.04-3.03-6.74-2.02-1.69-5.6-3.09-10.74-4.2l-17.77-3.81c-6.77-1.43-12.44-3.5-16.99-6.2-4.56-2.7-7.98-6.05-10.25-10.06-2.28-4-3.42-8.61-3.42-13.82v-.1c0-6.7,1.81-12.5,5.42-17.38s8.72-8.67,15.33-11.38c6.61-2.7,14.34-4.05,23.19-4.05s17.11,1.48,23.58,4.44c6.48,2.96,11.46,6.95,14.94,11.96,3.48,5.01,5.32,10.58,5.52,16.7v.98h-26.27l-.1-.78c-.46-3.71-2.2-6.82-5.22-9.33-3.03-2.51-7.18-3.76-12.45-3.76-3.26,0-6.09.46-8.5,1.37-2.41.91-4.26,2.18-5.57,3.81-1.3,1.63-1.95,3.58-1.95,5.86v.1c0,1.76.44,3.34,1.32,4.74.88,1.4,2.36,2.62,4.44,3.66,2.08,1.04,4.88,1.95,8.4,2.73l17.77,3.81c11,2.28,18.9,5.7,23.68,10.25,4.79,4.56,7.18,10.68,7.18,18.36v.1c0,6.84-1.95,12.79-5.86,17.87s-9.29,9.03-16.16,11.87c-6.87,2.83-14.79,4.25-23.78,4.25-9.64,0-17.86-1.4-24.66-4.2Z"/>
    <path class="cls-2" d="M1002.39,644.24c-4.04-1.63-7.22-3.96-9.55-6.98-2.33-3.03-3.64-6.64-3.93-10.84l-.05-.73h12.01l.1.59c.36,2.02,1.24,3.76,2.64,5.22,1.4,1.46,3.25,2.6,5.54,3.39,2.29.8,4.91,1.2,7.84,1.2s5.53-.41,7.69-1.22c2.16-.81,3.83-1.98,5-3.49s1.76-3.28,1.76-5.3v-.05c0-2.64-.98-4.72-2.95-6.25-1.97-1.53-5.23-2.78-9.79-3.76l-7.57-1.56c-6.9-1.43-12.08-3.78-15.53-7.06-3.45-3.27-5.18-7.53-5.18-12.77v-.05c.03-4.17,1.16-7.8,3.39-10.91,2.23-3.11,5.31-5.53,9.25-7.28,3.94-1.74,8.43-2.61,13.48-2.61s9.59.85,13.43,2.54c3.84,1.69,6.86,4.05,9.06,7.08s3.41,6.54,3.64,10.55l.05.83h-12.01l-.1-.63c-.29-2.05-1.06-3.8-2.29-5.25-1.24-1.45-2.86-2.56-4.88-3.34-2.02-.78-4.35-1.17-6.98-1.17s-5.1.4-7.1,1.2c-2,.8-3.55,1.91-4.64,3.34-1.09,1.43-1.64,3.09-1.64,4.98v.05c0,2.47,1,4.48,3,6.03,2,1.55,5.12,2.76,9.35,3.64l7.57,1.56c4.92,1.01,8.92,2.38,12.01,4.1,3.09,1.73,5.38,3.89,6.86,6.49,1.48,2.6,2.22,5.73,2.22,9.38v.05c0,4.36-1.1,8.15-3.3,11.38s-5.35,5.71-9.47,7.47c-4.12,1.76-9.04,2.64-14.77,2.64-5.4,0-10.12-.81-14.16-2.44Z"/>
    <path class="cls-2" d="M1060.23,644.17c-2.65-1.55-4.68-3.77-6.08-6.67-1.4-2.9-2.1-6.33-2.1-10.3v-33.5h12.11v31.05c0,3.68.86,6.52,2.59,8.52,1.73,2,4.33,3,7.81,3,1.73,0,3.3-.3,4.71-.9,1.42-.6,2.63-1.46,3.64-2.56,1.01-1.11,1.77-2.43,2.29-3.98.52-1.55.78-3.26.78-5.15v-29.98h12.16v51.76h-12.16v-8.11h-.24c-.91,1.82-2.1,3.43-3.56,4.81-1.46,1.38-3.22,2.45-5.27,3.2s-4.38,1.12-6.98,1.12c-3.81,0-7.04-.77-9.69-2.32Z"/>
    <path class="cls-2" d="M1130.15,645.29c-2.07-.8-3.88-1.92-5.44-3.37-1.56-1.45-2.85-3.2-3.86-5.25h-.24v8.79h-12.16v-70.46h12.16v27.59h.24c1.01-2.08,2.31-3.87,3.91-5.35,1.59-1.48,3.43-2.62,5.52-3.42,2.08-.8,4.35-1.2,6.79-1.2,4.33,0,8.09,1.08,11.28,3.25,3.19,2.17,5.66,5.26,7.42,9.28,1.76,4.02,2.64,8.81,2.64,14.38v.05c0,5.53-.87,10.32-2.61,14.36-1.74,4.04-4.22,7.14-7.42,9.3-3.21,2.17-7.01,3.25-11.4,3.25-2.47,0-4.74-.4-6.81-1.2ZM1140.11,634.25c1.9-1.35,3.36-3.28,4.37-5.79,1.01-2.51,1.51-5.47,1.51-8.89v-.05c0-3.45-.51-6.41-1.54-8.89-1.03-2.47-2.48-4.39-4.37-5.74-1.89-1.35-4.13-2.03-6.74-2.03s-4.71.68-6.62,2.05-3.41,3.3-4.52,5.79c-1.11,2.49-1.66,5.43-1.66,8.81v.05c0,3.39.54,6.33,1.64,8.84,1.09,2.51,2.6,4.44,4.52,5.81,1.92,1.37,4.13,2.05,6.64,2.05s4.86-.67,6.76-2.03Z"/>
    <path class="cls-2" d="M1166.21,593.7h12.11v8.3h.29c1.07-2.83,2.88-5.1,5.42-6.81s5.52-2.56,8.94-2.56c2.41,0,4.57.42,6.49,1.25,1.92.83,3.56,2.02,4.91,3.56,1.35,1.55,2.34,3.43,2.95,5.64h.24c.85-2.15,2.06-4,3.64-5.54,1.58-1.55,3.43-2.75,5.57-3.61,2.13-.86,4.44-1.29,6.91-1.29,3.42,0,6.39.72,8.91,2.17,2.52,1.45,4.49,3.47,5.91,6.05s2.12,5.62,2.12,9.11v35.5h-12.16v-32.52c0-2.15-.36-3.97-1.07-5.47-.72-1.5-1.76-2.64-3.12-3.42s-3.06-1.17-5.08-1.17-3.67.45-5.15,1.34c-1.48.9-2.64,2.14-3.47,3.74-.83,1.6-1.25,3.43-1.25,5.52v31.98h-11.82v-33.15c0-1.95-.37-3.63-1.12-5.03-.75-1.4-1.81-2.48-3.17-3.25-1.37-.76-3-1.15-4.88-1.15s-3.68.47-5.18,1.42c-1.5.94-2.68,2.23-3.54,3.86-.86,1.63-1.29,3.5-1.29,5.62v31.69h-12.11v-51.76Z"/>
    <path class="cls-2" d="M1251.95,584.33c-1.3-1.3-1.95-2.86-1.95-4.69s.65-3.43,1.95-4.71c1.3-1.29,2.9-1.93,4.79-1.93s3.53.64,4.83,1.93c1.3,1.29,1.95,2.86,1.95,4.71s-.65,3.39-1.95,4.69c-1.3,1.3-2.91,1.95-4.83,1.95s-3.48-.65-4.79-1.95ZM1250.68,593.7h12.16v51.76h-12.16v-51.76Z"/>
    <path class="cls-2" d="M1280.35,642.97c-2.62-2.34-3.93-6.18-3.93-11.52v-28.37h-7.32v-9.38h7.32v-13.13h12.35v13.13h9.62v9.38h-9.62v27.39c0,2.51.56,4.24,1.68,5.2,1.12.96,2.77,1.44,4.96,1.44.62,0,1.16-.02,1.64-.07.47-.05.92-.09,1.34-.12v9.13c-.72.1-1.59.2-2.61.29s-2.17.15-3.44.15c-5.37,0-9.37-1.17-11.99-3.52Z"/>
    <path class="cls-2" d="M1332.98,644.36c-2.62-1.32-4.66-3.16-6.1-5.52-1.45-2.36-2.17-5.07-2.17-8.13v-.1c0-3.09.77-5.74,2.32-7.93,1.55-2.2,3.78-3.94,6.71-5.22,2.93-1.29,6.48-2.06,10.64-2.32l19.78-1.22v8.06l-18.07,1.12c-3,.2-5.29.91-6.88,2.15-1.6,1.24-2.39,2.88-2.39,4.93v.05c0,2.12.81,3.78,2.42,5s3.75,1.83,6.42,1.83c2.34,0,4.44-.47,6.27-1.42,1.84-.94,3.3-2.23,4.37-3.86,1.07-1.63,1.61-3.47,1.61-5.52v-15.53c0-2.6-.82-4.66-2.47-6.18-1.64-1.51-4.01-2.27-7.1-2.27-2.86,0-5.16.61-6.88,1.83-1.73,1.22-2.8,2.79-3.22,4.71l-.1.44h-11.23l.05-.59c.26-3.06,1.29-5.8,3.08-8.23,1.79-2.42,4.27-4.34,7.45-5.74,3.17-1.4,6.94-2.1,11.3-2.1s8.08.72,11.25,2.15c3.17,1.43,5.63,3.43,7.37,6.01,1.74,2.57,2.61,5.6,2.61,9.08v35.6h-12.11v-7.96h-.29c-.98,1.79-2.25,3.35-3.81,4.69-1.56,1.33-3.34,2.36-5.35,3.08s-4.14,1.07-6.42,1.07c-3.42,0-6.44-.66-9.06-1.98Z"/>
    <path class="cls-2" d="M1379.83,593.7h12.11v8.11h.29c1.33-2.8,3.33-5.03,5.98-6.69,2.65-1.66,5.93-2.49,9.84-2.49,5.7,0,10.1,1.73,13.21,5.18,3.11,3.45,4.66,8.17,4.66,14.16v33.5h-12.16v-31.05c0-3.68-.86-6.52-2.59-8.52-1.73-2-4.31-3-7.76-3-2.31,0-4.33.53-6.05,1.59-1.73,1.06-3.06,2.52-4,4.39-.94,1.87-1.42,4.06-1.42,6.57v30.03h-12.11v-51.76Z"/>
    <path class="cls-2" d="M1438.99,662.48c-1.12-.11-2.06-.24-2.81-.37v-9.23c.46.06,1.03.15,1.71.24s1.46.15,2.34.15c2.34,0,4.2-.4,5.57-1.2,1.37-.8,2.44-2.29,3.22-4.47l.73-2.1-18.6-51.81h13.23l12.89,43.95-1.86-2.54h2.59l-1.86,2.54,12.89-43.95h12.79l-18.65,53.52c-1.3,3.78-2.88,6.79-4.74,9.06-1.86,2.26-4.09,3.89-6.71,4.88-2.62.99-5.72,1.49-9.3,1.49-1.17,0-2.32-.06-3.44-.17Z"/>
    <path class="cls-2" d="M1507.52,593.7h12.11v8.94h.29c1.01-2.08,2.29-3.87,3.83-5.35,1.55-1.48,3.35-2.63,5.42-3.44,2.07-.81,4.32-1.22,6.76-1.22,4.39,0,8.19,1.08,11.4,3.25,3.21,2.17,5.68,5.27,7.42,9.3,1.74,4.04,2.61,8.84,2.61,14.4v.05c0,5.53-.87,10.31-2.61,14.33-1.74,4.02-4.2,7.11-7.37,9.28-3.17,2.17-6.93,3.25-11.25,3.25-2.44,0-4.71-.39-6.81-1.17s-3.95-1.9-5.54-3.37c-1.6-1.46-2.88-3.21-3.86-5.22h-.29v25.83h-12.11v-68.85ZM1539.11,634.23c1.89-1.37,3.34-3.3,4.37-5.79s1.54-5.43,1.54-8.81v-.05c0-3.48-.51-6.47-1.54-8.96s-2.49-4.4-4.39-5.74c-1.9-1.33-4.14-2-6.71-2s-4.72.68-6.64,2.05c-1.92,1.37-3.43,3.3-4.52,5.79-1.09,2.49-1.64,5.44-1.64,8.86v.05c0,3.39.54,6.32,1.64,8.81,1.09,2.49,2.6,4.42,4.52,5.79,1.92,1.37,4.13,2.05,6.64,2.05s4.85-.68,6.74-2.05Z"/>
    <path class="cls-2" d="M1565.23,593.7h12.11v8.94h.29c.78-3.12,2.21-5.57,4.27-7.35,2.07-1.77,4.6-2.66,7.59-2.66.75,0,1.46.05,2.15.15s1.25.21,1.71.34v10.99c-.49-.2-1.18-.36-2.08-.49-.9-.13-1.86-.2-2.91-.2-2.28,0-4.25.46-5.91,1.39s-2.93,2.29-3.81,4.08c-.88,1.79-1.32,3.97-1.32,6.54v30.03h-12.11v-51.76Z"/>
    <path class="cls-2" d="M1607.23,643.24c-3.74-2.16-6.65-5.26-8.72-9.28-2.07-4.02-3.1-8.81-3.1-14.38v-.1c0-5.53,1.04-10.31,3.12-14.33,2.08-4.02,5-7.11,8.74-9.28,3.74-2.16,8.12-3.25,13.13-3.25s9.45,1.08,13.21,3.25c3.76,2.17,6.68,5.25,8.76,9.25,2.08,4,3.12,8.79,3.12,14.36v.1c0,5.6-1.03,10.41-3.1,14.43-2.07,4.02-4.97,7.1-8.72,9.25-3.74,2.15-8.15,3.22-13.23,3.22s-9.49-1.08-13.23-3.25ZM1627.2,634.67c1.89-1.33,3.34-3.28,4.37-5.83,1.03-2.55,1.54-5.64,1.54-9.25v-.1c0-3.58-.52-6.64-1.56-9.18-1.04-2.54-2.51-4.48-4.42-5.81-1.9-1.33-4.14-2-6.71-2s-4.71.67-6.62,2c-1.9,1.33-3.39,3.27-4.44,5.81-1.06,2.54-1.59,5.6-1.59,9.18v.1c0,3.61.53,6.7,1.59,9.25,1.06,2.56,2.54,4.5,4.44,5.83,1.9,1.33,4.14,2,6.71,2s4.8-.67,6.69-2Z"/>
    <path class="cls-2" d="M1646.44,662.65c-.59-.03-1.06-.07-1.42-.1v-9.52c.23,0,.48,0,.76.02.28.02.56.02.85.02,2.51,0,4.29-.46,5.35-1.39,1.06-.93,1.59-2.58,1.59-4.96v-53.03h12.11v53.22c0,5.27-1.46,9.22-4.39,11.84-2.93,2.62-7.34,3.93-13.23,3.93-.49,0-1.03-.02-1.61-.05ZM1654.81,584.33c-1.32-1.3-1.98-2.86-1.98-4.69s.66-3.43,1.98-4.71c1.32-1.29,2.92-1.93,4.81-1.93s3.53.64,4.83,1.93c1.3,1.29,1.95,2.86,1.95,4.71s-.65,3.39-1.95,4.69c-1.3,1.3-2.91,1.95-4.83,1.95s-3.49-.65-4.81-1.95Z"/>
    <path class="cls-2" d="M1685.42,643.21c-3.73-2.18-6.58-5.27-8.57-9.28-1.99-4-2.98-8.74-2.98-14.21v-.05c0-5.44,1-10.18,3-14.23s4.82-7.2,8.45-9.45c3.63-2.25,7.92-3.37,12.87-3.37s9.17,1.08,12.77,3.25c3.6,2.17,6.36,5.2,8.3,9.11,1.94,3.91,2.91,8.46,2.91,13.67v3.91h-42.29v-8.11h36.47l-5.86,7.57v-4.69c0-3.38-.52-6.2-1.56-8.45-1.04-2.25-2.47-3.93-4.3-5.05-1.82-1.12-3.92-1.68-6.3-1.68s-4.55.58-6.42,1.73c-1.87,1.16-3.34,2.87-4.39,5.15-1.06,2.28-1.59,5.05-1.59,8.3v4.69c0,3.16.53,5.85,1.59,8.08,1.06,2.23,2.56,3.94,4.52,5.13,1.95,1.19,4.28,1.78,6.98,1.78,2.02,0,3.79-.32,5.32-.95,1.53-.63,2.79-1.46,3.78-2.47.99-1.01,1.68-2.1,2.08-3.27l.1-.34h11.33l-.1.54c-.42,1.99-1.2,3.93-2.34,5.83-1.14,1.9-2.67,3.62-4.59,5.15-1.92,1.53-4.2,2.74-6.84,3.64s-5.63,1.34-8.98,1.34c-5.18,0-9.63-1.09-13.35-3.27Z"/>
    <path class="cls-2" d="M1739.5,643.21c-3.74-2.18-6.63-5.29-8.67-9.33-2.03-4.04-3.05-8.82-3.05-14.36v-.05c0-5.5,1.03-10.26,3.08-14.28,2.05-4.02,4.94-7.12,8.67-9.3,3.73-2.18,8.1-3.27,13.11-3.27,4.56,0,8.5.87,11.82,2.61,3.32,1.74,5.92,4.04,7.81,6.91,1.89,2.87,2.96,6.02,3.22,9.47v.34h-11.43l-.1-.39c-.49-2.51-1.67-4.65-3.54-6.42-1.87-1.77-4.42-2.66-7.64-2.66-2.54,0-4.76.69-6.67,2.08-1.9,1.38-3.38,3.34-4.42,5.88-1.04,2.54-1.56,5.58-1.56,9.13v.05c0,3.58.53,6.64,1.59,9.18,1.06,2.54,2.54,4.48,4.44,5.83,1.9,1.35,4.13,2.03,6.67,2.03,3.09,0,5.59-.84,7.5-2.51,1.9-1.68,3.13-3.87,3.69-6.57l.1-.44h11.47l-.05.34c-.33,3.58-1.46,6.8-3.42,9.67-1.95,2.87-4.57,5.14-7.86,6.81-3.29,1.68-7.11,2.51-11.47,2.51-5.11,0-9.54-1.09-13.28-3.27Z"/>
    <path class="cls-2" d="M1790.01,642.97c-2.62-2.34-3.93-6.18-3.93-11.52v-28.37h-7.32v-9.38h7.32v-13.13h12.35v13.13h9.62v9.38h-9.62v27.39c0,2.51.56,4.24,1.68,5.2,1.12.96,2.77,1.44,4.96,1.44.62,0,1.16-.02,1.64-.07.47-.05.92-.09,1.34-.12v9.13c-.72.1-1.59.2-2.61.29s-2.17.15-3.44.15c-5.37,0-9.37-1.17-11.99-3.52Z"/>
    <path class="cls-2" d="M1846.09,643.24c-3.74-2.16-6.65-5.26-8.72-9.28-2.07-4.02-3.1-8.81-3.1-14.38v-.1c0-5.53,1.04-10.31,3.12-14.33,2.08-4.02,5-7.11,8.74-9.28,3.74-2.16,8.12-3.25,13.13-3.25s9.45,1.08,13.21,3.25c3.76,2.17,6.68,5.25,8.76,9.25,2.08,4,3.12,8.79,3.12,14.36v.1c0,5.6-1.03,10.41-3.1,14.43-2.07,4.02-4.97,7.1-8.72,9.25-3.74,2.15-8.15,3.22-13.23,3.22s-9.49-1.08-13.23-3.25ZM1866.06,634.67c1.89-1.33,3.34-3.28,4.37-5.83,1.03-2.55,1.54-5.64,1.54-9.25v-.1c0-3.58-.52-6.64-1.56-9.18-1.04-2.54-2.51-4.48-4.42-5.81-1.9-1.33-4.14-2-6.71-2s-4.71.67-6.62,2c-1.9,1.33-3.39,3.27-4.44,5.81-1.06,2.54-1.59,5.6-1.59,9.18v.1c0,3.61.53,6.7,1.59,9.25,1.06,2.56,2.54,4.5,4.44,5.83,1.9,1.33,4.14,2,6.71,2s4.8-.67,6.69-2Z"/>
    <path class="cls-2" d="M1895.51,603.08h-7.08v-9.38h7.08v-4.93c0-3.38.56-6.17,1.68-8.35,1.12-2.18,2.86-3.8,5.2-4.86,2.34-1.06,5.39-1.59,9.13-1.59,1.2,0,2.4.05,3.59.15,1.19.1,2.16.21,2.91.34v8.5c-.52-.06-1.1-.12-1.73-.17s-1.28-.07-1.93-.07c-2.38,0-4.13.54-5.25,1.61s-1.68,2.67-1.68,4.79v4.59h10.4v9.38h-10.16v42.38h-12.16v-42.38Z"/>
    <path class="cls-2" d="M1949.34,662.48c-1.12-.11-2.06-.24-2.81-.37v-9.23c.46.06,1.03.15,1.71.24s1.46.15,2.34.15c2.34,0,4.2-.4,5.57-1.2,1.37-.8,2.44-2.29,3.22-4.47l.73-2.1-18.6-51.81h13.23l12.89,43.95-1.86-2.54h2.59l-1.86,2.54,12.89-43.95h12.79l-18.65,53.52c-1.3,3.78-2.88,6.79-4.74,9.06-1.86,2.26-4.09,3.89-6.71,4.88-2.62.99-5.72,1.49-9.3,1.49-1.17,0-2.32-.06-3.44-.17Z"/>
    <path class="cls-2" d="M2005.62,643.24c-3.74-2.16-6.65-5.26-8.72-9.28-2.07-4.02-3.1-8.81-3.1-14.38v-.1c0-5.53,1.04-10.31,3.12-14.33,2.08-4.02,5-7.11,8.74-9.28,3.74-2.16,8.12-3.25,13.13-3.25s9.45,1.08,13.21,3.25c3.76,2.17,6.68,5.25,8.76,9.25,2.08,4,3.12,8.79,3.12,14.36v.1c0,5.6-1.03,10.41-3.1,14.43-2.07,4.02-4.97,7.1-8.72,9.25-3.74,2.15-8.15,3.22-13.23,3.22s-9.49-1.08-13.23-3.25ZM2025.59,634.67c1.89-1.33,3.34-3.28,4.37-5.83,1.03-2.55,1.54-5.64,1.54-9.25v-.1c0-3.58-.52-6.64-1.56-9.18-1.04-2.54-2.51-4.48-4.42-5.81-1.9-1.33-4.14-2-6.71-2s-4.71.67-6.62,2c-1.9,1.33-3.39,3.27-4.44,5.81-1.06,2.54-1.59,5.6-1.59,9.18v.1c0,3.61.53,6.7,1.59,9.25,1.06,2.56,2.54,4.5,4.44,5.83,1.9,1.33,4.14,2,6.71,2s4.8-.67,6.69-2Z"/>
    <path class="cls-2" d="M2059.59,644.17c-2.65-1.55-4.68-3.77-6.08-6.67-1.4-2.9-2.1-6.33-2.1-10.3v-33.5h12.11v31.05c0,3.68.86,6.52,2.59,8.52,1.73,2,4.33,3,7.81,3,1.73,0,3.3-.3,4.71-.9,1.42-.6,2.63-1.46,3.64-2.56,1.01-1.11,1.77-2.43,2.29-3.98.52-1.55.78-3.26.78-5.15v-29.98h12.16v51.76h-12.16v-8.11h-.24c-.91,1.82-2.1,3.43-3.56,4.81-1.46,1.38-3.22,2.45-5.27,3.2s-4.38,1.12-6.98,1.12c-3.81,0-7.04-.77-9.69-2.32Z"/>
    <path class="cls-2" d="M2107.47,593.7h12.11v8.94h.29c.78-3.12,2.21-5.57,4.27-7.35,2.07-1.77,4.6-2.66,7.59-2.66.75,0,1.46.05,2.15.15s1.25.21,1.71.34v10.99c-.49-.2-1.18-.36-2.08-.49-.9-.13-1.86-.2-2.91-.2-2.28,0-4.25.46-5.91,1.39s-2.93,2.29-3.81,4.08c-.88,1.79-1.32,3.97-1.32,6.54v30.03h-12.11v-51.76Z"/>
    <path class="cls-2" d="M2145.61,575h11.82l-7.18,25.88h-8.45l3.81-25.88Z"/>
    <path class="cls-2" d="M2167.9,644.48c-3.21-1.33-5.71-3.21-7.52-5.64-1.81-2.42-2.91-5.23-3.3-8.42l-.05-.44h11.96l.1.44c.46,2.25,1.54,3.99,3.25,5.22,1.71,1.24,4.11,1.86,7.2,1.86,1.99,0,3.68-.24,5.08-.73,1.4-.49,2.48-1.2,3.25-2.15.76-.94,1.15-2.05,1.15-3.32v-.05c0-1.53-.52-2.77-1.56-3.74-1.04-.96-2.91-1.75-5.62-2.37l-8.59-1.9c-3.29-.75-6.04-1.77-8.25-3.08-2.21-1.3-3.87-2.92-4.98-4.86-1.11-1.94-1.66-4.19-1.66-6.76v-.05c0-3.16.86-5.92,2.59-8.3,1.73-2.38,4.15-4.23,7.28-5.57,3.12-1.33,6.75-2,10.89-2s7.98.72,11.04,2.15c3.06,1.43,5.43,3.35,7.1,5.76,1.68,2.41,2.58,5.11,2.71,8.11l.05.54h-11.33l-.05-.39c-.26-2.08-1.2-3.8-2.83-5.15-1.63-1.35-3.86-2.03-6.69-2.03-1.79,0-3.34.26-4.66.78-1.32.52-2.33,1.25-3.03,2.2-.7.94-1.05,2.05-1.05,3.32v.05c0,.98.24,1.86.73,2.64s1.27,1.46,2.34,2.03c1.07.57,2.51,1.07,4.3,1.49l8.59,1.9c5.37,1.21,9.2,2.92,11.47,5.15,2.28,2.23,3.42,5.22,3.42,8.96v.05c0,3.26-.93,6.11-2.78,8.57-1.86,2.46-4.42,4.36-7.69,5.71s-7.02,2.03-11.25,2.03c-4.52,0-8.39-.67-11.6-2Z"/>
    <path class="cls-2" d="M2232.37,603.08h-7.08v-9.38h7.08v-4.93c0-3.38.56-6.17,1.68-8.35,1.12-2.18,2.86-3.8,5.2-4.86,2.34-1.06,5.39-1.59,9.13-1.59,1.2,0,2.4.05,3.59.15,1.19.1,2.16.21,2.91.34v8.5c-.52-.06-1.1-.12-1.73-.17s-1.28-.07-1.93-.07c-2.38,0-4.13.54-5.25,1.61s-1.68,2.67-1.68,4.79v4.59h10.4v9.38h-10.16v42.38h-12.16v-42.38Z"/>
    <path class="cls-2" d="M2262.65,593.7h12.11v8.94h.29c.78-3.12,2.21-5.57,4.27-7.35,2.07-1.77,4.6-2.66,7.59-2.66.75,0,1.46.05,2.15.15s1.25.21,1.71.34v10.99c-.49-.2-1.18-.36-2.08-.49-.9-.13-1.86-.2-2.91-.2-2.28,0-4.25.46-5.91,1.39s-2.93,2.29-3.81,4.08c-.88,1.79-1.32,3.97-1.32,6.54v30.03h-12.11v-51.76Z"/>
    <path class="cls-2" d="M2304.64,643.24c-3.74-2.16-6.65-5.26-8.72-9.28-2.07-4.02-3.1-8.81-3.1-14.38v-.1c0-5.53,1.04-10.31,3.12-14.33,2.08-4.02,5-7.11,8.74-9.28,3.74-2.16,8.12-3.25,13.13-3.25s9.45,1.08,13.21,3.25c3.76,2.17,6.68,5.25,8.76,9.25,2.08,4,3.12,8.79,3.12,14.36v.1c0,5.6-1.03,10.41-3.1,14.43-2.07,4.02-4.97,7.1-8.72,9.25-3.74,2.15-8.15,3.22-13.23,3.22s-9.49-1.08-13.23-3.25ZM2324.61,634.67c1.89-1.33,3.34-3.28,4.37-5.83,1.03-2.55,1.54-5.64,1.54-9.25v-.1c0-3.58-.52-6.64-1.56-9.18-1.04-2.54-2.51-4.48-4.42-5.81-1.9-1.33-4.14-2-6.71-2s-4.71.67-6.62,2c-1.9,1.33-3.39,3.27-4.44,5.81-1.06,2.54-1.59,5.6-1.59,9.18v.1c0,3.61.53,6.7,1.59,9.25,1.06,2.56,2.54,4.5,4.44,5.83,1.9,1.33,4.14,2,6.71,2s4.8-.67,6.69-2Z"/>
    <path class="cls-2" d="M2350.68,593.7h12.11v8.3h.29c1.07-2.83,2.88-5.1,5.42-6.81s5.52-2.56,8.94-2.56c2.41,0,4.57.42,6.49,1.25,1.92.83,3.56,2.02,4.91,3.56,1.35,1.55,2.34,3.43,2.95,5.64h.24c.85-2.15,2.06-4,3.64-5.54,1.58-1.55,3.43-2.75,5.57-3.61,2.13-.86,4.44-1.29,6.91-1.29,3.42,0,6.39.72,8.91,2.17,2.52,1.45,4.49,3.47,5.91,6.05s2.12,5.62,2.12,9.11v35.5h-12.16v-32.52c0-2.15-.36-3.97-1.07-5.47-.72-1.5-1.76-2.64-3.12-3.42s-3.06-1.17-5.08-1.17-3.67.45-5.15,1.34c-1.48.9-2.64,2.14-3.47,3.74-.83,1.6-1.25,3.43-1.25,5.52v31.98h-11.82v-33.15c0-1.95-.37-3.63-1.12-5.03-.75-1.4-1.81-2.48-3.17-3.25-1.37-.76-3-1.15-4.88-1.15s-3.68.47-5.18,1.42c-1.5.94-2.68,2.23-3.54,3.86-.86,1.63-1.29,3.5-1.29,5.62v31.69h-12.11v-51.76Z"/>
    <path class="cls-2" d="M2462.08,642.97c-2.62-2.34-3.93-6.18-3.93-11.52v-28.37h-7.32v-9.38h7.32v-13.13h12.35v13.13h9.62v9.38h-9.62v27.39c0,2.51.56,4.24,1.68,5.2,1.12.96,2.77,1.44,4.96,1.44.62,0,1.16-.02,1.64-.07.47-.05.92-.09,1.34-.12v9.13c-.72.1-1.59.2-2.61.29s-2.17.15-3.44.15c-5.37,0-9.37-1.17-11.99-3.52Z"/>
    <path class="cls-2" d="M2488.77,575h12.16v27.39h.24c1.37-3.12,3.41-5.53,6.13-7.23,2.72-1.69,6-2.54,9.84-2.54s6.98.85,9.72,2.56,4.85,4.1,6.35,7.18c1.5,3.08,2.25,6.7,2.25,10.86v32.23h-12.16v-29.83c0-3.97-.96-7.09-2.88-9.35-1.92-2.26-4.62-3.39-8.11-3.39-2.28,0-4.27.55-5.98,1.64-1.71,1.09-3.04,2.59-3.98,4.49-.94,1.9-1.42,4.11-1.42,6.62v29.83h-12.16v-70.46Z"/>
    <path class="cls-2" d="M2554.61,643.21c-3.73-2.18-6.58-5.27-8.57-9.28-1.99-4-2.98-8.74-2.98-14.21v-.05c0-5.44,1-10.18,3-14.23s4.82-7.2,8.45-9.45c3.63-2.25,7.92-3.37,12.87-3.37s9.17,1.08,12.77,3.25c3.6,2.17,6.36,5.2,8.3,9.11,1.94,3.91,2.91,8.46,2.91,13.67v3.91h-42.29v-8.11h36.47l-5.86,7.57v-4.69c0-3.38-.52-6.2-1.56-8.45-1.04-2.25-2.47-3.93-4.3-5.05-1.82-1.12-3.92-1.68-6.3-1.68s-4.55.58-6.42,1.73c-1.87,1.16-3.34,2.87-4.39,5.15-1.06,2.28-1.59,5.05-1.59,8.3v4.69c0,3.16.53,5.85,1.59,8.08,1.06,2.23,2.56,3.94,4.52,5.13,1.95,1.19,4.28,1.78,6.98,1.78,2.02,0,3.79-.32,5.32-.95,1.53-.63,2.79-1.46,3.78-2.47.99-1.01,1.68-2.1,2.08-3.27l.1-.34h11.33l-.1.54c-.42,1.99-1.21,3.93-2.34,5.83-1.14,1.9-2.67,3.62-4.59,5.15-1.92,1.53-4.2,2.74-6.84,3.64s-5.63,1.34-8.98,1.34c-5.18,0-9.63-1.09-13.35-3.27Z"/>
    <path class="cls-2" d="M2619.19,593.7h12.11v8.94h.29c1.01-2.08,2.29-3.87,3.83-5.35,1.55-1.48,3.35-2.63,5.42-3.44,2.07-.81,4.32-1.22,6.76-1.22,4.39,0,8.19,1.08,11.4,3.25,3.21,2.17,5.68,5.27,7.42,9.3,1.74,4.04,2.61,8.84,2.61,14.4v.05c0,5.53-.87,10.31-2.61,14.33-1.74,4.02-4.2,7.11-7.37,9.28-3.17,2.17-6.93,3.25-11.25,3.25-2.44,0-4.71-.39-6.81-1.17s-3.95-1.9-5.54-3.37c-1.6-1.46-2.88-3.21-3.86-5.22h-.29v25.83h-12.11v-68.85ZM2650.78,634.23c1.89-1.37,3.34-3.3,4.37-5.79s1.54-5.43,1.54-8.81v-.05c0-3.48-.51-6.47-1.54-8.96s-2.49-4.4-4.39-5.74c-1.9-1.33-4.14-2-6.71-2s-4.72.68-6.64,2.05c-1.92,1.37-3.43,3.3-4.52,5.79-1.09,2.49-1.64,5.44-1.64,8.86v.05c0,3.39.54,6.32,1.64,8.81,1.09,2.49,2.6,4.42,4.52,5.79,1.92,1.37,4.13,2.05,6.64,2.05s4.85-.68,6.74-2.05Z"/>
    <path class="cls-2" d="M2683.13,644.36c-2.62-1.32-4.66-3.16-6.1-5.52-1.45-2.36-2.17-5.07-2.17-8.13v-.1c0-3.09.77-5.74,2.32-7.93,1.55-2.2,3.78-3.94,6.71-5.22,2.93-1.29,6.48-2.06,10.64-2.32l19.78-1.22v8.06l-18.07,1.12c-3,.2-5.29.91-6.88,2.15-1.6,1.24-2.39,2.88-2.39,4.93v.05c0,2.12.81,3.78,2.42,5s3.75,1.83,6.42,1.83c2.34,0,4.43-.47,6.27-1.42,1.84-.94,3.3-2.23,4.37-3.86,1.07-1.63,1.61-3.47,1.61-5.52v-15.53c0-2.6-.82-4.66-2.47-6.18-1.64-1.51-4.01-2.27-7.1-2.27-2.87,0-5.16.61-6.88,1.83-1.73,1.22-2.8,2.79-3.22,4.71l-.1.44h-11.23l.05-.59c.26-3.06,1.29-5.8,3.08-8.23,1.79-2.42,4.27-4.34,7.45-5.74,3.17-1.4,6.94-2.1,11.3-2.1s8.08.72,11.25,2.15c3.17,1.43,5.63,3.43,7.37,6.01,1.74,2.57,2.61,5.6,2.61,9.08v35.6h-12.11v-7.96h-.29c-.98,1.79-2.25,3.35-3.81,4.69-1.56,1.33-3.34,2.36-5.35,3.08s-4.14,1.07-6.42,1.07c-3.42,0-6.44-.66-9.06-1.98Z"/>
    <path class="cls-2" d="M2738.6,644.48c-3.21-1.33-5.71-3.21-7.52-5.64-1.81-2.42-2.91-5.23-3.3-8.42l-.05-.44h11.96l.1.44c.46,2.25,1.54,3.99,3.25,5.22,1.71,1.24,4.11,1.86,7.2,1.86,1.99,0,3.68-.24,5.08-.73,1.4-.49,2.48-1.2,3.25-2.15.76-.94,1.15-2.05,1.15-3.32v-.05c0-1.53-.52-2.77-1.56-3.74-1.04-.96-2.91-1.75-5.62-2.37l-8.59-1.9c-3.29-.75-6.04-1.77-8.25-3.08-2.21-1.3-3.87-2.92-4.98-4.86-1.11-1.94-1.66-4.19-1.66-6.76v-.05c0-3.16.86-5.92,2.59-8.3,1.72-2.38,4.15-4.23,7.28-5.57,3.12-1.33,6.75-2,10.89-2s7.97.72,11.04,2.15c3.06,1.43,5.43,3.35,7.1,5.76,1.68,2.41,2.58,5.11,2.71,8.11l.05.54h-11.33l-.05-.39c-.26-2.08-1.21-3.8-2.83-5.15-1.63-1.35-3.86-2.03-6.69-2.03-1.79,0-3.34.26-4.66.78-1.32.52-2.33,1.25-3.03,2.2-.7.94-1.05,2.05-1.05,3.32v.05c0,.98.24,1.86.73,2.64s1.27,1.46,2.34,2.03c1.07.57,2.51,1.07,4.3,1.49l8.59,1.9c5.37,1.21,9.2,2.92,11.47,5.15,2.28,2.23,3.42,5.22,3.42,8.96v.05c0,3.26-.93,6.11-2.78,8.57-1.86,2.46-4.42,4.36-7.69,5.71s-7.02,2.03-11.25,2.03c-4.53,0-8.39-.67-11.6-2Z"/>
    <path class="cls-2" d="M2786.84,642.97c-2.62-2.34-3.93-6.18-3.93-11.52v-28.37h-7.32v-9.38h7.32v-13.13h12.35v13.13h9.62v9.38h-9.62v27.39c0,2.51.56,4.24,1.68,5.2,1.12.96,2.77,1.44,4.96,1.44.62,0,1.16-.02,1.64-.07.47-.05.92-.09,1.34-.12v9.13c-.72.1-1.59.2-2.61.29s-2.17.15-3.44.15c-5.37,0-9.37-1.17-11.99-3.52Z"/>
    <path class="cls-2" d="M2836.74,662.48c-1.12-.11-2.06-.24-2.81-.37v-9.23c.46.06,1.03.15,1.71.24s1.46.15,2.34.15c2.34,0,4.2-.4,5.57-1.2,1.37-.8,2.44-2.29,3.22-4.47l.73-2.1-18.6-51.81h13.23l12.89,43.95-1.86-2.54h2.59l-1.86,2.54,12.89-43.95h12.79l-18.65,53.52c-1.3,3.78-2.88,6.79-4.74,9.06-1.86,2.26-4.09,3.89-6.71,4.88-2.62.99-5.72,1.49-9.3,1.49-1.17,0-2.32-.06-3.44-.17Z"/>
    <path class="cls-2" d="M2892.75,643.21c-3.73-2.18-6.58-5.27-8.57-9.28-1.99-4-2.98-8.74-2.98-14.21v-.05c0-5.44,1-10.18,3-14.23s4.82-7.2,8.45-9.45c3.63-2.25,7.92-3.37,12.87-3.37s9.17,1.08,12.77,3.25c3.6,2.17,6.36,5.2,8.3,9.11,1.94,3.91,2.91,8.46,2.91,13.67v3.91h-42.29v-8.11h36.47l-5.86,7.57v-4.69c0-3.38-.52-6.2-1.56-8.45-1.04-2.25-2.47-3.93-4.3-5.05-1.82-1.12-3.92-1.68-6.3-1.68s-4.55.58-6.42,1.73c-1.87,1.16-3.34,2.87-4.39,5.15-1.06,2.28-1.59,5.05-1.59,8.3v4.69c0,3.16.53,5.85,1.59,8.08,1.06,2.23,2.56,3.94,4.52,5.13,1.95,1.19,4.28,1.78,6.98,1.78,2.02,0,3.79-.32,5.32-.95,1.53-.63,2.79-1.46,3.78-2.47.99-1.01,1.68-2.1,2.08-3.27l.1-.34h11.33l-.1.54c-.42,1.99-1.21,3.93-2.34,5.83-1.14,1.9-2.67,3.62-4.59,5.15-1.92,1.53-4.2,2.74-6.84,3.64s-5.63,1.34-8.98,1.34c-5.18,0-9.63-1.09-13.35-3.27Z"/>
    <path class="cls-2" d="M2943.48,644.36c-2.62-1.32-4.66-3.16-6.1-5.52-1.45-2.36-2.17-5.07-2.17-8.13v-.1c0-3.09.77-5.74,2.32-7.93,1.55-2.2,3.78-3.94,6.71-5.22,2.93-1.29,6.48-2.06,10.64-2.32l19.78-1.22v8.06l-18.07,1.12c-3,.2-5.29.91-6.88,2.15-1.6,1.24-2.39,2.88-2.39,4.93v.05c0,2.12.81,3.78,2.42,5s3.75,1.83,6.42,1.83c2.34,0,4.43-.47,6.27-1.42,1.84-.94,3.3-2.23,4.37-3.86,1.07-1.63,1.61-3.47,1.61-5.52v-15.53c0-2.6-.82-4.66-2.47-6.18-1.64-1.51-4.01-2.27-7.1-2.27-2.87,0-5.16.61-6.88,1.83-1.73,1.22-2.8,2.79-3.22,4.71l-.1.44h-11.23l.05-.59c.26-3.06,1.29-5.8,3.08-8.23,1.79-2.42,4.27-4.34,7.45-5.74,3.17-1.4,6.94-2.1,11.3-2.1s8.08.72,11.25,2.15c3.17,1.43,5.63,3.43,7.37,6.01,1.74,2.57,2.61,5.6,2.61,9.08v35.6h-12.11v-7.96h-.29c-.98,1.79-2.25,3.35-3.81,4.69-1.56,1.33-3.34,2.36-5.35,3.08s-4.14,1.07-6.42,1.07c-3.42,0-6.44-.66-9.06-1.98Z"/>
    <path class="cls-2" d="M2990.33,593.7h12.11v8.94h.29c.78-3.12,2.21-5.57,4.27-7.35,2.07-1.77,4.6-2.66,7.59-2.66.75,0,1.46.05,2.15.15s1.25.21,1.71.34v10.99c-.49-.2-1.18-.36-2.08-.49-.9-.13-1.86-.2-2.91-.2-2.28,0-4.25.46-5.91,1.39s-2.93,2.29-3.81,4.08c-.88,1.79-1.32,3.97-1.32,6.54v30.03h-12.11v-51.76Z"/>
    <path class="cls-2" d="M3051.93,642.97c-2.62-2.34-3.93-6.18-3.93-11.52v-28.37h-7.32v-9.38h7.32v-13.13h12.35v13.13h9.62v9.38h-9.62v27.39c0,2.51.56,4.24,1.68,5.2,1.12.96,2.77,1.44,4.96,1.44.62,0,1.16-.02,1.64-.07.47-.05.92-.09,1.34-.12v9.13c-.72.1-1.59.2-2.61.29s-2.17.15-3.44.15c-5.37,0-9.37-1.17-11.99-3.52Z"/>
    <path class="cls-2" d="M3086.91,643.24c-3.74-2.16-6.65-5.26-8.72-9.28-2.07-4.02-3.1-8.81-3.1-14.38v-.1c0-5.53,1.04-10.31,3.12-14.33,2.08-4.02,5-7.11,8.74-9.28,3.74-2.16,8.12-3.25,13.13-3.25s9.45,1.08,13.21,3.25c3.76,2.17,6.68,5.25,8.76,9.25,2.08,4,3.12,8.79,3.12,14.36v.1c0,5.6-1.03,10.41-3.1,14.43-2.07,4.02-4.97,7.1-8.72,9.25-3.74,2.15-8.15,3.22-13.23,3.22s-9.49-1.08-13.23-3.25ZM3106.88,634.67c1.89-1.33,3.34-3.28,4.37-5.83,1.03-2.55,1.54-5.64,1.54-9.25v-.1c0-3.58-.52-6.64-1.56-9.18-1.04-2.54-2.51-4.48-4.42-5.81-1.9-1.33-4.14-2-6.71-2s-4.71.67-6.62,2c-1.9,1.33-3.39,3.27-4.44,5.81-1.06,2.54-1.59,5.6-1.59,9.18v.1c0,3.61.53,6.7,1.59,9.25,1.06,2.56,2.54,4.5,4.44,5.83,1.9,1.33,4.14,2,6.71,2s4.8-.67,6.69-2Z"/>
    <path class="cls-2" d="M3149.12,593.7h12.21l8.74,39.75h.24l10.11-39.75h11.62l10.16,39.75h.24l8.74-39.75h12.01l-13.96,51.76h-12.79l-10.21-37.84h-.24l-10.16,37.84h-12.65l-14.06-51.76Z"/>
    <path class="cls-2" d="M3230.91,584.33c-1.3-1.3-1.95-2.86-1.95-4.69s.65-3.43,1.95-4.71c1.3-1.29,2.9-1.93,4.79-1.93s3.53.64,4.83,1.93c1.3,1.29,1.95,2.86,1.95,4.71s-.65,3.39-1.95,4.69-2.91,1.95-4.83,1.95-3.48-.65-4.79-1.95ZM3229.64,593.7h12.16v51.76h-12.16v-51.76Z"/>
    <path class="cls-2" d="M3252.1,593.7h12.11v8.11h.29c1.33-2.8,3.33-5.03,5.98-6.69,2.65-1.66,5.93-2.49,9.84-2.49,5.7,0,10.1,1.73,13.21,5.18,3.11,3.45,4.66,8.17,4.66,14.16v33.5h-12.16v-31.05c0-3.68-.86-6.52-2.59-8.52-1.73-2-4.31-3-7.76-3-2.31,0-4.33.53-6.05,1.59-1.73,1.06-3.06,2.52-4,4.39-.94,1.87-1.42,4.06-1.42,6.57v30.03h-12.11v-51.76Z"/>
    <path class="cls-2" d="M3334.2,644.36c-2.62-1.32-4.66-3.16-6.1-5.52-1.45-2.36-2.17-5.07-2.17-8.13v-.1c0-3.09.77-5.74,2.32-7.93,1.55-2.2,3.78-3.94,6.71-5.22,2.93-1.29,6.48-2.06,10.64-2.32l19.78-1.22v8.06l-18.07,1.12c-3,.2-5.29.91-6.88,2.15-1.6,1.24-2.39,2.88-2.39,4.93v.05c0,2.12.81,3.78,2.42,5s3.75,1.83,6.42,1.83c2.34,0,4.43-.47,6.27-1.42,1.84-.94,3.3-2.23,4.37-3.86,1.07-1.63,1.61-3.47,1.61-5.52v-15.53c0-2.6-.82-4.66-2.47-6.18-1.64-1.51-4.01-2.27-7.1-2.27-2.87,0-5.16.61-6.88,1.83-1.73,1.22-2.8,2.79-3.22,4.71l-.1.44h-11.23l.05-.59c.26-3.06,1.29-5.8,3.08-8.23,1.79-2.42,4.27-4.34,7.45-5.74,3.17-1.4,6.94-2.1,11.3-2.1s8.08.72,11.25,2.15c3.17,1.43,5.63,3.43,7.37,6.01,1.74,2.57,2.61,5.6,2.61,9.08v35.6h-12.11v-7.96h-.29c-.98,1.79-2.25,3.35-3.81,4.69-1.56,1.33-3.34,2.36-5.35,3.08s-4.14,1.07-6.42,1.07c-3.42,0-6.44-.66-9.06-1.98Z"/>
    <path class="cls-2" d="M3381.05,593.7h12.11v8.3h.29c1.07-2.83,2.88-5.1,5.42-6.81s5.52-2.56,8.94-2.56c2.41,0,4.57.42,6.49,1.25,1.92.83,3.56,2.02,4.91,3.56,1.35,1.55,2.33,3.43,2.95,5.64h.24c.85-2.15,2.06-4,3.64-5.54,1.58-1.55,3.43-2.75,5.57-3.61,2.13-.86,4.43-1.29,6.91-1.29,3.42,0,6.39.72,8.91,2.17,2.52,1.45,4.49,3.47,5.91,6.05s2.12,5.62,2.12,9.11v35.5h-12.16v-32.52c0-2.15-.36-3.97-1.07-5.47-.72-1.5-1.76-2.64-3.12-3.42s-3.06-1.17-5.08-1.17-3.67.45-5.15,1.34c-1.48.9-2.64,2.14-3.47,3.74-.83,1.6-1.25,3.43-1.25,5.52v31.98h-11.82v-33.15c0-1.95-.38-3.63-1.12-5.03-.75-1.4-1.81-2.48-3.17-3.25-1.37-.76-3-1.15-4.88-1.15s-3.68.47-5.18,1.42c-1.5.94-2.68,2.23-3.54,3.86-.86,1.63-1.29,3.5-1.29,5.62v31.69h-12.11v-51.76Z"/>
    <path class="cls-2" d="M3471.41,644.36c-2.62-1.32-4.66-3.16-6.1-5.52-1.45-2.36-2.17-5.07-2.17-8.13v-.1c0-3.09.77-5.74,2.32-7.93,1.55-2.2,3.78-3.94,6.71-5.22,2.93-1.29,6.48-2.06,10.64-2.32l19.78-1.22v8.06l-18.07,1.12c-3,.2-5.29.91-6.88,2.15-1.6,1.24-2.39,2.88-2.39,4.93v.05c0,2.12.81,3.78,2.42,5s3.75,1.83,6.42,1.83c2.34,0,4.43-.47,6.27-1.42,1.84-.94,3.3-2.23,4.37-3.86,1.07-1.63,1.61-3.47,1.61-5.52v-15.53c0-2.6-.82-4.66-2.47-6.18-1.64-1.51-4.01-2.27-7.1-2.27-2.87,0-5.16.61-6.88,1.83-1.73,1.22-2.8,2.79-3.22,4.71l-.1.44h-11.23l.05-.59c.26-3.06,1.29-5.8,3.08-8.23,1.79-2.42,4.27-4.34,7.45-5.74,3.17-1.4,6.94-2.1,11.3-2.1s8.08.72,11.25,2.15c3.17,1.43,5.63,3.43,7.37,6.01,1.74,2.57,2.61,5.6,2.61,9.08v35.6h-12.11v-7.96h-.29c-.98,1.79-2.25,3.35-3.81,4.69-1.56,1.33-3.34,2.36-5.35,3.08s-4.14,1.07-6.42,1.07c-3.42,0-6.44-.66-9.06-1.98Z"/>
    <path class="cls-2" d="M3516.89,638.09l26.95-34.81v-.2h-26.71v-9.38h40.58v7.96l-25.88,34.18v.24h26.32v9.38h-41.26v-7.37Z"/>
    <path class="cls-2" d="M3568.65,584.33c-1.3-1.3-1.95-2.86-1.95-4.69s.65-3.43,1.95-4.71c1.3-1.29,2.9-1.93,4.79-1.93s3.53.64,4.83,1.93c1.3,1.29,1.95,2.86,1.95,4.71s-.65,3.39-1.95,4.69-2.91,1.95-4.83,1.95-3.48-.65-4.79-1.95ZM3567.38,593.7h12.16v51.76h-12.16v-51.76Z"/>
    <path class="cls-2" d="M3589.84,593.7h12.11v8.11h.29c1.33-2.8,3.33-5.03,5.98-6.69,2.65-1.66,5.93-2.49,9.84-2.49,5.7,0,10.1,1.73,13.21,5.18,3.11,3.45,4.66,8.17,4.66,14.16v33.5h-12.16v-31.05c0-3.68-.86-6.52-2.59-8.52-1.73-2-4.31-3-7.76-3-2.31,0-4.33.53-6.05,1.59-1.73,1.06-3.06,2.52-4,4.39-.94,1.87-1.42,4.06-1.42,6.57v30.03h-12.11v-51.76Z"/>
    <path class="cls-2" d="M3657.06,661.69c-3.4-1.25-6.11-2.97-8.13-5.15-2.02-2.18-3.27-4.62-3.76-7.32l-.1-.44h11.91l.2.39c.65,1.5,1.99,2.74,4.03,3.74,2.03.99,4.61,1.49,7.74,1.49,3.97,0,7.01-.98,9.13-2.93,2.12-1.95,3.17-4.57,3.17-7.86v-7.47h-.24c-.94,1.86-2.21,3.45-3.78,4.79-1.58,1.33-3.42,2.38-5.52,3.12-2.1.75-4.39,1.12-6.86,1.12-4.33,0-8.1-1.06-11.3-3.17-3.21-2.12-5.68-5.12-7.42-9.01-1.74-3.89-2.61-8.52-2.61-13.89v-.05c0-5.47.89-10.16,2.66-14.09,1.77-3.92,4.27-6.96,7.5-9.11s7.01-3.22,11.38-3.22c2.44,0,4.69.42,6.74,1.25s3.85,1.98,5.4,3.44c1.55,1.46,2.81,3.19,3.78,5.18h.29v-8.79h12.16v50.29c0,3.91-.99,7.33-2.98,10.28-1.99,2.95-4.8,5.23-8.45,6.86-3.65,1.63-7.98,2.44-12.99,2.44-4.56,0-8.54-.63-11.94-1.88ZM3675.29,633.76c1.89-1.35,3.36-3.26,4.42-5.74,1.06-2.47,1.59-5.37,1.59-8.69v-.05c0-3.35-.54-6.26-1.61-8.72-1.07-2.46-2.56-4.35-4.44-5.69-1.89-1.33-4.09-2-6.59-2s-4.87.67-6.79,2c-1.92,1.33-3.4,3.22-4.44,5.66-1.04,2.44-1.56,5.36-1.56,8.74v.05c0,3.39.52,6.31,1.56,8.76,1.04,2.46,2.52,4.35,4.44,5.69,1.92,1.33,4.18,2,6.79,2s4.75-.67,6.64-2.03Z"/>
    <path class="cls-2" d="M3723.39,593.7h12.11v8.94h.29c1.01-2.08,2.29-3.87,3.83-5.35,1.55-1.48,3.35-2.63,5.42-3.44,2.07-.81,4.32-1.22,6.76-1.22,4.39,0,8.19,1.08,11.4,3.25,3.21,2.17,5.68,5.27,7.42,9.3,1.74,4.04,2.61,8.84,2.61,14.4v.05c0,5.53-.87,10.31-2.61,14.33-1.74,4.02-4.2,7.11-7.37,9.28-3.17,2.17-6.93,3.25-11.25,3.25-2.44,0-4.71-.39-6.81-1.17s-3.95-1.9-5.54-3.37c-1.6-1.46-2.88-3.21-3.86-5.22h-.29v25.83h-12.11v-68.85ZM3754.98,634.23c1.89-1.37,3.34-3.3,4.37-5.79s1.54-5.43,1.54-8.81v-.05c0-3.48-.51-6.47-1.54-8.96s-2.49-4.4-4.39-5.74c-1.9-1.33-4.14-2-6.71-2s-4.72.68-6.64,2.05c-1.92,1.37-3.43,3.3-4.52,5.79-1.09,2.49-1.64,5.44-1.64,8.86v.05c0,3.39.54,6.32,1.64,8.81,1.09,2.49,2.6,4.42,4.52,5.79,1.92,1.37,4.13,2.05,6.64,2.05s4.85-.68,6.74-2.05Z"/>
    <path class="cls-2" d="M3781.1,593.7h12.11v8.94h.29c.78-3.12,2.21-5.57,4.27-7.35,2.07-1.77,4.6-2.66,7.59-2.66.75,0,1.46.05,2.15.15s1.25.21,1.71.34v10.99c-.49-.2-1.18-.36-2.08-.49-.9-.13-1.86-.2-2.91-.2-2.28,0-4.25.46-5.91,1.39s-2.93,2.29-3.81,4.08c-.88,1.79-1.32,3.97-1.32,6.54v30.03h-12.11v-51.76Z"/>
    <path class="cls-2" d="M3817.04,584.33c-1.3-1.3-1.95-2.86-1.95-4.69s.65-3.43,1.95-4.71c1.3-1.29,2.9-1.93,4.79-1.93s3.53.64,4.83,1.93c1.3,1.29,1.95,2.86,1.95,4.71s-.65,3.39-1.95,4.69-2.91,1.95-4.83,1.95-3.48-.65-4.79-1.95ZM3815.77,593.7h12.16v51.76h-12.16v-51.76Z"/>
    <path class="cls-2" d="M3837.21,638.09l26.95-34.81v-.2h-26.71v-9.38h40.58v7.96l-25.88,34.18v.24h26.32v9.38h-41.26v-7.37Z"/>
    <path class="cls-2" d="M3895.43,643.21c-3.73-2.18-6.58-5.27-8.57-9.28-1.99-4-2.98-8.74-2.98-14.21v-.05c0-5.44,1-10.18,3-14.23s4.82-7.2,8.45-9.45c3.63-2.25,7.92-3.37,12.87-3.37s9.17,1.08,12.77,3.25c3.6,2.17,6.36,5.2,8.3,9.11,1.94,3.91,2.91,8.46,2.91,13.67v3.91h-42.29v-8.11h36.47l-5.86,7.57v-4.69c0-3.38-.52-6.2-1.56-8.45-1.04-2.25-2.47-3.93-4.3-5.05-1.82-1.12-3.92-1.68-6.3-1.68s-4.55.58-6.42,1.73c-1.87,1.16-3.34,2.87-4.39,5.15-1.06,2.28-1.59,5.05-1.59,8.3v4.69c0,3.16.53,5.85,1.59,8.08,1.06,2.23,2.56,3.94,4.52,5.13,1.95,1.19,4.28,1.78,6.98,1.78,2.02,0,3.79-.32,5.32-.95,1.53-.63,2.79-1.46,3.78-2.47.99-1.01,1.68-2.1,2.08-3.27l.1-.34h11.33l-.1.54c-.42,1.99-1.21,3.93-2.34,5.83-1.14,1.9-2.67,3.62-4.59,5.15-1.92,1.53-4.2,2.74-6.84,3.64s-5.63,1.34-8.98,1.34c-5.18,0-9.63-1.09-13.35-3.27Z"/>
    <path class="cls-2" d="M3948.56,644.48c-3.21-1.33-5.71-3.21-7.52-5.64-1.81-2.42-2.91-5.23-3.3-8.42l-.05-.44h11.96l.1.44c.46,2.25,1.54,3.99,3.25,5.22,1.71,1.24,4.11,1.86,7.2,1.86,1.99,0,3.68-.24,5.08-.73,1.4-.49,2.48-1.2,3.25-2.15.76-.94,1.15-2.05,1.15-3.32v-.05c0-1.53-.52-2.77-1.56-3.74-1.04-.96-2.91-1.75-5.62-2.37l-8.59-1.9c-3.29-.75-6.04-1.77-8.25-3.08-2.21-1.3-3.87-2.92-4.98-4.86-1.11-1.94-1.66-4.19-1.66-6.76v-.05c0-3.16.86-5.92,2.59-8.3,1.72-2.38,4.15-4.23,7.28-5.57,3.12-1.33,6.75-2,10.89-2s7.97.72,11.04,2.15c3.06,1.43,5.43,3.35,7.1,5.76,1.68,2.41,2.58,5.11,2.71,8.11l.05.54h-11.33l-.05-.39c-.26-2.08-1.21-3.8-2.83-5.15-1.63-1.35-3.86-2.03-6.69-2.03-1.79,0-3.34.26-4.66.78-1.32.52-2.33,1.25-3.03,2.2-.7.94-1.05,2.05-1.05,3.32v.05c0,.98.24,1.86.73,2.64s1.27,1.46,2.34,2.03c1.07.57,2.51,1.07,4.3,1.49l8.59,1.9c5.37,1.21,9.2,2.92,11.47,5.15,2.28,2.23,3.42,5.22,3.42,8.96v.05c0,3.26-.93,6.11-2.78,8.57-1.86,2.46-4.42,4.36-7.69,5.71s-7.02,2.03-11.25,2.03c-4.53,0-8.39-.67-11.6-2Z"/>
    <path class="cls-2" d="M3994.51,643.99c-1.38-1.33-2.08-2.96-2.08-4.88s.69-3.59,2.08-4.91c1.38-1.32,3.05-1.98,5-1.98s3.66.66,5.03,1.98,2.05,2.95,2.05,4.91-.68,3.55-2.05,4.88c-1.37,1.33-3.04,2-5.03,2s-3.62-.67-5-2ZM3993.26,575h12.5l-.93,46.88h-10.6l-.98-46.88Z"/>
  </g>
  <g class="cls-4">
    <path class="cls-2" d="M2297.35,838.64c-.01-.17-.03-.33-.06-.49-.26-2.45-1.05-4.54-2.36-6.29-1.32-1.74-3.03-3.08-5.14-4-2.11-.92-4.48-1.39-7.11-1.39-3.2,0-6.13.66-8.77,1.99-2.64,1.33-4.92,3.21-6.84,5.64-1.91,2.44-3.39,5.29-4.43,8.57-1.04,3.28-1.56,6.88-1.56,10.78s.64,7.03,1.93,9.77,3.13,4.84,5.53,6.31c2.4,1.47,5.25,2.21,8.55,2.21,2.53,0,4.86-.43,6.99-1.29,2.13-.86,4-2.1,5.61-3.73,1.6-1.63,2.84-3.57,3.73-5.84h7.11c-1.02,3.52-2.66,6.57-4.94,9.16-2.28,2.59-5.01,4.6-8.18,6.02-3.18,1.42-6.64,2.13-10.39,2.13-4.71,0-8.81-1-12.29-3.01-3.48-2-6.16-4.84-8.05-8.52-1.89-3.67-2.83-7.99-2.83-12.97s.71-9.23,2.13-13.32c1.42-4.09,3.42-7.66,6.02-10.7,2.59-3.05,5.65-5.42,9.18-7.11,3.53-1.69,7.39-2.54,11.58-2.54s7.68.73,10.86,2.19c3.18,1.46,5.72,3.54,7.62,6.23,1.9,2.7,2.97,5.89,3.2,9.59.03.29.04.5.04.62v.43h-7.11c0-.13,0-.28-.02-.45Z"/>
    <path class="cls-2" d="M2316.16,820.92h6.88l-11.99,56.37h-6.88l11.99-56.37Z"/>
    <path class="cls-2" d="M2329.36,836.67h6.88l-8.63,40.62h-6.88l8.63-40.62ZM2332.29,828.19c-.83-.83-1.25-1.84-1.25-3.01s.42-2.21,1.25-3.03c.83-.82,1.84-1.23,3.01-1.23s2.21.41,3.03,1.23,1.23,1.83,1.23,3.03-.41,2.17-1.23,3.01c-.82.83-1.83,1.25-3.03,1.25s-2.17-.42-3.01-1.25Z"/>
    <path class="cls-2" d="M2369.05,837.97c2.4,1.34,4.19,3.09,5.39,5.25,1.2,2.16,1.8,4.45,1.8,6.88v.27h-6.6c-.1-2.29-.98-4.27-2.64-5.94-1.65-1.67-3.99-2.5-7.01-2.5-2.03,0-3.89.44-5.57,1.33-1.68.89-3.13,2.13-4.36,3.73-1.22,1.6-2.17,3.5-2.85,5.7-.68,2.2-1.02,4.63-1.02,7.29,0,2.5.41,4.65,1.23,6.45s1.97,3.18,3.44,4.14c1.47.96,3.2,1.45,5.18,1.45,2.66,0,4.93-.7,6.84-2.09,1.9-1.39,3.28-3.24,4.14-5.53h6.68c-.65,2.58-1.84,4.89-3.55,6.93-1.72,2.04-3.8,3.67-6.23,4.86-2.44,1.2-5.08,1.8-7.95,1.8-3.65,0-6.71-.76-9.2-2.29-2.49-1.52-4.36-3.63-5.62-6.31-1.26-2.68-1.89-5.74-1.89-9.18,0-4.56.88-8.67,2.66-12.32,1.77-3.66,4.22-6.56,7.36-8.71,3.14-2.15,6.74-3.22,10.8-3.22,3.59,0,6.59.67,8.98,2.01Z"/>
    <path class="cls-2" d="M2377.25,877.29l11.99-56.37h6.88l-7.03,32.97h.16l20.98-17.23h8.71l-20.27,16.76,12.38,23.87h-7.62l-10.27-19.96-5.7,4.45-3.32,15.51h-6.88Z"/>
    <path class="cls-2" d="M2440.96,875.53c-1.9-1.38-2.85-3.46-2.85-6.25,0-.52.03-1.07.1-1.66.06-.59.16-1.19.29-1.82l5.04-23.52h-6.02l1.17-5.62h6.05l2.07-10.12h6.84l-2.15,10.12h8.71l-1.17,5.62h-8.71l-4.57,21.41c-.16.73-.27,1.39-.35,1.99-.08.6-.12,1.16-.12,1.68,0,1.54.48,2.64,1.45,3.32.96.68,2.24,1.02,3.83,1.02.42,0,.77,0,1.07-.02.3-.01.59-.03.88-.06.29-.03.57-.05.86-.08l-1.21,5.66c-.68.1-1.36.2-2.05.27-.69.08-1.37.12-2.05.12-2.84,0-5.21-.69-7.11-2.07Z"/>
    <path class="cls-2" d="M2489.63,838.17c2.55,1.47,4.52,3.55,5.92,6.23,1.39,2.68,2.09,5.82,2.09,9.41,0,3.39-.53,6.54-1.58,9.47s-2.52,5.5-4.39,7.7c-1.88,2.2-4.08,3.92-6.6,5.16-2.53,1.24-5.27,1.86-8.24,1.86-3.46,0-6.47-.74-9.02-2.23-2.55-1.48-4.53-3.56-5.92-6.23-1.39-2.67-2.09-5.8-2.09-9.39,0-3.38.53-6.54,1.58-9.47s2.52-5.49,4.39-7.7c1.88-2.2,4.08-3.92,6.6-5.16,2.53-1.24,5.27-1.86,8.24-1.86,3.46,0,6.47.74,9.02,2.21ZM2484.03,869.65c2.1-1.58,3.74-3.72,4.94-6.45,1.2-2.72,1.8-5.79,1.8-9.2,0-3.65-.92-6.57-2.75-8.77-1.84-2.2-4.3-3.3-7.4-3.3-2.68,0-5.08.79-7.19,2.36-2.11,1.58-3.76,3.72-4.96,6.45-1.2,2.72-1.8,5.79-1.8,9.2,0,3.65.92,6.57,2.75,8.77,1.84,2.2,4.3,3.3,7.4,3.3,2.71,0,5.11-.79,7.21-2.36Z"/>
    <path class="cls-2" d="M2526.53,841.84c1.26-1.81,3.03-3.24,5.29-4.28,2.27-1.04,4.9-1.56,7.89-1.56s5.53.53,7.75,1.58,3.98,2.51,5.25,4.38c1.28,1.86,1.93,4,1.95,6.43h-6.48c-.1-1.33-.54-2.51-1.31-3.54-.77-1.03-1.78-1.84-3.03-2.42s-2.66-.88-4.22-.88c-1.72,0-3.2.25-4.43.76-1.24.51-2.19,1.21-2.87,2.09-.68.89-1.02,1.9-1.02,3.05,0,1.43.51,2.59,1.52,3.48,1.02.89,2.79,1.72,5.31,2.5l3.52,1.09c3.65,1.12,6.27,2.53,7.87,4.22,1.6,1.69,2.4,3.88,2.4,6.56,0,2.42-.68,4.59-2.05,6.5s-3.24,3.42-5.61,4.53c-2.37,1.11-5.07,1.66-8.09,1.66-3.2,0-6.01-.55-8.42-1.66-2.41-1.11-4.3-2.61-5.66-4.51-1.37-1.9-2.09-4.04-2.17-6.41h6.8c.31,2.06,1.31,3.74,2.99,5.04,1.68,1.3,3.94,1.95,6.78,1.95,1.64,0,3.11-.3,4.41-.9,1.3-.6,2.32-1.41,3.07-2.42s1.11-2.15,1.11-3.4-.44-2.32-1.33-3.05c-.89-.73-2.62-1.5-5.2-2.3l-3.52-1.09c-3.7-1.15-6.36-2.6-7.99-4.36-1.63-1.76-2.44-4.03-2.44-6.82,0-2.34.63-4.42,1.89-6.23Z"/>
    <path class="cls-2" d="M2590.38,877.29h-6.48l1.29-5.7h-.16c-.65.99-1.63,1.98-2.95,2.97-1.32.99-2.86,1.81-4.63,2.46-1.77.65-3.7.98-5.78.98-2.58,0-4.8-.51-6.68-1.52s-3.31-2.38-4.32-4.1c-1-1.72-1.5-3.62-1.5-5.7,0-.81.05-1.76.16-2.87.1-1.11.25-2.08.43-2.91l5.08-24.22h6.88l-4.96,23.24c-.16.73-.29,1.56-.39,2.5-.1.94-.16,1.64-.16,2.11,0,2.55.67,4.43,2.01,5.64,1.34,1.21,3.38,1.82,6.11,1.82,2.16,0,4.11-.47,5.86-1.41,1.74-.94,3.21-2.23,4.39-3.89,1.18-1.65,2-3.54,2.44-5.64l5.2-24.38h6.8l-8.63,40.62Z"/>
    <path class="cls-2" d="M2614.99,876.8c-1.85-.79-3.42-1.88-4.71-3.26-1.29-1.38-2.16-2.93-2.6-4.65h-.2l-1.76,8.4h-6.45l11.99-56.37h6.72l-4.65,22.11h.12c1.12-2.06,2.82-3.75,5.1-5.08,2.28-1.33,4.71-1.99,7.29-1.99,3.07,0,5.75.7,8.03,2.11,2.28,1.41,4.05,3.44,5.31,6.09,1.26,2.66,1.89,5.86,1.89,9.61,0,3.05-.46,6.01-1.37,8.89-.91,2.88-2.23,5.48-3.96,7.79-1.73,2.32-3.84,4.15-6.33,5.51-2.49,1.35-5.31,2.03-8.46,2.03-2.14,0-4.13-.4-5.98-1.19ZM2626.41,870.57c1.65-.94,3.07-2.23,4.24-3.89,1.17-1.65,2.07-3.57,2.7-5.76s.94-4.52.94-6.99c0-3.72-.87-6.65-2.6-8.79-1.73-2.13-4.2-3.2-7.4-3.2-2.11,0-4.03.49-5.76,1.46-1.73.98-3.22,2.32-4.45,4.04-1.24,1.72-2.19,3.7-2.87,5.94-.68,2.24-1.02,4.64-1.02,7.19,0,3.33.98,6.07,2.95,8.2,1.97,2.14,4.55,3.2,7.75,3.2,2.03,0,3.87-.47,5.53-1.41Z"/>
    <path class="cls-2" d="M2652.25,836.67h6.48l-1.37,6.52h.16c.99-1.93,2.54-3.61,4.65-5.06s4.47-2.17,7.07-2.17c2.94,0,5.35.76,7.23,2.27,1.88,1.51,3.03,3.18,3.48,5h.12c.83-1.2,1.88-2.35,3.14-3.46,1.26-1.11,2.75-2.02,4.47-2.73,1.72-.72,3.67-1.07,5.86-1.07s4.18.47,5.9,1.41,3.08,2.24,4.08,3.91c1,1.67,1.5,3.58,1.5,5.74,0,.73-.04,1.48-.12,2.25-.08.77-.21,1.57-.39,2.4l-5.43,25.62h-6.84l5.2-24.45c.16-.73.27-1.42.35-2.07.08-.65.12-1.26.12-1.84,0-1.9-.62-3.54-1.86-4.9-1.24-1.37-2.98-2.05-5.21-2.05-1.56,0-3.08.39-4.55,1.17-1.47.78-2.75,1.9-3.83,3.36-1.08,1.46-1.84,3.22-2.29,5.27l-5.43,25.51h-6.84l5.2-24.45c.16-.73.28-1.42.37-2.07.09-.65.14-1.26.14-1.84,0-1.9-.62-3.54-1.86-4.9-1.24-1.37-2.99-2.05-5.25-2.05-1.56,0-3.08.42-4.55,1.25-1.47.83-2.75,1.98-3.85,3.44-1.09,1.46-1.84,3.14-2.23,5.04l-5.43,25.59h-6.84l8.63-40.62Z"/>
    <path class="cls-2" d="M2716.7,836.67h6.88l-8.63,40.62h-6.88l8.63-40.62ZM2719.63,828.19c-.83-.83-1.25-1.84-1.25-3.01s.42-2.21,1.25-3.03c.83-.82,1.84-1.23,3.01-1.23s2.21.41,3.03,1.23,1.23,1.83,1.23,3.03-.41,2.17-1.23,3.01c-.82.83-1.83,1.25-3.03,1.25s-2.17-.42-3.01-1.25Z"/>
    <path class="cls-2" d="M2731.27,875.53c-1.9-1.38-2.85-3.46-2.85-6.25,0-.52.03-1.07.1-1.66.06-.59.16-1.19.29-1.82l5.04-23.52h-6.02l1.17-5.62h6.05l2.07-10.12h6.84l-2.15,10.12h8.71l-1.17,5.62h-8.71l-4.57,21.41c-.16.73-.27,1.39-.35,1.99-.08.6-.12,1.16-.12,1.68,0,1.54.48,2.64,1.45,3.32.96.68,2.24,1.02,3.83,1.02.42,0,.77,0,1.07-.02.3-.01.59-.03.88-.06.29-.03.57-.05.86-.08l-1.21,5.66c-.68.1-1.36.2-2.05.27-.69.08-1.37.12-2.05.12-2.84,0-5.21-.69-7.11-2.07Z"/>
  </g>
</svg>