<svg width="207" height="207" viewBox="0 0 207 207" fill="none" xmlns="http://www.w3.org/2000/svg">
<path fill-rule="evenodd" clip-rule="evenodd" d="M179.943 173.409L196.392 149.244L184.305 124.62L186.007 116.586L207 98.8504L201.545 70.133L175.567 61.2632L171.093 54.4166L173.396 27.0443L149.221 10.6124L124.595 22.6988L116.579 20.9961L98.8428 0L70.1269 5.45528L61.2577 31.4342L54.413 35.9081L27.0446 33.5948L10.6098 57.7393L22.6976 82.3707L20.9949 90.3872L0 108.124L5.45342 136.834L31.4154 145.737L35.8939 152.589L33.5909 179.957L57.7432 196.399L82.3733 184.311L90.3902 186.014L108.125 207L136.833 201.546L145.726 175.584L152.577 171.106L179.943 173.409ZM103.958 155.287C125.125 152.611 138.324 144.433 143.18 130.977C144.744 126.767 145.09 121.791 144.413 113.357C144.338 112.38 144.172 111.417 143.917 110.47C143.255 107.96 142.504 105.9 141.617 104.111C140.67 101.856 139.287 99.2547 137.257 96.6537C137.317 96.4583 137.377 96.2478 137.437 96.0223C137.708 95.03 137.873 94.0077 137.949 92.9854C138.129 90.3093 138.174 88.0391 138.054 86.0095C138.253 83.7714 138.43 81.7658 138.586 79.9951C138.796 77.6145 138.968 75.6584 139.106 74.1324C139.114 74.0873 139.117 74.0422 139.121 73.9971C139.125 73.952 139.129 73.9069 139.136 73.8618C139.407 70.1934 139.587 67.382 139.692 65.2772C140.339 53.34 135.077 47.5367 130.492 44.7404C126.132 42.0943 121.126 41.087 116.391 41.8989C114.496 42.1996 112.783 42.6807 111.174 43.3722C109.911 43.8984 108.724 44.5299 107.611 45.2816C105.116 44.7404 102.5 44.4547 99.7636 44.4547C93.8404 44.4547 88.1428 45.8078 82.8359 48.4538C79.5887 50.0926 75.1238 53.4151 72.1622 60.0603C71.6059 61.263 71.2 62.556 69.9372 66.7055C66.9155 76.3575 66.2991 80.2363 66.2991 83.3484V91.0159C66.2991 94.158 66.8403 97.225 67.8777 100.127C64.8559 103.359 63.0669 107.403 62.4957 111.432C62.3904 112.199 62.3303 112.981 62.3303 113.763C62.3303 115.477 62.6009 117.01 62.9617 118.333C62.8865 119.566 62.8414 120.694 62.8264 121.701C62.5859 122.889 62.4656 124.076 62.4656 125.264V132.541C62.4656 133.743 62.6009 134.931 62.8565 136.104C62.8467 136.406 62.8243 136.778 62.7975 137.224C62.7829 137.465 62.7671 137.728 62.7512 138.013C62.646 139.907 62.6009 141.275 62.6009 142.328C62.6009 157.783 72.7485 164.819 82.1745 164.819C86.7597 164.819 91.405 163.271 96.3661 160.098C98.2603 158.881 99.8688 157.317 101.102 155.513C102.049 155.483 102.996 155.408 103.958 155.287Z" fill="white"/>
<path d="M127.932 114.685C128.373 120.153 128.282 123.677 127.668 125.265C125.109 132.495 116.513 137.034 101.882 138.886C96.9437 139.504 92.0083 137.168 87.0698 131.877C87.0698 132.671 87.2457 135.051 87.6004 139.02C87.865 141.929 87.8199 144.309 87.4682 146.16C85.2627 147.57 83.5008 148.276 82.1779 148.276C80.1484 148.276 79.1366 146.293 79.1366 142.324C79.1366 141.619 79.1802 140.496 79.2689 138.954C79.3561 137.413 79.4012 136.332 79.4012 135.714C79.4012 134.215 79.2689 133.158 79.0043 132.54V125.266C79.0043 125.09 79.0479 124.892 79.1366 124.671C79.2238 124.452 79.3125 124.253 79.4012 124.076C79.3125 122.843 79.3561 120.947 79.5335 118.39C79.7094 116.802 79.7094 115.79 79.5335 115.348C79.0915 114.469 78.8735 113.94 78.8735 113.762C79.2238 111.294 81.0338 110.059 84.2946 110.059C86.4098 110.059 87.6876 110.809 88.1296 112.307C88.1296 113.717 88.3055 115.79 88.6588 118.522C89.1895 121.696 90.8627 124.871 93.6845 128.043C96.7693 131.659 99.7219 133.334 102.545 133.069C105.719 132.719 108.892 131.969 112.066 130.822C116.474 129.234 119.118 127.383 120.001 125.268C120.615 123.68 120.925 122.007 120.925 120.242C120.925 114.866 118.942 110.853 114.975 108.208C113.21 107.063 109.949 106.137 105.188 105.43C102.455 105.08 100.779 104.901 100.164 104.901C95.932 104.99 91.9857 103.623 88.3281 100.801C84.6689 97.9807 82.8409 94.7167 82.8409 91.0138V83.3448C82.8409 81.6715 83.8105 77.7475 85.7513 71.576C86.6308 68.6653 87.1164 67.1243 87.2066 66.9469C87.9988 65.0962 89.0121 63.8619 90.2463 63.244C93.2425 61.7466 96.4161 60.9963 99.767 60.9963C106.29 60.9963 111.095 63.6409 114.181 68.9299C114.446 69.1945 114.886 69.5914 115.504 70.1206C115.591 68.8878 115.769 66.992 116.033 64.4347C115.945 63.2891 115.856 62.1871 115.769 61.1287C115.769 59.8958 116.384 59.0584 117.619 58.6164C117.971 58.4405 118.457 58.3082 119.074 58.2195C119.955 58.0436 120.904 58.2646 121.919 58.8795C122.931 59.4974 123.35 61.3497 123.174 64.4332C123.085 66.3726 122.91 69.1058 122.645 72.6314C122.38 75.542 121.985 79.9937 121.454 85.9893C121.63 87.3995 121.63 89.3405 121.454 91.8076C121.012 93.4824 119.689 94.3198 117.487 94.3198C116.34 94.3198 115.239 94.0116 114.181 93.3952C113.652 91.7219 113.389 91.0138 113.389 91.2784C113.563 88.8985 113.079 85.7247 111.934 81.7572C110.962 79.7306 109.62 76.844 107.9 73.0959C106.18 69.3494 103.91 67.3423 101.09 67.0777C97.5631 66.8131 95.272 68.0038 94.2137 70.6483C93.8619 71.7955 93.3748 73.4718 92.7599 75.6743C91.7016 78.9367 91.0401 82.0669 90.7755 85.0632C90.6868 86.0344 90.5981 86.4313 90.5109 86.2539C90.7755 88.019 91.0837 89.781 91.437 91.5445C91.8775 93.7485 92.9584 95.4248 94.6767 96.569C96.3965 97.7161 99.6783 98.4197 104.528 98.6843C116.429 99.3924 123.789 103.536 126.611 111.116C127.05 111.823 127.49 113.012 127.932 114.685V114.685Z" fill="white"/>
</svg>
