<svg xmlns="http://www.w3.org/2000/svg" fill="none" viewBox="0 0 30 30" height="30" width="30">
<path stroke-linecap="round" stroke-width="2" stroke="white" d="M12 11C12 9.34315 13.3431 8 15 8C16.6569 8 18 9.34315 18 11C18 12.6569 16.6569 14 15 14C13.3431 14 12 12.6569 12 11ZM10.0331 22C9.31516 22 8.83113 21.2659 9.11393 20.6061L9.36065 20.0304C10.1485 18.192 11.9562 17 13.9564 17H16.0436C18.0438 17 19.8515 18.192 20.6393 20.0304L20.8861 20.6061C21.1689 21.2659 20.6848 22 19.9669 22H10.0331Z"></path>
</svg>
