<svg xmlns="http://www.w3.org/2000/svg" height="24" viewBox="0 96 960 960" width="24"><path d="M781.692 919.076 530.461 667.845q-30 24.769-69 38.769t-80.692 14q-102.55 0-173.582-71.014t-71.032-173.537q0-102.524 71.014-173.601 71.014-71.076 173.538-71.076 102.523 0 173.6 71.032T625.384 476q0 42.846-14.385 81.846-14.385 39-38.385 67.846l251.231 251.231-42.153 42.153Zm-400.923-258.46q77.308 0 130.962-53.654Q565.385 553.308 565.385 476q0-77.308-53.654-130.962-53.654-53.654-130.962-53.654-77.308 0-130.962 53.654Q196.154 398.692 196.154 476q0 77.308 53.653 130.962 53.654 53.654 130.962 53.654Z" fill="#cccccc"/></svg>