<svg xmlns="http://www.w3.org/2000/svg" fill="none" viewBox="0 0 30 30" height="30" width="30">
<path stroke-linecap="round" stroke-width="2" stroke="white" d="M15 11C14.4696 11 13.9609 11.2107 13.5858 11.5858C13.2107 11.9609 13 12.4696 13 13C13 13.5304 13.2107 14.0391 13.5858 14.4142C13.9609 14.7893 14.4696 15 15 15"></path>
<path stroke-width="2" stroke="white" d="M15 19C16.0609 19 17.0783 18.5786 17.8284 17.8284C18.5786 17.0783 19 16.0609 19 15C19 13.9391 18.5786 12.9217 17.8284 12.1716C17.0783 11.4214 16.0609 11 15 11"></path>
<path stroke-width="2" stroke="white" d="M15 7C13.4087 7 11.8826 7.63214 10.7574 8.75736C9.63214 9.88258 9 11.4087 9 13C9 14.5913 9.63214 16.1174 10.7574 17.2426C11.8826 18.3679 13.4087 19 15 19"></path>
<path stroke-linecap="round" stroke-width="2" stroke="white" d="M15 23C17.1217 23 19.1566 22.1571 20.6569 20.6569C22.1571 19.1566 23 17.1217 23 15C23 12.8783 22.1571 10.8434 20.6569 9.34315C19.1566 7.84286 17.1217 7 15 7"></path>
</svg>
