<?xml version="1.0" encoding="UTF-8"?>
<svg id="Layer_1" data-name="Layer 1" xmlns="http://www.w3.org/2000/svg" viewBox="0 0 20 15.29">
  <defs>
    <style>
      .cls-1 {
        fill-rule: evenodd;
      }

      .cls-1, .cls-2 {
        fill: #fff;
        stroke-width: 0px;
      }
    </style>
  </defs>
  <path class="cls-2" d="M15.61.84l-2.77-.23-1.35,2.73,1.32,3.34c.11-.22.2-.45.29-.65.09-.2.17-.42.26-.63.07-.19.27-.31.47-.3.2.02.37.17.42.37.04.21.1.44.14.66.07.32.16.65.25.97.09.36.19.72.29,1.09l.43,1.51c.04.14.01.3-.09.42-.1.11-.22.17-.36.17h-.03l-.64-.05.84,2.13.72.06c.19.01.35.15.41.33l.63,2.24,3.19.26L15.61.84ZM14.03,12.28l-.84-2.13-.19-.48-1.02-.09.53-1.15-.23-.6-1.34-3.39-.22-.58-1.87,3.75h0c.05.15.1.3.16.44l.05.17.53,1.43c.05.14.03.3-.05.43-.09.12-.23.19-.38.19h-1.63l-.15.31-1,2.01h3.98c.07,0,.15.01.2.04l.09-.17,3.59.29-.19-.48ZM6.43,13.52l-.3.61,3.1.26.39-.86h-3.2Z"/>
  <path class="cls-2" d="M15.61.84l-2.77-.23-1.35,2.73,1.32,3.34c.11-.22.2-.45.29-.65.09-.2.17-.42.26-.63.07-.19.27-.31.47-.3.2.02.37.17.42.37.04.21.1.44.14.66.07.32.16.65.25.97.09.36.19.72.29,1.09l.43,1.51c.04.14.01.3-.09.42-.1.11-.22.17-.36.17h-.03l-.64-.05.84,2.13.72.06c.19.01.35.15.41.33l.63,2.24,3.19.26L15.61.84ZM14.03,12.28l-.84-2.13-.19-.48-1.02-.09.53-1.15-.23-.6-1.34-3.39-.22-.58-1.87,3.75h0c.05.15.1.3.16.44l.05.17.53,1.43c.05.14.03.3-.05.43-.09.12-.23.19-.38.19h-1.63l-.15.31-1,2.01h3.98c.07,0,.15.01.2.04l.09-.17,3.59.29-.19-.48ZM6.43,13.52l-.3.61,3.1.26.39-.86h-3.2Z"/>
  <g>
    <path class="cls-1" d="M15.61.84l-2.77-.23-1.35,2.73,1.32,3.34c.11-.22.2-.45.29-.65.09-.2.17-.42.26-.63.07-.19.27-.31.47-.3.2.02.37.17.42.37.04.21.1.44.14.66.07.32.16.65.25.97.09.36.19.72.29,1.09l.43,1.51c.04.14.01.3-.09.42-.1.11-.22.17-.36.17h-.03l-.64-.05.84,2.13.72.06c.19.01.35.15.41.33l.63,2.24,3.19.26L15.61.84ZM14.03,12.28l-.84-2.13-.19-.48-1.02-.09.53-1.15-.23-.6-1.34-3.39-.22-.58-1.87,3.75h0c.05.15.1.3.16.44l.05.17.53,1.43c.05.14.03.3-.05.43-.09.12-.23.19-.38.19h-1.63l-.15.31-.99,2.01h3.97c.07,0,.15.01.2.04l.09-.17,3.59.29-.19-.48ZM6.43,13.52l-.3.61,3.1.26.39-.86h-3.2Z"/>
    <path class="cls-2" d="M13,9.67l-.19-.48h-.14s.07-.16.07-.16l-.23-.6-.23-.6s-.04.09-.06.13l-.66,1.43c-.06.14-.05.3.02.43s.21.21.36.22l1.26.11-.19-.48ZM13,9.67l-.19-.48h-.14s.07-.16.07-.16l-.23-.6-.23-.6s-.04.09-.06.13l-.66,1.43c-.06.14-.05.3.02.43s.21.21.36.22l1.26.11-.19-.48ZM13,9.67l-.19-.48h-.14s.07-.16.07-.16l-.23-.6-.23-.6s-.04.09-.06.13l-.66,1.43c-.06.14-.05.3.02.43s.21.21.36.22l1.26.11-.19-.48ZM13,9.67l-.19-.48h-.14s.07-.16.07-.16l-.23-.6-.23-.6s-.04.09-.06.13l-.66,1.43c-.06.14-.05.3.02.43s.21.21.36.22l1.26.11-.19-.48ZM13,9.67l-.19-.48h-.14s.07-.16.07-.16l-.23-.6-.23-.6s-.04.09-.06.13l-.66,1.43c-.06.14-.05.3.02.43s.21.21.36.22l1.26.11-.19-.48ZM13,9.67l-.19-.48h-.14s.07-.16.07-.16l-.23-.6-.23-.6s-.04.09-.06.13l-.66,1.43c-.06.14-.05.3.02.43s.21.21.36.22l1.26.11-.19-.48ZM10.7,3.87l-.23-.58-1.86,3.73c.07.2.15.39.22.6h0c.05.15.1.3.16.44l.05.17,1.88-3.78-.22-.58ZM14.03,12.28l-3.37-.27c-.19-.02-.37.09-.45.27l-.15.32h.28c.07,0,.15.01.2.04.11.05.19.14.23.26l.07.19.06-.13,3.5.28-.38-.96ZM7,10.28l-1.15,2.32h1.03l1.15-2.32h-1.03ZM13,9.67l-.19-.48h-.14s.07-.16.07-.16l-.23-.6-.23-.6s-.04.09-.06.13l-.66,1.43c-.06.14-.05.3.02.43s.21.21.36.22l1.26.11-.19-.48ZM13,9.67l-.19-.48h-.14s.07-.16.07-.16l-.23-.6-.23-.6s-.04.09-.06.13l-.66,1.43c-.06.14-.05.3.02.43s.21.21.36.22l1.26.11-.19-.48ZM13,9.67l-.19-.48h-.14s.07-.16.07-.16l-.23-.6-.23-.6s-.04.09-.06.13l-.66,1.43c-.06.14-.05.3.02.43s.21.21.36.22l1.26.11-.19-.48ZM13,9.67l-.19-.48h-.14s.07-.16.07-.16l-.23-.6-.23-.6s-.04.09-.06.13l-.66,1.43c-.06.14-.05.3.02.43s.21.21.36.22l1.26.11-.19-.48ZM13,9.67l-.19-.48h-.14s.07-.16.07-.16l-.23-.6-.23-.6s-.04.09-.06.13l-.66,1.43c-.06.14-.05.3.02.43s.21.21.36.22l1.26.11-.19-.48ZM13,9.67l-.19-.48h-.14s.07-.16.07-.16l-.23-.6-.23-.6s-.04.09-.06.13l-.66,1.43c-.06.14-.05.3.02.43s.21.21.36.22l1.26.11-.19-.48Z"/>
  </g>
  <path class="cls-2" d="M14.41,13.24l-.38-.96-.84-2.13-.19-.48-.19-.48-.06-.16-.23-.6-.23-.6-1.34-3.39-.22-.58-.23-.58-1.3-3.29h-3.08L0,15.29h3.46l.88-2.39c.06-.18.23-.3.43-.3h5.57c.07,0,.15.01.2.04.11.05.19.14.23.26l.07.19.81,2.2h3.55l-.8-2.05ZM9.53,10.09c-.09.12-.23.19-.38.19h-3.18c-.15,0-.29-.07-.37-.19-.09-.13-.11-.29-.05-.43l.59-1.6c.16-.43.3-.82.43-1.18.13-.34.26-.68.36-1,.06-.22.14-.46.21-.69.05-.2.23-.33.45-.33s.38.13.44.33c.07.23.15.47.21.7.12.34.23.68.35,1.02.01.04.02.07.03.12.07.2.15.39.22.6h0c.05.15.1.3.16.44l.05.17.53,1.43c.05.14.03.3-.05.43Z"/>
  <path class="cls-2" d="M14.41,13.24l-.38-.96-.84-2.13-.19-.48-.19-.48-.06-.16-.23-.6-.23-.6-1.34-3.39-.22-.58-.23-.58-1.3-3.29h-3.08L0,15.29h3.46l.88-2.39c.06-.18.23-.3.43-.3h5.57c.07,0,.15.01.2.04.11.05.19.14.23.26l.07.19.81,2.2h3.55l-.8-2.05ZM9.53,10.09c-.09.12-.23.19-.38.19h-3.18c-.15,0-.29-.07-.37-.19-.09-.13-.11-.29-.05-.43l.59-1.6c.16-.43.3-.82.43-1.18.13-.34.26-.68.36-1,.06-.22.14-.46.21-.69.05-.2.23-.33.45-.33s.38.13.44.33c.07.23.15.47.21.7.12.34.23.68.35,1.02.01.04.02.07.03.12.07.2.15.39.22.6h0c.05.15.1.3.16.44l.05.17.53,1.43c.05.14.03.3-.05.43Z"/>
  <path class="cls-1" d="M14.41,13.24l-.38-.96-.84-2.13-.19-.48-.19-.48-.06-.16-.23-.6-.23-.6-1.34-3.39-.22-.58-.23-.58-1.3-3.29h-3.08L0,15.29h3.46l.88-2.39c.06-.18.23-.3.43-.3h5.57c.07,0,.15.01.2.04.11.05.19.14.23.26l.07.19.81,2.2h3.55l-.8-2.05ZM9.53,10.09c-.09.12-.23.19-.38.19h-3.18c-.15,0-.29-.07-.37-.19-.09-.13-.11-.29-.05-.43l.59-1.6c.16-.43.3-.82.43-1.18.13-.34.26-.68.36-1,.06-.22.14-.46.21-.69.05-.2.23-.33.45-.33s.38.13.44.33c.07.23.15.47.21.7.12.34.23.68.35,1.02.01.04.02.07.03.12.07.2.15.39.22.6h0c.05.15.1.3.16.44l.05.17.53,1.43c.05.14.03.3-.05.43Z"/>
</svg>