<?xml version="1.0" encoding="UTF-8"?>
<svg id="Layer_1" xmlns="http://www.w3.org/2000/svg" viewBox="0 0 13 13">
  <defs>
    <style>
      .cls-1 {
        fill: #7860aa;
        fill-rule: evenodd;
      }
    </style>
  </defs>
  <path class="cls-1" d="M11.93,0h-6.85c-.6,0-1.07.47-1.07,1.07h0v6.85c0,.6.47,1.08,1.07,1.08h6.85c.6,0,1.07-.47,1.07-1.07h0V1.08c0-.6-.47-1.08-1.07-1.08Z"/>
  <path class="cls-1" d="M7.92,4H1.07c-.6,0-1.07.47-1.07,1.07h0v6.85c0,.6.47,1.08,1.07,1.08h6.85c.6,0,1.07-.47,1.07-1.07h0v-6.85c0-.6-.47-1.08-1.07-1.08Z"/>
</svg>