<?xml version="1.0" encoding="UTF-8"?>
<svg id="Layer_1" data-name="Layer 1" xmlns="http://www.w3.org/2000/svg" viewBox="0 0 1359.83 1636.37">
  <defs>
    <style>
      .cls-1 {
        fill: #3fa9f5;
      }

      .cls-2 {
        opacity: .5;
      }
    </style>
  </defs>
  <g class="cls-2">
    <path class="cls-1" d="m1210.67,1125.77c-4.99,19.36-16.15,33.07-32.29,39.6-40.67,16.43-67.62-12.52-113.98-94.3-58.8,108.95-177.21,184.09-325.59,204.56,2.51,22.39,14.43,96.64,14.43,103.95,0,28.41-7.59,29.53-10.54,30-27.75,4.04-101.68-73.7-135.61-118.94-.38-2.01-1.03-6.06-1.25-11.83-3.91-.38-7.82-.81-11.71-1.29-6.77,15.57-17.9,41.1-27.85,62.39l-10.84,30.06c-8.12,26.25-20.88,52.52-34.77,52.52-10.98.01-19.89-3.87-27.25-11.87-20.11-21.81-22.99-80.95-22.99-106.1,0-10.68.55-17.78.58-17.99l.03-.55s-.06-2.28-.06-3.12c0-4.26.35-8.27,1.01-12.04-28.75,12.44-69.9,40.06-116.33,101.09-17.86,23.48-16.27,45.38-41.44,38.65-8.39-2.25-14.56-8.41-19.59-19.62-12.04-26.71-3.16-90,11.56-130.44l2.31-6.35-5.31-4.21c-.96-.76-79.52-58.03-126.68-148.37l-19.7,23.34c-62.35,74.63-94.6,99.3-132.11,75.34-14.67-9.38-23.14-24.87-24.5-44.84-3.31-48.84,35.33-137.28,101.16-193.21,9.31-7.9,23.64-16.61,40.84-25.34,7.28-97.32,58.58-156.44,81.95-191.31l15.82-26.36c19.99-48.61-17.62-116.22-50.81-175.88-19.82-35.61-51.8-87.58-44.57-99.79,8.02-13.54,36.66.86,65.59,14.66,23.46,11.2,46.02,27.04,61.68,16.6,16.3-10.85,5.61-38.09-9.19-75.81-13.94-35.42-40.3-91.39-30.17-114.47,2.79-6.36,7.68-10.82,14.96-13.64,26.9-10.41,65.37,34.9,96.5,70.35,37.99,43.27,81.06,92.32,131.07,65.08,52.96-28.78-1.7-137.14-54.57-241.95C391.57,107.05,340.02,10.26,356.76,1.18c32.41-17.56,187.21,165.12,249.97,238.75l63.98,72.87s45.72,56.1,80.72,93.11c.62.64,33.71-4.5,56.57-23.5,18.63-15.54,16.16-32.95,22.1-69.52,5.45-33.61,11.36-94.43,29.39-94.74,27.17-.41,45.03,111.57,52,153.06l3.84,22.18c9.12,49.35,56.73,197.69,58.77,203.98.65,1.53,1.73,3.53,1.73,3.53l.4.79.54.67c66.85,82.92,118.13,181.88,126.84,277.04,18.67,13.71,33.99,26.95,42.92,37.92,54.52,67.05,76.32,161.09,64.16,208.45Z"/>
  </g>
  <g class="cls-2">
    <path class="cls-1" d="m1356.56,1339.65c-4.99,19.36-16.15,33.07-32.29,39.6-40.67,16.43-67.62-12.52-113.98-94.3-58.8,108.95-177.21,184.09-325.59,204.56,2.51,22.39,14.43,96.64,14.43,103.95,0,28.41-7.59,29.53-10.54,30-27.75,4.04-101.68-73.7-135.61-118.94-.38-2.01-1.03-6.06-1.25-11.83-3.91-.38-7.82-.81-11.71-1.29-6.77,15.57-17.9,41.1-27.85,62.39l-10.84,30.06c-8.12,26.25-20.88,52.52-34.77,52.52-10.98.01-19.89-3.87-27.25-11.87-20.11-21.81-22.99-80.95-22.99-106.1,0-10.68.55-17.78.58-17.99l.03-.55s-.06-2.28-.06-3.12c0-4.26.35-8.27,1.01-12.04-28.75,12.44-69.9,40.06-116.33,101.09-17.86,23.48-16.27,45.38-41.44,38.65-8.39-2.25-14.56-8.41-19.59-19.62-12.04-26.71-3.16-90,11.56-130.44l2.31-6.35-5.31-4.21c-.96-.76-79.52-58.03-126.68-148.37l-19.7,23.34c-62.35,74.63-94.6,99.3-132.11,75.34-14.67-9.38-23.14-24.87-24.5-44.84-3.31-48.84,35.33-137.28,101.16-193.21,9.31-7.9,23.64-16.61,40.84-25.34,7.28-97.32,58.58-156.44,81.95-191.31l15.82-26.36c19.99-48.61-17.62-116.22-50.81-175.88-19.82-35.61-51.8-87.58-44.57-99.79,8.02-13.54,36.66.86,65.59,14.66,23.46,11.2,46.02,27.04,61.68,16.6,16.3-10.85,5.61-38.09-9.19-75.81-13.94-35.42-40.3-91.39-30.17-114.47,2.79-6.36,7.68-10.82,14.96-13.64,26.9-10.41,65.37,34.9,96.5,70.35,37.99,43.27,81.06,92.32,131.07,65.08,52.96-28.78-1.7-137.14-54.57-241.95-28.89-57.32-80.44-154.11-63.7-163.18,32.41-17.56,187.21,165.12,249.97,238.75l63.98,72.87s45.72,56.1,80.72,93.11c.62.64,33.71-4.5,56.57-23.5,18.63-15.54,16.16-32.95,22.1-69.52,5.45-33.61,11.36-94.43,29.39-94.74,27.17-.41,45.03,111.57,52,153.06l3.84,22.18c9.12,49.35,56.73,197.69,58.77,203.98.65,1.53,1.73,3.53,1.73,3.53l.4.79.54.67c66.85,82.92,118.13,181.88,126.84,277.04,18.67,13.71,33.99,26.95,42.92,37.92,54.52,67.05,76.32,161.09,64.16,208.45Z"/>
  </g>
</svg>