<?xml version="1.0" encoding="UTF-8"?>
<svg id="Layer_1" data-name="Layer 1" xmlns="http://www.w3.org/2000/svg" viewBox="0 0 1532.61 700">
  <defs>
    <style>
      .cls-1 {
        fill: #231f20;
        isolation: isolate;
        opacity: .1;
      }

      .cls-1, .cls-2, .cls-3, .cls-4, .cls-5, .cls-6, .cls-7, .cls-8, .cls-9, .cls-10, .cls-11, .cls-12, .cls-13, .cls-14, .cls-15 {
        stroke-width: 0px;
      }

      .cls-2 {
        fill-rule: evenodd;
      }

      .cls-2, .cls-13 {
        fill: #fff;
      }

      .cls-3 {
        fill: #f3f8ff;
      }

      .cls-4 {
        fill: #4cbf56;
      }

      .cls-5 {
        fill: #4c97ff;
      }

      .cls-6 {
        fill: #45993d;
      }

      .cls-7 {
        fill: #3373cc;
      }

      .cls-8 {
        fill: #c94fc9;
      }

      .cls-9 {
        fill: #c90;
      }

      .cls-10 {
        fill: #d3deec;
      }

      .cls-11 {
        fill: #bd42bd;
      }

      .cls-12 {
        fill: #cf63cf;
      }

      .cls-14 {
        fill: #ff9f00;
      }

      .cls-15 {
        fill: #ffbf00;
      }
    </style>
  </defs>
  <g>
    <g>
      <path class="cls-3" d="m1319.5,451.88c0-56.21,45.57-101.78,101.78-101.78s101.78,45.57,101.78,101.78-45.57,101.78-101.78,101.78-101.78-45.57-101.78-101.78Z"/>
      <path class="cls-10" d="m1421.28,563.21c-61.39,0-111.33-49.94-111.33-111.33s49.94-111.33,111.33-111.33,111.33,49.94,111.33,111.33-49.94,111.33-111.33,111.33Zm0-203.56c-50.86,0-92.24,41.38-92.24,92.24s41.38,92.23,92.24,92.23,92.24-41.38,92.24-92.23-41.38-92.24-92.24-92.24Z"/>
    </g>
    <g>
      <path class="cls-3" d="m1256.32,386.37c0-56.21,45.57-101.78,101.78-101.78s101.78,45.57,101.78,101.78-45.57,101.78-101.78,101.78-101.78-45.57-101.78-101.78Z"/>
      <path class="cls-10" d="m1358.11,494.51c-59.63,0-108.15-48.51-108.15-108.15s48.51-108.15,108.15-108.15,108.14,48.51,108.14,108.15-48.51,108.15-108.14,108.15Zm0-203.56c-52.61,0-95.42,42.8-95.42,95.42s42.81,95.42,95.42,95.42,95.42-42.81,95.42-95.42-42.8-95.42-95.42-95.42Z"/>
    </g>
    <g>
      <path class="cls-3" d="m1232.92,524.42c0-56.21,45.57-101.78,101.78-101.78s101.78,45.57,101.78,101.78-45.57,101.78-101.78,101.78-101.78-45.57-101.78-101.78h0Z"/>
      <path class="cls-10" d="m1334.71,635.75c-61.39,0-111.33-49.94-111.33-111.33s49.94-111.33,111.33-111.33,111.33,49.94,111.33,111.33-49.94,111.33-111.33,111.33Zm0-203.57c-50.86,0-92.24,41.38-92.24,92.24s41.38,92.24,92.24,92.24,92.24-41.38,92.24-92.24-41.38-92.24-92.24-92.24Z"/>
    </g>
    <g>
      <path class="cls-3" d="m1087.85,470.6c0-56.21,45.57-101.78,101.78-101.78s101.78,45.57,101.78,101.78-45.57,101.78-101.78,101.78-101.78-45.57-101.78-101.78Z"/>
      <path class="cls-10" d="m1189.63,581.93c-61.39,0-111.33-49.94-111.33-111.33s49.94-111.33,111.33-111.33,111.33,49.94,111.33,111.33-49.94,111.33-111.33,111.33Zm0-203.57c-50.86,0-92.24,41.38-92.24,92.24s41.38,92.24,92.24,92.24,92.24-41.38,92.24-92.24-41.38-92.24-92.24-92.24Z"/>
    </g>
    <g>
      <path class="cls-3" d="m1001.27,554.84c0-56.21,45.57-101.78,101.78-101.78s101.78,45.57,101.78,101.78-45.57,101.78-101.78,101.78-101.78-45.57-101.78-101.78Z"/>
      <path class="cls-10" d="m1103.05,666.17c-61.39,0-111.33-49.94-111.33-111.33s49.94-111.33,111.33-111.33,111.33,49.94,111.33,111.33-49.94,111.33-111.33,111.33Zm0-203.57c-50.86,0-92.23,41.38-92.23,92.24s41.38,92.24,92.23,92.24,92.24-41.38,92.24-92.24-41.38-92.24-92.24-92.24Z"/>
    </g>
    <g>
      <path class="cls-3" d="m842.16,468.26c0-87.23,70.71-157.94,157.94-157.94s157.94,70.71,157.94,157.94-70.71,157.94-157.94,157.94-157.94-70.71-157.94-157.94h0Z"/>
      <path class="cls-10" d="m1000.1,635.75c-92.35,0-167.49-75.13-167.49-167.49s75.13-167.49,167.49-167.49,167.49,75.13,167.49,167.49-75.13,167.49-167.49,167.49Zm0-315.88c-81.82,0-148.39,66.57-148.39,148.39s66.57,148.4,148.39,148.4,148.39-66.57,148.39-148.4-66.57-148.39-148.39-148.39Z"/>
    </g>
    <path class="cls-3" d="m1319.5,451.88c0-56.21,45.57-101.78,101.78-101.78s101.78,45.57,101.78,101.78-45.57,101.78-101.78,101.78-101.78-45.57-101.78-101.78Z"/>
    <path class="cls-3" d="m1256.32,386.37c0-56.21,45.57-101.78,101.78-101.78s101.78,45.57,101.78,101.78-45.57,101.78-101.78,101.78-101.78-45.57-101.78-101.78Z"/>
    <path class="cls-3" d="m1232.92,524.42c0-56.21,45.57-101.78,101.78-101.78s101.78,45.57,101.78,101.78-45.57,101.78-101.78,101.78-101.78-45.57-101.78-101.78h0Z"/>
    <path class="cls-3" d="m1087.85,470.6c0-56.21,45.57-101.78,101.78-101.78s101.78,45.57,101.78,101.78-45.57,101.78-101.78,101.78-101.78-45.57-101.78-101.78Z"/>
    <path class="cls-3" d="m1001.27,554.84c0-56.21,45.57-101.78,101.78-101.78s101.78,45.57,101.78,101.78-45.57,101.78-101.78,101.78-101.78-45.57-101.78-101.78Z"/>
    <path class="cls-10" d="m1448.85,399.5l-9.43-1.44c1.46-9.57-.72-17.57-6.49-23.78-5.54-5.97-14.15-9.99-24.88-11.64-20.45-3.12-39.59,10.95-42.71,31.37l-9.43-1.44c3.92-25.63,27.98-43.31,53.59-39.37,12.88,1.97,23.41,7.01,30.43,14.57,7.74,8.34,10.83,19.31,8.93,31.72Z"/>
    <path class="cls-10" d="m1329.09,558.27c-.77-9.97,2.38-19.65,8.89-27.24,6.5-7.6,15.58-12.2,25.55-12.97,20.66-1.64,38.62,13.85,40.22,34.43l-9.52.74c-1.19-15.33-14.68-26.83-29.96-25.65-7.43.57-14.19,4.01-19.03,9.67s-7.2,12.87-6.62,20.29l-9.52.74Z"/>
    <path class="cls-10" d="m978.68,593.77l-6.16-1.6c4.62-17.71-6.03-35.87-23.74-40.49-17.69-4.62-35.87,6.03-40.49,23.74l-6.16-1.6c5.51-21.1,27.16-33.79,48.25-28.29,10.22,2.67,18.8,9.15,24.14,18.27,5.34,9.11,6.82,19.76,4.15,29.98Z"/>
    <path class="cls-3" d="m842.16,468.26c0-87.23,70.71-157.94,157.94-157.94s157.94,70.71,157.94,157.94-70.71,157.94-157.94,157.94-157.94-70.71-157.94-157.94h0Z"/>
    <path class="cls-10" d="m880.51,485.46l-9.39-1.71c5.91-32.52,14.54-54.33,39.25-62.56,11.91-3.97,24.67-3.07,35.9,2.55,11.23,5.62,19.61,15.27,23.58,27.19l-9.06,3.02c-3.17-9.5-9.84-17.19-18.79-21.67-8.96-4.48-19.12-5.2-28.61-2.03-17.95,5.99-26.56,20.43-32.88,55.22Z"/>
    <g>
      <g>
        <path class="cls-15" d="m887.93,104.49c68.45-74.85,207.73-90.01,290.68-31.64l142.31-15.49c6.69-.73,12.7,4.1,13.43,10.79l13.18,121.12c.73,6.69-4.1,12.7-10.79,13.43l-287.65,31.31c-6.06.66-8.75,4.02-11.45,7.37l-10.79,13.43c-2.7,3.36-5.4,6.71-11.45,7.37l-36.34,3.95c-6.06.66-9.41-2.04-12.77-4.74l-13.43-10.79c-3.36-2.7-6.71-5.4-12.77-4.74l-24.22,2.64c-6.69.73-12.7-4.1-13.43-10.79l-14.5-133.23Z"/>
        <path class="cls-9" d="m977.27,269.42c-6.1,0-9.88-3.04-12.98-5.54l-13.43-10.79c-3.18-2.55-5.69-4.57-10.43-4.05l-24.22,2.64c-4.09.45-8.09-.73-11.29-3.3-3.2-2.57-5.21-6.23-5.65-10.31l-14.66-134.66.97-1.06c69.5-76,209.22-91.47,293.87-32.78l141.12-15.36c8.5-.9,16.03,5.19,16.94,13.61l13.18,121.12c.92,8.42-5.19,16.02-13.61,16.94l-287.65,31.31c-4.75.52-6.76,3.02-9.31,6.2l-10.8,13.43c-2.77,3.45-6.22,7.74-13.59,8.54l-36.34,3.95c-.74.08-1.45.12-2.13.12Zm-35.42-26.83c6.09,0,9.88,3.04,12.99,5.54l13.43,10.8c3.18,2.55,5.69,4.58,10.43,4.05l36.34-3.95c4.74-.52,6.76-3.03,9.31-6.2l10.8-13.43c2.78-3.45,6.22-7.74,13.59-8.54l287.65-31.31c4.94-.54,8.51-4.99,7.97-9.92l-13.18-121.12c-.53-4.93-4.97-8.51-9.92-7.97l-143.51,15.62-.98-.69c-81.76-57.54-217.42-43.09-285.53,30.13l14.34,131.79c.26,2.39,1.44,4.54,3.31,6.04,1.87,1.51,4.23,2.19,6.61,1.93l24.22-2.64c.74-.08,1.44-.12,2.12-.12Z"/>
      </g>
      <g>
        <path class="cls-5" d="m905.06,261.94c-.73-6.69,4.1-12.7,10.79-13.43l24.22-2.64c6.06-.66,9.41,2.04,12.77,4.74l13.43,10.79c3.36,2.7,6.71,5.4,12.77,4.74l36.34-3.95c6.06-.66,8.75-4.02,11.45-7.37l10.79-13.43c2.7-3.36,5.4-6.71,11.45-7.37l432.99-47.13c6.69-.73,12.7,4.1,13.43,10.79l13.18,121.12c.73,6.69-4.1,12.7-10.79,13.43l-432.99,47.13c-6.06.66-8.75,4.02-11.45,7.37l-10.79,13.43c-2.7,3.36-5.4,6.72-11.45,7.37l-36.34,3.95c-6.06.66-9.41-2.04-12.77-4.74l-13.43-10.79c-3.36-2.7-6.71-5.4-12.77-4.74l-24.22,2.64c-6.69.73-12.7-4.1-13.43-10.79l-13.18-121.12Z"/>
        <path class="cls-7" d="m993.09,414.77c-6.09,0-9.88-3.04-12.99-5.54l-13.43-10.79c-3.18-2.56-5.67-4.58-10.43-4.06l-24.22,2.64c-8.47.93-16.02-5.19-16.94-13.61l-13.18-121.12c-.44-4.08.73-8.09,3.3-11.29,2.57-3.2,6.23-5.21,10.31-5.65l24.22-2.64c7.36-.79,11.66,2.65,15.11,5.42l13.43,10.8c3.18,2.55,5.69,4.58,10.43,4.05l36.34-3.95c4.74-.52,6.76-3.03,9.31-6.2l10.8-13.43c2.78-3.45,6.22-7.74,13.59-8.54l432.99-47.13c4.1-.45,8.09.73,11.29,3.3,3.2,2.57,5.21,6.24,5.65,10.32l13.18,121.11c.44,4.08-.72,8.09-3.3,11.29-2.57,3.2-6.23,5.21-10.31,5.65l-432.99,47.13c-4.75.52-6.76,3.03-9.32,6.2l-10.79,13.43c-2.78,3.46-6.23,7.74-13.59,8.55l-36.33,3.95c-.74.08-1.45.12-2.12.12Zm-35.42-26.83c6.1,0,9.88,3.05,12.99,5.54l13.43,10.79c3.18,2.55,5.71,4.58,10.43,4.05l36.34-3.95c4.74-.52,6.76-3.02,9.31-6.2l10.8-13.44c2.77-3.45,6.22-7.74,13.59-8.55l432.99-47.13c2.39-.26,4.54-1.44,6.04-3.31,1.5-1.87,2.19-4.22,1.93-6.61l-13.18-121.12c-.26-2.39-1.44-4.54-3.31-6.04-1.87-1.5-4.22-2.19-6.61-1.93l-432.99,47.13c-4.74.52-6.76,3.02-9.31,6.2l-10.8,13.43c-2.77,3.45-6.22,7.74-13.59,8.54l-36.34,3.95c-7.37.81-11.66-2.65-15.11-5.42l-13.43-10.79c-3.18-2.55-5.69-4.57-10.43-4.05l-24.22,2.64c-4.94.54-8.51,4.99-7.97,9.92l13.18,121.12c.54,4.94,4.99,8.52,9.92,7.98l24.22-2.64c.74-.08,1.45-.12,2.12-.12Z"/>
      </g>
      <g>
        <path class="cls-13" d="m1156.14,344.91c-26.76,2.91-50.81-16.42-53.72-43.17h0c-2.91-26.76,16.42-50.81,43.17-53.72l78.73-8.57c26.76-2.91,50.81,16.42,53.72,43.17h0c2.91,26.76-16.42,50.81-43.17,53.72l-78.73,8.57Z"/>
        <path class="cls-7" d="m1150.76,348.39c-11.78,0-23.11-3.97-32.42-11.45-10.81-8.69-17.59-21.06-19.09-34.85s2.46-27.33,11.14-38.14c8.69-10.81,21.06-17.59,34.85-19.09l78.73-8.57c28.46-3.1,54.13,17.54,57.23,45.99,1.5,13.79-2.46,27.33-11.14,38.14-8.69,10.81-21.06,17.59-34.85,19.09l-78.73,8.57-.34-3.16.34,3.16c-1.91.21-3.82.31-5.72.31Zm78.86-106.04c-1.64,0-3.3.09-4.96.27l-78.73,8.57c-24.97,2.72-43.07,25.24-40.35,50.21,1.32,12.1,7.26,22.95,16.75,30.58,9.48,7.62,21.37,11.11,33.46,9.78l78.73-8.57c12.1-1.32,22.96-7.27,30.58-16.75,7.62-9.48,11.09-21.37,9.78-33.46-2.54-23.3-22.33-40.63-45.25-40.63Z"/>
      </g>
      <g>
        <path class="cls-13" d="m1355.98,323.16c-26.76,2.91-50.81-16.42-53.72-43.17h0c-2.91-26.76,16.42-50.81,43.17-53.72l78.73-8.57c26.76-2.91,50.81,16.42,53.72,43.17h0c2.91,26.76-16.42,50.81-43.17,53.72l-78.73,8.57Z"/>
        <path class="cls-7" d="m1350.6,326.63c-11.77,0-23.11-3.97-32.42-11.45-10.81-8.69-17.59-21.06-19.09-34.85-3.1-28.46,17.54-54.13,45.99-57.23l78.72-8.57c28.47-3.11,54.13,17.54,57.23,45.99,1.5,13.79-2.46,27.33-11.14,38.14-8.69,10.81-21.06,17.59-34.85,19.09l-78.73,8.57c-1.91.21-3.82.31-5.72.31Zm78.86-106.04c-1.64,0-3.29.09-4.96.27l-78.72,8.57c-24.97,2.72-43.07,25.24-40.36,50.21,1.32,12.1,7.27,22.95,16.75,30.58,9.49,7.62,21.41,11.09,33.46,9.78l78.73-8.57c12.1-1.32,22.96-7.26,30.58-16.75,7.62-9.48,11.1-21.37,9.78-33.46-2.54-23.3-22.33-40.63-45.25-40.63Z"/>
      </g>
      <g>
        <path class="cls-12" d="m920.88,407.28c-.73-6.69,4.1-12.7,10.79-13.43l24.22-2.64c6.06-.66,9.41,2.04,12.77,4.74l13.43,10.79c3.36,2.7,6.71,5.4,12.77,4.74l36.34-3.95c6.06-.66,8.75-4.02,11.45-7.37l10.79-13.43c2.7-3.36,5.4-6.71,11.45-7.37l311.88-33.95c6.69-.73,12.7,4.1,13.43,10.79l13.18,121.12c.73,6.69-4.1,12.7-10.79,13.43l-311.88,33.95c-6.06.66-8.75,4.02-11.45,7.37l-10.79,13.43c-2.7,3.36-5.4,6.71-11.45,7.37l-36.34,3.95c-6.06.66-9.41-2.04-12.77-4.74l-13.43-10.79c-3.36-2.7-6.71-5.4-12.77-4.74l-24.22,2.64c-6.69.73-12.7-4.1-13.43-10.79l-13.18-121.12Z"/>
        <path class="cls-11" d="m1008.91,560.11c-6.09,0-9.88-3.04-12.99-5.54l-13.43-10.79c-3.18-2.56-5.69-4.6-10.43-4.06l-24.22,2.64c-4.08.45-8.09-.73-11.29-3.3-3.2-2.57-5.21-6.23-5.65-10.31l-13.18-121.12c-.44-4.08.73-8.09,3.3-11.29,2.57-3.2,6.24-5.21,10.32-5.65l24.22-2.64c7.37-.81,11.66,2.65,15.11,5.42l13.43,10.79c3.18,2.55,5.71,4.58,10.43,4.05l36.34-3.95c4.74-.52,6.76-3.02,9.31-6.2l10.8-13.44c2.78-3.46,6.23-7.74,13.59-8.55l311.88-33.95c4.09-.45,8.09.73,11.29,3.3,3.2,2.57,5.21,6.23,5.65,10.31l13.18,121.12c.44,4.08-.72,8.09-3.3,11.29-2.57,3.2-6.23,5.21-10.31,5.65l-311.88,33.95c-4.75.52-6.76,3.03-9.32,6.2l-10.79,13.43c-2.78,3.46-6.23,7.74-13.59,8.55l-36.34,3.95c-.74.08-1.45.12-2.12.12Zm-35.42-26.83c6.1,0,9.88,3.05,12.99,5.54l13.43,10.79c3.18,2.55,5.72,4.58,10.43,4.05l36.34-3.95c4.74-.52,6.76-3.02,9.32-6.2l10.8-13.43c2.77-3.45,6.22-7.74,13.59-8.55l311.88-33.95c2.39-.26,4.54-1.44,6.04-3.31,1.5-1.87,2.19-4.22,1.93-6.61l-13.18-121.12c-.26-2.39-1.44-4.53-3.31-6.04-1.87-1.51-4.21-2.21-6.61-1.93l-311.88,33.95c-4.74.52-6.76,3.02-9.31,6.2l-10.8,13.44c-2.78,3.46-6.23,7.74-13.59,8.55l-36.34,3.95c-7.36.82-11.66-2.64-15.11-5.42l-13.43-10.79c-3.18-2.56-5.67-4.58-10.43-4.06l-24.22,2.64c-2.39.26-4.54,1.44-6.04,3.31s-2.19,4.22-1.93,6.61l13.18,121.12c.26,2.39,1.44,4.54,3.31,6.04,1.88,1.51,4.23,2.21,6.61,1.93l24.22-2.64c.74-.08,1.45-.12,2.12-.12Z"/>
      </g>
      <g>
        <path class="cls-8" d="m1190.12,488.27c-26.76,2.91-50.81-16.42-53.72-43.17h0c-2.91-26.76,16.42-50.81,43.17-53.72l139.28-15.16c26.76-2.91,50.81,16.42,53.72,43.17h0c2.91,26.76-16.42,50.81-43.17,53.72l-139.28,15.16Z"/>
        <path class="cls-11" d="m1184.75,491.75c-11.78,0-23.11-3.97-32.42-11.45-10.81-8.69-17.59-21.06-19.09-34.85s2.46-27.33,11.14-38.14c8.69-10.81,21.06-17.59,34.85-19.09l139.28-15.16c28.46-3.08,54.13,17.53,57.23,45.99,3.1,28.46-17.54,54.13-45.99,57.23l-139.28,15.16c-1.91.21-3.82.31-5.72.31Zm139.41-112.64c-1.64,0-3.29.09-4.96.27l-139.28,15.16c-12.1,1.32-22.95,7.27-30.58,16.75-7.62,9.48-11.09,21.37-9.78,33.46,1.32,12.1,7.26,22.96,16.75,30.58,9.48,7.62,21.35,11.1,33.46,9.78l139.28-15.16c24.97-2.72,43.07-25.25,40.36-50.21-2.54-23.3-22.33-40.62-45.25-40.62Z"/>
      </g>
      <g>
        <path class="cls-6" d="m1034.02,123.82l4.45,40.89c.19,1.78-.11,3.16-1.34,4.19-11.33,11.58-29.56,13.56-43.56,4.74-4.83-3.07-10.36-4.27-15.69-3.69-5.73,1.07-10.38,3.83-14.48,7.42l3.1,28.45c.24,2.22-1.74,4.69-3.96,4.93l-.44.05c-2.22.24-4.69-1.74-4.93-3.96l-9.1-83.56c-.29-2.67,1.74-4.69,3.96-4.93,2.22-.24,4.64,1.29,4.93,3.96l.19,1.78c11.37-7.08,26.23-6.9,37.38.43,9.66,6.14,22.11,4.79,30.22-3.29,1.19-1.48,3.36-2.16,5.24-1.47,2.27.2,3.8,1.84,4.04,4.06h0Zm-4.44.48l-.49-.4-.89.1c-9.75,9.61-24.42,11.2-36,3.92-10.6-6.49-24.08-6.37-34.51,1.06l4.69,43.11c4.6-3.2,9.29-5.51,14.58-6.53,6.67-.73,13.13.82,18.46,4.29,12.08,7.68,28.08,5.94,38.18-4.6l-4.01-40.94Z"/>
        <path class="cls-4" d="m1029.63,124.75l3.96,40.5.05.44c-10.14,10.1-26.15,11.84-38.22,4.16-5.32-3.47-11.79-5.01-18.46-4.29-5.29,1.03-9.98,3.34-14.58,6.53l-4.69-43.11c10.43-7.43,23.91-7.55,34.51-1.06,5.19,3.26,11,4.74,16.7,4.52,7.03-.27,13.92-3.14,19.3-8.44l.89-.1c.05.44.49.4.54.84Z"/>
      </g>
      <g>
        <path class="cls-1" d="m1344.65,420.07c.21,1.84-.33,3.69-1.49,5.14l-9.99,12.42c-2.44,3-6.84,3.48-9.86,1.07l-12.4-9.99c-1.46-1.15-2.39-2.84-2.59-4.69-.2-1.85.34-3.7,1.49-5.17.75-.78,1.84-2.25,15.93-3.79s15.55-.36,16.34.27c1.45,1.17,2.37,2.87,2.57,4.72h0Z"/>
        <path class="cls-13" d="m1327.89,436.95c-1.07.11-2.15-.21-2.99-.89l-12.48-9.98c-1.71-1.43-1.99-3.95-.62-5.72,1.43-1.77,26.44-4.5,28.21-3.07,1.71,1.43,1.99,3.95.62,5.72l-9.99,12.42c-.68.85-1.67,1.4-2.76,1.51h0Z"/>
      </g>
    </g>
    <g>
      <path class="cls-3" d="m990.33,569.98c-7.35-55.73,31.87-106.87,87.6-114.22,55.73-7.35,106.87,31.87,114.22,87.6"/>
      <path class="cls-10" d="m985.59,570.6c-3.72-28.22,3.77-56.2,21.09-78.78,17.32-22.59,42.4-37.07,70.62-40.79,58.27-7.65,111.89,33.46,119.57,91.71l-9.47,1.25c-7-53.03-55.83-90.48-108.86-83.49-25.69,3.39-48.52,16.58-64.29,37.14-15.77,20.56-22.59,46.03-19.2,71.72l-9.47,1.25Z"/>
    </g>
    <path class="cls-3" d="m1306.31,507.98s25.63-25.7,42.77-32.55c9.17-3.67,31.6-6.59,48.01-10.1,14.1-3.01,23.09-6.89,23.09-6.89v49.54h-113.87Z"/>
    <g>
      <path class="cls-3" d="m1281.29,515.67s25.28-23.15,41.06-35.22c26.98-20.64,63.02-1.19,98.84-29.07"/>
      <path class="cls-10" d="m1281.29,520.44c-1.29,0-2.58-.52-3.52-1.55-1.78-1.94-1.65-4.96.3-6.74,1.04-.95,25.62-23.43,41.39-35.49,13.61-10.42,28.81-11.44,44.89-12.53,17.61-1.19,35.81-2.42,53.92-16.51,2.08-1.62,5.08-1.25,6.7.84,1.62,2.08,1.25,5.08-.84,6.7-20.41,15.89-40.99,17.28-59.14,18.5-15.24,1.03-28.4,1.92-39.73,10.59-15.43,11.81-40.49,34.72-40.74,34.95-.92.84-2.07,1.25-3.22,1.25Z"/>
    </g>
  </g>
  <g>
    <circle class="cls-14" cx="350" cy="350" r="350"/>
    <g>
      <path class="cls-2" d="m578.05,386.37l58.12-49.2-15.14-79.22-71.92-24.6-12.17-18.92,6.22-75.7-66.78-45.42-68.13,33.25-22.17-4.6-48.94-58.13-79.48,15.14-24.6,71.92-18.92,12.44-75.7-6.49-45.42,66.78,33.53,68.13-4.86,22.17-57.86,48.94,14.87,79.48,71.92,24.6,12.43,18.92-6.49,75.7,66.78,45.42,68.13-33.53,22.17,4.86,49.2,57.86,79.22-14.87,24.6-71.92,18.92-12.43,75.7,6.49,45.42-66.78-33.26-68.13,4.6-22.17h0Zm-118.15,40.01c-13.52,37.04-50.02,59.75-108.41,67.05-2.7.27-5.41.54-8.11.81-3.25,4.86-7.84,9.19-12.98,12.44-13.79,8.92-26.49,13.25-39.2,13.25-26.22,0-54.07-19.47-54.07-62.18,0-2.97,0-6.76.27-11.89.27-2.44.27-4.06.27-5.41-.54-3.25-1.08-6.49-1.08-9.73v-20.28c0-3.25.27-6.49,1.08-9.73,0-2.97,0-5.95.27-9.46-.81-3.51-1.62-7.84-1.62-12.44,0-2.16,0-4.32.27-6.49,1.62-11.36,6.76-22.44,15.14-31.36-2.97-8.11-4.6-16.49-4.6-25.15v-21.36c0-8.38,1.89-19.2,10.27-45.96,3.51-11.36,4.6-14.87,5.95-18.38,8.38-18.38,20.55-27.58,29.74-31.9,14.6-7.57,30.28-11.08,46.77-11.08,7.57,0,14.6.81,21.63,2.16,2.97-2.16,6.22-3.78,9.73-5.14,4.6-1.89,9.19-3.25,14.6-4.06,12.98-2.44,26.77.54,38.93,7.84,12.71,7.57,27.31,23.79,25.41,56.78-.27,5.68-.81,13.52-1.62,23.52v.81c-.54,7.3-1.62,18.38-2.97,32.98.54,5.41.27,11.9-.27,19.19-.27,2.7-.54,5.68-1.35,8.38-.27.54-.27,1.35-.54,1.89,5.68,7.03,9.46,14.33,12.17,20.55,2.44,4.86,4.6,10.55,6.22,17.57.81,2.7,1.35,5.14,1.35,7.84,1.89,23.52,1.08,37.31-3.25,48.94h0Z"/>
      <path class="cls-13" d="m416.91,410.43c-.54,1.35-1.08,2.44-1.89,3.79-8.38,17.85-31.63,29.2-69.48,33.79-13.52,1.89-27.31-4.6-40.83-19.19,0,2.16.54,8.65,1.35,19.73.81,8.11.54,14.6-.27,19.73-6.22,3.79-11.09,5.95-14.6,5.95-5.68,0-8.38-5.68-8.38-16.49,0-2.16,0-5.13.27-9.46.27-4.32.27-7.3.27-8.92,0-4.06-.27-7.03-1.08-8.65v-20.28c0-.27,0-.81.27-1.08,0-.27.27-.27.27-.54.27-.54.27-1.08.54-1.62-.27-3.51,0-8.65.54-15.68.54-4.33.54-7.3,0-8.38-1.35-2.44-1.89-4.06-1.89-4.33,1.08-7.03,5.95-10.27,14.87-10.27,5.95,0,9.46,1.89,10.81,6.22,0,3.78.27,9.46,1.35,17.03,1.35,8.92,6.22,17.57,13.79,26.49,8.65,10,16.76,14.6,24.6,13.79,8.92-1.08,17.57-2.98,26.22-6.22,12.43-4.32,19.73-9.46,22.17-15.41,1.62-4.32,2.44-8.92,2.44-13.79,0-14.87-5.41-25.96-16.49-33.26-4.86-3.25-13.79-5.68-27.03-7.84-7.57-.81-12.17-1.35-13.79-1.35-11.9.27-22.71-3.51-32.71-11.36-10.27-7.84-15.14-16.76-15.14-27.03v-21.36c0-2.7.81-7.3,2.44-14.33,1.35-4.87,3.25-10.81,5.41-18.11,2.43-8.11,3.78-12.17,4.06-12.71,2.16-5.14,5.14-8.65,8.38-10.27,8.38-4.06,17.03-6.22,26.5-6.22,17.84,0,31.36,7.3,39.74,21.9.81.81,1.89,1.89,3.79,3.25.27-3.25.54-8.65,1.35-15.68-.27-3.25-.54-6.22-.81-9.19,0-3.25,1.89-5.68,5.13-7.03,1.08-.27,2.44-.81,4.06-1.08,2.44-.27,5.14.27,7.84,1.89,2.98,1.89,4.06,6.76,3.51,15.41-.27,5.41-.81,12.98-1.35,22.71-.27,3.25-.81,7.3-1.08,11.9-.81,6.76-1.35,15.14-2.44,24.87.54,4.06.54,9.46,0,16.22-1.08,4.6-4.86,7.03-10.81,7.03-3.25,0-6.22-.81-9.19-2.7-1.08-3.79-1.89-5.95-2.16-5.95.54-6.76-.81-15.41-4.06-26.22-2.7-5.68-6.49-13.52-11.09-23.79-.81-1.89-1.89-3.79-2.7-5.14-4.6-7.3-9.73-11.09-16.22-11.62-9.73-.81-15.95,2.7-18.92,10-.54,1.62-1.35,3.79-2.16,6.22-.54,2.16-1.08,4.6-1.89,7.57-2.97,8.92-4.86,17.57-5.41,25.95-.27,2.16-.54,3.51-.81,3.51.81,4.86,1.62,9.46,2.43,14.33,1.35,6.22,4.33,10.81,9.19,14.06,4.6,2.98,13.79,5.14,27.03,5.68,32.98,2.16,53.26,13.52,61.1,34.33,1.35,2.16,2.43,5.41,3.79,10,1.08,15.14.81,24.87-.81,29.2h0Z"/>
    </g>
  </g>
</svg>