<?xml version="1.0" encoding="utf-8"?>
<!-- Generator: Adobe Illustrator 28.0.0, SVG Export Plug-In . SVG Version: 6.00 Build 0)  -->
<svg version="1.1" id="Layer_1" xmlns="http://www.w3.org/2000/svg" xmlns:xlink="http://www.w3.org/1999/xlink" x="0px" y="0px"
	 viewBox="0 0 24 24" style="enable-background:new 0 0 24 24;" xml:space="preserve">
<style type="text/css">
	.st0{fill:#5F6368;}
</style>
<path class="st0" d="M14,16.1v2c0,0.3-0.1,0.5-0.3,0.7l-0.4,0.4c-0.4,0.4-1,0.4-1.4,0l-2.1-2.1c-0.4-0.4-1-0.4-1.4,0l-3.2,3.2
	c-0.2,0.2-0.4,0.3-0.7,0.3h0c-0.6,0-1-0.4-1-1v0c0-0.3,0.1-0.5,0.3-0.7l3.2-3.2c0.4-0.4,0.4-1,0-1.4l-2.1-2.1c-0.4-0.4-0.4-1,0-1.4
	l0.4-0.4C5.4,10.1,5.6,10,5.9,10h2c0.3,0,0.5-0.1,0.7-0.3l4.7-4.7l-0.7-0.7l0.7-0.7c0.4-0.4,1-0.4,1.4,0l5.7,5.7
	c0.4,0.4,0.4,1,0,1.4l-0.7,0.7l-0.7-0.7l-4.7,4.7C14.1,15.6,14,15.8,14,16.1z"/>
</svg>
