<svg xmlns="http://www.w3.org/2000/svg" width="24" height="24" viewBox="0 0 24 24" fill="none">
<g clip-path="url(#clip0_208_80)">
<rect width="24" height="24" rx="12" fill="#FF9F00"/>
<path fill-rule="evenodd" clip-rule="evenodd" d="M21.5238 16.6672L19.8414 19.1387L17.0423 18.9031L16.3416 19.3611L15.432 22.0164L12.4957 22.5742L10.6817 20.4278L9.86175 20.2536L7.34255 21.49L4.87221 19.8084L5.10777 17.0093L4.6497 16.3085L1.99427 15.3979L1.43648 12.4616L3.58388 10.6475L3.75803 9.82762L2.52167 7.30842L4.20265 4.83902L7.00193 5.07561L7.70201 4.61804L8.60918 1.96102L11.5463 1.40307L13.3604 3.55047L14.1803 3.72461L16.699 2.48846L19.1717 4.16905L18.9361 6.96859L19.3938 7.66883L22.0508 8.57599L22.6088 11.5131L20.4616 13.327L20.2875 14.1487L21.5238 16.6672ZM15.3368 11.3991C15.6797 13.204 14.4944 14.9452 12.6895 15.2881C10.8845 15.631 9.14334 14.4457 8.80046 12.6407C8.45758 10.8358 9.64284 9.0946 11.4478 8.75172C13.2528 8.40884 14.9939 9.5941 15.3368 11.3991Z" fill="white"/>
<path d="M16.0874 14.8057C15.5907 16.1819 14.2407 17.0183 12.0757 17.292C11.9773 17.3043 11.8804 17.312 11.7835 17.3151C11.6574 17.4996 11.4929 17.6595 11.2992 17.7841C10.7917 18.1085 10.3166 18.2669 9.84762 18.2669C8.88352 18.2669 7.84561 17.5473 7.84561 15.9666C7.84561 15.859 7.85022 15.719 7.86099 15.5253C7.8656 15.4423 7.87021 15.3777 7.87175 15.33C7.84561 15.2101 7.83177 15.0886 7.83177 14.9656V14.2214C7.83177 14.0999 7.84407 13.9784 7.86867 13.8569C7.87021 13.7539 7.87482 13.6386 7.88251 13.5125C7.84561 13.3772 7.81793 13.2204 7.81793 13.0451C7.81793 12.9651 7.82408 12.8851 7.83485 12.8067C7.89328 12.3946 8.07626 11.981 8.38532 11.6504C8.27923 11.3537 8.22387 11.04 8.22387 10.7186V9.9344C8.22387 9.61611 8.28691 9.2194 8.59598 8.23223C8.72514 7.80784 8.76666 7.6756 8.82355 7.55259C9.12647 6.87295 9.58315 6.53313 9.91528 6.36553C10.4581 6.0949 11.0408 5.95651 11.6467 5.95651C11.9265 5.95651 12.1941 5.98573 12.4493 6.04109C12.5631 5.9642 12.6846 5.89962 12.8137 5.8458C12.9783 5.77507 13.1536 5.72587 13.3473 5.69511C13.8317 5.61208 14.3437 5.7151 14.7896 5.98573C15.2586 6.27173 15.7968 6.86526 15.7307 8.08615C15.7199 8.30142 15.7014 8.58896 15.6738 8.96415C15.6722 8.97338 15.6722 8.9826 15.6707 8.99183C15.6461 9.26399 15.6107 9.66993 15.5631 10.2066C15.5754 10.4141 15.5707 10.6463 15.5523 10.92C15.5446 11.0246 15.5277 11.1292 15.5 11.2306C15.4939 11.2537 15.4877 11.2752 15.4816 11.2952C15.6891 11.5612 15.8306 11.8272 15.9275 12.0579C16.0182 12.2409 16.0951 12.4515 16.1627 12.7083C16.1889 12.8052 16.2058 12.9036 16.2135 13.0035C16.2827 13.8662 16.2473 14.3751 16.0874 14.8057V14.8057Z" fill="#F9A83A"/>
<path d="M14.5276 13.1395C14.5726 13.6987 14.5634 14.0591 14.5005 14.2215C14.2388 14.961 13.3596 15.4252 11.8631 15.6146C11.358 15.6778 10.8532 15.4389 10.3481 14.8978C10.3481 14.979 10.3661 15.2224 10.4024 15.6283C10.4294 15.9258 10.4248 16.1693 10.3888 16.3585C10.1633 16.5028 9.98305 16.575 9.84774 16.575C9.64016 16.575 9.53667 16.3722 9.53667 15.9663C9.53667 15.8942 9.54113 15.7793 9.55021 15.6215C9.55912 15.4639 9.56374 15.3534 9.56374 15.2902C9.56374 15.1369 9.5502 15.0288 9.52314 14.9656V14.2217C9.52314 14.2037 9.5276 14.1834 9.53667 14.1608C9.54559 14.1383 9.55466 14.118 9.56374 14.0999C9.55466 13.9738 9.55912 13.7799 9.57727 13.5183C9.59526 13.356 9.59526 13.2525 9.57727 13.2073C9.53206 13.1173 9.50977 13.0632 9.50977 13.0451C9.54559 12.7926 9.73072 12.6663 10.0642 12.6663C10.2806 12.6663 10.4113 12.7431 10.4565 12.8962C10.4565 13.0404 10.4745 13.2525 10.5106 13.5319C10.5649 13.8565 10.736 14.1812 11.0247 14.5057C11.3402 14.8755 11.6422 15.0468 11.9309 15.0197C12.2555 14.9839 12.5801 14.9071 12.9047 14.7898C13.3556 14.6275 13.626 14.4382 13.7163 14.2218C13.7792 14.0594 13.8109 13.8883 13.8109 13.7078C13.8109 13.1579 13.6081 12.7475 13.2023 12.4771C13.0217 12.3599 12.6882 12.2652 12.2013 12.1929C11.9217 12.1571 11.7503 12.1388 11.6874 12.1388C11.2545 12.1478 10.8509 12.0081 10.4768 11.7195C10.1025 11.431 9.91555 11.0972 9.91555 10.7184V9.9341C9.91555 9.76296 10.0147 9.36163 10.2132 8.73043C10.3032 8.43274 10.3529 8.27513 10.3621 8.25699C10.4431 8.0677 10.5468 7.94146 10.673 7.87826C10.9794 7.72511 11.304 7.64838 11.6468 7.64838C12.314 7.64838 12.8054 7.91886 13.1211 8.4598C13.1481 8.48686 13.1932 8.52746 13.2564 8.58158C13.2653 8.45549 13.2835 8.2616 13.3105 8.00004C13.3014 7.88288 13.2924 7.77017 13.2835 7.66192C13.2835 7.53583 13.3463 7.45018 13.4727 7.40498C13.5087 7.38699 13.5584 7.37345 13.6216 7.36438C13.7117 7.34639 13.8087 7.369 13.9125 7.43189C14.016 7.49508 14.0589 7.68452 14.0409 7.99989C14.0318 8.19825 14.0138 8.47779 13.9868 8.83837C13.9597 9.13606 13.9193 9.59136 13.865 10.2046C13.883 10.3488 13.883 10.5473 13.865 10.7996C13.8198 10.9709 13.6845 11.0566 13.4592 11.0566C13.3419 11.0566 13.2293 11.0251 13.1211 10.962C13.067 10.7909 13.04 10.7184 13.04 10.7455C13.0579 10.5021 13.0084 10.1775 12.8912 9.77172C12.7919 9.56445 12.6546 9.26922 12.4787 8.88588C12.3027 8.5027 12.0706 8.29742 11.7821 8.27036C11.4214 8.2433 11.187 8.36508 11.0788 8.63555C11.0428 8.75288 10.993 8.92432 10.9301 9.14959C10.8218 9.48326 10.7542 9.8034 10.7271 10.1098C10.718 10.2092 10.709 10.2498 10.7001 10.2316C10.7271 10.4121 10.7586 10.5924 10.7948 10.7727C10.8398 10.9981 10.9504 11.1696 11.1261 11.2866C11.302 11.4039 11.6377 11.4759 12.1338 11.503C13.351 11.5754 14.1038 11.9992 14.3924 12.7744C14.4373 12.8467 14.4824 12.9683 14.5276 13.1395V13.1395Z" fill="white"/>
</g>
<defs>
<clipPath id="clip0_208_80">
<rect width="24" height="24" rx="12" fill="white"/>
</clipPath>
</defs>
</svg>