<svg xmlns="http://www.w3.org/2000/svg" height="24" viewBox="0 -960 960 960" width="24"><path d="M22.477-131.172v-132.349q0-39.258 20.437-72.165 20.437-32.908 54.303-50.227 63.696-31.566 129.933-47.631 66.238-16.065 134.546-16.065 69.391 0 135.652 15.782 66.261 15.783 128.826 47.348 33.867 17.238 54.303 49.989 20.437 32.751 20.437 72.938v132.38H22.477Zm766.916 0v-138.654q0-46.261-23.935-89.587t-70.63-80.805q44.782 7.131 85.26 20.783 40.478 13.652 77.217 32.956 38.261 20 59.239 50.892 20.979 30.892 20.979 67.457v136.958h-148.13ZM361.696-489.609q-70.522 0-120.066-49.544-49.543-49.543-49.543-120.065 0-70.522 49.543-120.066 49.544-49.544 120.066-49.544t120.065 49.544q49.544 49.544 49.544 120.066t-49.544 120.065q-49.543 49.544-120.065 49.544Zm427.697-169.614q0 69.961-49.797 119.788-49.796 49.826-119.723 49.826-11.655 0-28.089-2.783-16.435-2.782-29.696-6.913 28.13-33.13 42.913-74.308 14.783-41.177 14.783-85.522 0-44.344-14.783-85.605t-42.913-74.392q14.565-5.565 28.565-7.63 14-2.066 28.864-2.066 70.074 0 119.975 49.822 49.901 49.821 49.901 119.783Z" fill="white"/></svg>